<?xml version="1.0" standalone="no"?>
<!DOCTYPE svg PUBLIC "-//W3C//DTD SVG 20010904//EN"
 "http://www.w3.org/TR/2001/REC-SVG-20010904/DTD/svg10.dtd">
<svg version="1.0" xmlns="http://www.w3.org/2000/svg"
 width="472.000000pt" height="472.000000pt" viewBox="0 0 472.000000 472.000000"
 preserveAspectRatio="xMidYMid meet">
<metadata>
Created by potrace 1.14, written by Peter Selinger 2001-2017
</metadata>
<g transform="translate(0.000000,472.000000) scale(0.100000,-0.100000)"
fill="#000000" stroke="none">
<path d="M2960 2948 c0 -606 -4 -1020 -10 -1062 -42 -288 -260 -527 -538 -592
-85 -20 -240 -20 -325 0 -132 31 -283 126 -372 233 -251 304 -214 732 85 981
132 109 280 162 454 162 116 0 198 -17 291 -59 l65 -30 0 268 0 269 -63 15
c-348 88 -717 14 -1007 -201 -207 -154 -363 -379 -434 -626 -25 -84 -26 -100
-26 -330 0 -211 3 -251 20 -313 106 -382 415 -704 793 -827 237 -77 538 -70
772 19 360 137 633 433 742 806 l27 94 4 1093 3 1092 -241 0 -240 0 0 -992z"/>
</g>
</svg>
