<svg width="620" height="566" viewBox="0 0 620 566" fill="none" xmlns="http://www.w3.org/2000/svg">
<mask id="mask0_908_17271" style="mask-type:alpha" maskUnits="userSpaceOnUse" x="161" y="163" width="337" height="403">
<path d="M294.195 163.802L289.757 172.293C287.641 176.341 286.317 180.756 285.857 185.301L283.895 204.669L172.853 314.578C161.364 325.95 158.358 343.36 165.37 357.926L243.693 520.641C224.655 526.307 211.919 532.398 205.484 538.915C199.048 545.432 197.166 554.146 199.835 565.056L278.579 565.163L286.554 540.244L289.259 526.847C289.694 524.689 291.797 523.293 293.956 523.728C295.264 523.993 296.353 524.894 296.858 526.129L312.801 565.163H328.085L315.46 506.687C311.524 496.646 308.201 489.004 305.492 483.761C302.783 478.519 299.024 472.458 294.216 465.578L229.406 341.225L322.437 221.946L408.49 527.287C390.181 530.545 378.552 534.975 373.604 540.577C368.656 546.178 367.659 554.595 370.614 565.828H464.309L462.261 527.328C462.203 526.228 463.047 525.289 464.146 525.231C464.987 525.186 465.765 525.675 466.091 526.452L482.583 565.828H497.202C488.628 535.682 483.09 516.411 480.589 508.016C476.652 494.797 461.651 474.791 464.309 483.761C464.309 483.761 453.401 442.991 433.409 390.066C426.939 372.938 415.716 352.74 408.582 334.592C396.161 302.991 381.095 264.664 363.384 219.611C360.193 211.493 361.475 196.688 355.662 181.9C354.006 177.687 349.355 171.876 341.708 164.466L294.195 163.802Z" fill="white"/>
</mask>
<g mask="url(#mask0_908_17271)">
<path d="M294.195 163.802L289.757 172.293C287.641 176.341 286.317 180.756 285.857 185.301L283.895 204.669L172.853 314.578C161.364 325.95 158.358 343.36 165.37 357.926L243.693 520.641C224.655 526.307 211.919 532.398 205.484 538.915C199.048 545.432 197.166 554.146 199.835 565.056L278.579 565.163L286.554 540.244L289.259 526.847C289.694 524.689 291.797 523.293 293.956 523.728C295.264 523.993 296.353 524.894 296.858 526.129L312.801 565.163H328.085L315.46 506.687C311.524 496.646 308.201 489.004 305.492 483.761C302.783 478.519 299.024 472.458 294.216 465.578L229.406 341.225L322.437 221.946L408.49 527.287C390.181 530.545 378.552 534.975 373.604 540.577C368.656 546.178 367.659 554.595 370.614 565.828H464.309L462.261 527.328C462.203 526.228 463.047 525.289 464.146 525.231C464.987 525.186 465.765 525.675 466.091 526.452L482.583 565.828H497.202C488.628 535.682 483.09 516.411 480.589 508.016C476.652 494.797 461.651 474.791 464.309 483.761C464.309 483.761 453.401 442.991 433.409 390.066C426.939 372.938 415.716 352.74 408.582 334.592C396.161 302.991 381.095 264.664 363.384 219.611C360.193 211.493 361.475 196.688 355.662 181.9C354.006 177.687 349.355 171.876 341.708 164.466L294.195 163.802Z" fill="#ABEBFF"/>
<path fill-rule="evenodd" clip-rule="evenodd" d="M222.429 483.428L308.482 461.832L347.688 570.479H191.529L222.429 483.428Z" fill="#002D6F"/>
<path fill-rule="evenodd" clip-rule="evenodd" d="M385.897 474.791L470.954 482.765L516.472 589.086H360.313L385.897 474.791Z" fill="#002D6F"/>
</g>
<mask id="mask1_908_17271" style="mask-type:alpha" maskUnits="userSpaceOnUse" x="91" y="45" width="415" height="250">
<path d="M276.586 79.4091L137.704 45.8516L91.8535 183.404L153.653 187.391L176.578 107.318L283.896 122.27L291.205 163.839H341.708L347.024 111.97L449.358 279.425L497.202 294.045L505.841 279.425L468.628 172.772L364.633 75.4221C344.688 80.5516 330.29 82.89 321.44 82.4374C299.29 81.3046 284.339 80.2951 276.586 79.4091Z" fill="white"/>
</mask>
<g mask="url(#mask1_908_17271)">
<path d="M276.586 79.4091L137.704 45.8516L91.8535 183.404L153.653 187.391L176.578 107.318L283.896 122.27L291.205 163.839H341.708L347.024 111.97L449.358 279.425L497.202 294.045L505.841 279.425L468.628 172.772L364.633 75.4221C344.688 80.5516 330.29 82.89 321.44 82.4374C299.29 81.3046 284.339 80.2951 276.586 79.4091Z" fill="#A04FE2"/>
<path d="M350.03 128.078C349.666 128.125 349.333 127.867 349.287 127.503C349.24 127.139 349.498 126.806 349.862 126.76L354.197 126.208C354.561 126.162 354.894 126.419 354.94 126.783C354.986 127.147 354.729 127.48 354.365 127.526L350.03 128.078ZM350.114 121.141C349.75 121.187 349.418 120.93 349.371 120.566C349.325 120.202 349.582 119.869 349.947 119.823L354.282 119.271C354.646 119.225 354.978 119.482 355.025 119.846C355.071 120.21 354.814 120.543 354.449 120.589L350.114 121.141ZM368.009 125.688C367.645 125.734 367.312 125.477 367.266 125.113C367.22 124.749 367.477 124.416 367.841 124.369L372.176 123.818C372.54 123.771 372.873 124.029 372.919 124.393C372.966 124.757 372.708 125.09 372.344 125.136L368.009 125.688ZM368.094 118.751C367.73 118.797 367.397 118.54 367.351 118.175C367.304 117.811 367.562 117.479 367.926 117.432L372.261 116.881C372.625 116.834 372.958 117.092 373.004 117.456C373.05 117.82 372.793 118.153 372.429 118.199L368.094 118.751ZM358.841 127.286C358.482 127.36 358.13 127.128 358.057 126.768C357.983 126.409 358.214 126.058 358.574 125.984L362.818 125.113C363.177 125.039 363.528 125.27 363.602 125.63C363.676 125.99 363.444 126.341 363.085 126.415L358.841 127.286ZM358.926 120.349C358.566 120.422 358.215 120.191 358.141 119.831C358.068 119.472 358.299 119.121 358.659 119.047L362.902 118.176C363.262 118.102 363.613 118.333 363.687 118.693C363.761 119.052 363.529 119.404 363.169 119.477L358.926 120.349ZM376.821 124.895C376.461 124.969 376.11 124.738 376.036 124.378C375.962 124.019 376.194 123.667 376.553 123.594L380.797 122.722C381.156 122.649 381.508 122.88 381.581 123.24C381.655 123.599 381.424 123.95 381.064 124.024L376.821 124.895ZM376.905 117.958C376.546 118.032 376.194 117.8 376.121 117.441C376.047 117.081 376.278 116.73 376.638 116.656L380.881 115.785C381.241 115.711 381.592 115.943 381.666 116.303C381.74 116.662 381.508 117.013 381.149 117.087L376.905 117.958ZM385.988 123.298C385.624 123.344 385.291 123.086 385.245 122.722C385.199 122.358 385.456 122.025 385.82 121.979L390.156 121.427C390.52 121.381 390.852 121.639 390.899 122.003C390.945 122.367 390.687 122.699 390.323 122.746L385.988 123.298ZM386.073 116.36C385.709 116.407 385.376 116.149 385.33 115.785C385.283 115.421 385.541 115.088 385.905 115.042L390.24 114.49C390.604 114.444 390.937 114.701 390.983 115.066C391.03 115.43 390.772 115.762 390.408 115.809L386.073 116.36ZM394.8 122.505C394.44 122.579 394.089 122.347 394.015 121.988C393.941 121.628 394.173 121.277 394.533 121.203L398.776 120.332C399.136 120.258 399.487 120.49 399.561 120.849C399.634 121.209 399.403 121.56 399.043 121.634L394.8 122.505ZM394.884 115.568C394.525 115.642 394.174 115.41 394.1 115.051C394.026 114.691 394.258 114.34 394.617 114.266L398.861 113.395C399.22 113.321 399.572 113.553 399.645 113.912C399.719 114.272 399.488 114.623 399.128 114.697L394.884 115.568ZM350.199 114.204C349.835 114.25 349.502 113.993 349.456 113.629C349.41 113.265 349.667 112.932 350.031 112.886L354.366 112.334C354.73 112.287 355.063 112.545 355.109 112.909C355.156 113.273 354.898 113.606 354.534 113.652L350.199 114.204ZM368.178 111.814C367.814 111.86 367.482 111.602 367.435 111.238C367.389 110.874 367.646 110.542 368.01 110.495L372.346 109.943C372.71 109.897 373.042 110.155 373.089 110.519C373.135 110.883 372.877 111.215 372.513 111.262L368.178 111.814ZM359.011 113.411C358.651 113.485 358.3 113.254 358.226 112.894C358.152 112.535 358.384 112.183 358.743 112.11L362.987 111.238C363.346 111.165 363.698 111.396 363.771 111.756C363.845 112.115 363.614 112.466 363.254 112.54L359.011 113.411ZM376.99 111.021C376.63 111.095 376.279 110.863 376.205 110.504C376.132 110.144 376.363 109.793 376.723 109.719L380.966 108.848C381.326 108.774 381.677 109.006 381.751 109.365C381.825 109.725 381.593 110.076 381.233 110.15L376.99 111.021ZM386.158 109.423C385.794 109.47 385.461 109.212 385.414 108.848C385.368 108.484 385.626 108.151 385.99 108.105L390.325 107.553C390.689 107.507 391.022 107.764 391.068 108.128C391.114 108.492 390.857 108.825 390.493 108.871L386.158 109.423ZM394.969 108.631C394.61 108.705 394.258 108.473 394.185 108.114C394.111 107.754 394.342 107.403 394.702 107.329L398.945 106.458C399.305 106.384 399.656 106.616 399.73 106.975C399.804 107.335 399.572 107.686 399.213 107.76L394.969 108.631ZM350.284 107.267C349.92 107.313 349.587 107.056 349.541 106.692C349.494 106.327 349.752 105.995 350.116 105.948L354.451 105.397C354.815 105.35 355.148 105.608 355.194 105.972C355.24 106.336 354.983 106.669 354.619 106.715L350.284 107.267ZM368.263 104.876C367.899 104.923 367.566 104.665 367.52 104.301C367.474 103.937 367.731 103.604 368.095 103.558L372.43 103.006C372.794 102.96 373.127 103.218 373.173 103.582C373.22 103.946 372.962 104.278 372.598 104.325L368.263 104.876ZM359.095 106.474C358.736 106.548 358.384 106.317 358.311 105.957C358.237 105.598 358.468 105.246 358.828 105.172L363.072 104.301C363.431 104.228 363.782 104.459 363.856 104.819C363.93 105.178 363.698 105.529 363.339 105.603L359.095 106.474ZM377.075 104.084C376.715 104.158 376.364 103.926 376.29 103.567C376.216 103.207 376.448 102.856 376.807 102.782L381.051 101.911C381.41 101.837 381.762 102.069 381.835 102.428C381.909 102.788 381.678 103.139 381.318 103.213L377.075 104.084ZM386.242 102.486C385.878 102.532 385.545 102.275 385.499 101.911C385.453 101.547 385.71 101.214 386.074 101.168L390.41 100.616C390.774 100.57 391.106 100.827 391.153 101.191C391.199 101.555 390.941 101.888 390.577 101.934L386.242 102.486ZM395.054 101.694C394.694 101.767 394.343 101.536 394.269 101.176C394.195 100.817 394.427 100.466 394.787 100.392L399.03 99.5206C399.39 99.4468 399.741 99.6784 399.815 100.038C399.888 100.397 399.657 100.749 399.297 100.822L395.054 101.694ZM350.368 100.33C350.004 100.376 349.672 100.118 349.625 99.7544C349.579 99.3903 349.836 99.0576 350.201 99.0113L354.536 98.4595C354.9 98.4132 355.232 98.6707 355.279 99.0348C355.325 99.3989 355.068 99.7315 354.703 99.7779L350.368 100.33ZM368.348 97.9393C367.984 97.9857 367.651 97.7281 367.605 97.3641C367.558 97 367.816 96.6673 368.18 96.621L372.515 96.0692C372.879 96.0228 373.212 96.2804 373.258 96.6444C373.304 97.0085 373.047 97.3412 372.683 97.3875L368.348 97.9393ZM359.18 99.5372C358.82 99.611 358.469 99.3794 358.395 99.0199C358.322 98.6604 358.553 98.3092 358.913 98.2354L363.156 97.3642C363.516 97.2904 363.867 97.522 363.941 97.8815C364.015 98.241 363.783 98.5922 363.423 98.666L359.18 99.5372ZM377.159 97.1469C376.8 97.2207 376.448 96.9891 376.375 96.6296C376.301 96.2701 376.532 95.9188 376.892 95.845L381.135 94.9738C381.495 94.9 381.846 95.1316 381.92 95.4911C381.994 95.8506 381.762 96.2019 381.403 96.2757L377.159 97.1469ZM386.327 95.549C385.963 95.5953 385.63 95.3378 385.584 94.9737C385.537 94.6097 385.795 94.277 386.159 94.2306L390.494 93.6788C390.858 93.6325 391.191 93.8901 391.237 94.2541C391.284 94.6182 391.026 94.9509 390.662 94.9972L386.327 95.549ZM395.138 94.7565C394.779 94.8303 394.428 94.5987 394.354 94.2392C394.28 93.8798 394.512 93.5285 394.871 93.4547L399.115 92.5835C399.474 92.5097 399.826 92.7413 399.899 93.1008C399.973 93.4603 399.742 93.8116 399.382 93.8854L395.138 94.7565ZM350.453 93.3925C350.089 93.4389 349.756 93.1813 349.71 92.8173C349.664 92.4532 349.921 92.1205 350.285 92.0742L354.62 91.5224C354.984 91.4761 355.317 91.7336 355.363 92.0977C355.41 92.4617 355.152 92.7944 354.788 92.8408L350.453 93.3925ZM368.432 91.0022C368.068 91.0486 367.736 90.791 367.689 90.4269C367.643 90.0629 367.9 89.7302 368.264 89.6838L372.6 89.132C372.964 89.0857 373.296 89.3433 373.343 89.7073C373.389 90.0714 373.131 90.4041 372.767 90.4504L368.432 91.0022ZM359.265 92.6001C358.905 92.6739 358.554 92.4423 358.48 92.0828C358.406 91.7233 358.638 91.372 358.997 91.2982L363.241 90.4271C363.6 90.3532 363.952 90.5848 364.025 90.9443C364.099 91.3038 363.868 91.6551 363.508 91.7289L359.265 92.6001ZM377.244 90.2097C376.884 90.2835 376.533 90.0519 376.459 89.6924C376.386 89.3329 376.617 88.9817 376.977 88.9079L381.22 88.0367C381.58 87.9629 381.931 88.1945 382.005 88.554C382.078 88.9135 381.847 89.2648 381.487 89.3386L377.244 90.2097ZM386.412 88.6119C386.048 88.6582 385.715 88.4007 385.668 88.0366C385.622 87.6725 385.88 87.3398 386.244 87.2935L390.579 86.7417C390.943 86.6954 391.276 86.9529 391.322 87.317C391.368 87.6811 391.111 88.0137 390.747 88.0601L386.412 88.6119ZM395.223 87.8194C394.864 87.8932 394.512 87.6616 394.439 87.3021C394.365 86.9426 394.596 86.5914 394.956 86.5176L399.199 85.6464C399.559 85.5726 399.91 85.8042 399.984 86.1637C400.058 86.5232 399.826 86.8744 399.467 86.9482L395.223 87.8194ZM368.517 84.0651C368.153 84.1114 367.82 83.8539 367.774 83.4898C367.728 83.1257 367.985 82.7931 368.349 82.7467L372.684 82.1949C373.048 82.1486 373.381 82.4061 373.427 82.7702C373.474 83.1343 373.216 83.467 372.852 83.5133L368.517 84.0651ZM359.349 85.663C358.99 85.7368 358.638 85.5052 358.565 85.1457C358.491 84.7862 358.722 84.4349 359.082 84.3611L363.326 83.4899C363.685 83.4161 364.036 83.6477 364.11 84.0072C364.184 84.3667 363.952 84.718 363.593 84.7918L359.349 85.663ZM377.329 83.2726C376.969 83.3464 376.618 83.1148 376.544 82.7553C376.47 82.3958 376.702 82.0446 377.061 81.9708L381.305 81.0996C381.664 81.0258 382.016 81.2574 382.089 81.6169C382.163 81.9764 381.932 82.3276 381.572 82.4014L377.329 83.2726ZM352.705 86.1795L352.537 84.8611L352.705 86.1795ZM352.705 86.1795L350.538 86.4554C349.659 86.5673 349.491 85.2489 350.37 85.137L352.537 84.8611L354.705 84.5853C355.584 84.4734 355.752 85.7918 354.873 85.9036L352.705 86.1795ZM388.664 81.3989L388.496 80.0805L388.664 81.3989ZM388.496 80.0805C389.375 79.9686 389.543 81.287 388.664 81.3989L386.496 81.6748C385.617 81.7866 385.45 80.4683 386.328 80.3564L388.496 80.0805L390.664 79.8046C391.542 79.6927 391.71 81.0111 390.831 81.123L388.664 81.3989C387.785 81.5107 387.617 80.1923 388.496 80.0805ZM395.308 80.8823C394.948 80.9561 394.597 80.7245 394.523 80.365C394.449 80.0055 394.681 79.6542 395.041 79.5804L399.284 78.7093C399.644 78.6355 399.995 78.8671 400.069 79.2265C400.142 79.586 399.911 79.9373 399.551 80.0111L395.308 80.8823ZM292.976 90.6813C292.961 90.3146 293.247 90.0056 293.614 89.9912C293.98 89.9768 294.289 90.2624 294.304 90.6291L294.476 94.9958C294.49 95.3625 294.205 95.6715 293.838 95.6859C293.471 95.7003 293.162 95.4148 293.148 95.048L292.976 90.6813ZM299.879 91.3703C299.865 91.0036 300.15 90.6946 300.517 90.6802C300.884 90.6657 301.193 90.9513 301.207 91.318L301.379 95.6847C301.393 96.0514 301.108 96.3604 300.741 96.3749C300.374 96.3893 300.065 96.1037 300.051 95.737L299.879 91.3703ZM293.79 108.801C293.776 108.434 294.061 108.125 294.428 108.11C294.795 108.096 295.104 108.382 295.118 108.748L295.29 113.115C295.304 113.482 295.019 113.791 294.652 113.805C294.285 113.82 293.976 113.534 293.962 113.167L293.79 108.801ZM300.693 109.489C300.679 109.123 300.965 108.814 301.331 108.799C301.698 108.785 302.007 109.07 302.021 109.437L302.193 113.804C302.208 114.171 301.922 114.48 301.555 114.494C301.189 114.508 300.88 114.223 300.865 113.856L300.693 109.489ZM292.997 99.5284C292.955 99.1639 293.216 98.8341 293.581 98.7919C293.946 98.7497 294.275 99.0111 294.318 99.3757L294.816 103.679C294.858 104.044 294.596 104.373 294.232 104.415C293.867 104.458 293.538 104.196 293.495 103.832L292.997 99.5284ZM299.901 100.217C299.858 99.8528 300.12 99.5231 300.484 99.4809C300.849 99.4387 301.179 99.7001 301.221 100.065L301.719 104.368C301.761 104.732 301.5 105.062 301.135 105.104C300.771 105.147 300.441 104.885 300.399 104.521L299.901 100.217ZM293.812 117.648C293.769 117.283 294.031 116.953 294.395 116.911C294.76 116.869 295.09 117.13 295.132 117.495L295.63 121.798C295.672 122.163 295.411 122.492 295.046 122.535C294.681 122.577 294.352 122.316 294.31 121.951L293.812 117.648ZM300.715 118.337C300.673 117.972 300.934 117.642 301.299 117.6C301.663 117.558 301.993 117.819 302.035 118.184L302.533 122.487C302.575 122.852 302.314 123.181 301.949 123.224C301.585 123.266 301.255 123.004 301.213 122.64L300.715 118.337ZM294.604 126.92C294.59 126.553 294.875 126.244 295.242 126.23C295.609 126.215 295.918 126.501 295.932 126.867L296.104 131.234C296.119 131.601 295.833 131.91 295.466 131.924C295.1 131.939 294.791 131.653 294.776 131.286L294.604 126.92ZM301.508 127.609C301.493 127.242 301.779 126.933 302.146 126.919C302.512 126.904 302.821 127.19 302.836 127.556L303.008 131.923C303.022 132.29 302.736 132.599 302.37 132.613C302.003 132.628 301.694 132.342 301.68 131.975L301.508 127.609ZM294.626 135.767C294.584 135.402 294.845 135.073 295.21 135.03C295.574 134.988 295.904 135.249 295.946 135.614L296.444 139.917C296.486 140.282 296.225 140.612 295.86 140.654C295.496 140.696 295.166 140.435 295.124 140.07L294.626 135.767ZM301.529 136.456C301.487 136.091 301.748 135.761 302.113 135.719C302.477 135.677 302.807 135.938 302.849 136.303L303.347 140.606C303.39 140.971 303.128 141.301 302.764 141.343C302.399 141.385 302.069 141.124 302.027 140.759L301.529 136.456ZM306.783 92.0592C306.768 91.6925 307.054 91.3835 307.42 91.3691C307.787 91.3547 308.096 91.6403 308.111 92.007L308.282 96.3737C308.297 96.7404 308.011 97.0494 307.645 97.0638C307.278 97.0782 306.969 96.7927 306.954 96.426L306.783 92.0592ZM307.597 110.178C307.582 109.812 307.868 109.503 308.235 109.488C308.601 109.474 308.91 109.759 308.925 110.126L309.097 114.493C309.111 114.86 308.825 115.169 308.459 115.183C308.092 115.197 307.783 114.912 307.769 114.545L307.597 110.178ZM306.804 100.906C306.762 100.542 307.023 100.212 307.388 100.17C307.752 100.128 308.082 100.389 308.124 100.754L308.622 105.057C308.664 105.421 308.403 105.751 308.039 105.793C307.674 105.836 307.344 105.574 307.302 105.21L306.804 100.906ZM307.618 119.026C307.576 118.661 307.837 118.331 308.202 118.289C308.567 118.247 308.896 118.508 308.938 118.873L309.436 123.176C309.479 123.541 309.217 123.87 308.853 123.913C308.488 123.955 308.158 123.693 308.116 123.329L307.618 119.026ZM308.411 128.298C308.397 127.931 308.682 127.622 309.049 127.608C309.416 127.593 309.725 127.879 309.739 128.245L309.911 132.612C309.925 132.979 309.64 133.288 309.273 133.302C308.906 133.317 308.597 133.031 308.583 132.664L308.411 128.298ZM308.432 137.145C308.39 136.78 308.652 136.45 309.016 136.408C309.381 136.366 309.71 136.627 309.753 136.992L310.251 141.295C310.293 141.66 310.032 141.99 309.667 142.032C309.302 142.074 308.973 141.813 308.931 141.448L308.432 137.145ZM313.686 92.7482C313.671 92.3815 313.957 92.0725 314.324 92.0581C314.69 92.0436 314.999 92.3292 315.014 92.6959L315.186 97.0627C315.2 97.4294 314.915 97.7383 314.548 97.7528C314.181 97.7672 313.872 97.4816 313.858 97.1149L313.686 92.7482ZM314.5 110.867C314.486 110.501 314.771 110.192 315.138 110.177C315.505 110.163 315.814 110.448 315.828 110.815L316 115.182C316.014 115.549 315.729 115.858 315.362 115.872C314.995 115.886 314.686 115.601 314.672 115.234L314.5 110.867ZM313.707 101.595C313.665 101.231 313.927 100.901 314.291 100.859C314.656 100.817 314.985 101.078 315.028 101.443L315.526 105.746C315.568 106.11 315.306 106.44 314.942 106.482C314.577 106.525 314.248 106.263 314.205 105.899L313.707 101.595ZM314.522 119.715C314.479 119.35 314.741 119.02 315.105 118.978C315.47 118.936 315.8 119.197 315.842 119.562L316.34 123.865C316.382 124.23 316.121 124.559 315.756 124.602C315.392 124.644 315.062 124.382 315.02 124.018L314.522 119.715ZM315.314 128.987C315.3 128.62 315.586 128.311 315.952 128.296C316.319 128.282 316.628 128.568 316.642 128.934L316.814 133.301C316.829 133.668 316.543 133.977 316.176 133.991C315.81 134.006 315.501 133.72 315.486 133.353L315.314 128.987ZM315.336 137.834C315.294 137.469 315.555 137.139 315.92 137.097C316.284 137.055 316.614 137.316 316.656 137.681L317.154 141.984C317.196 142.349 316.935 142.679 316.57 142.721C316.206 142.763 315.876 142.502 315.834 142.137L315.336 137.834ZM320.589 93.4371C320.575 93.0704 320.86 92.7614 321.227 92.747C321.594 92.7326 321.903 93.0182 321.917 93.3849L322.089 97.7516C322.104 98.1183 321.818 98.4273 321.451 98.4417C321.085 98.4562 320.776 98.1706 320.761 97.8039L320.589 93.4371ZM321.403 111.556C321.389 111.19 321.675 110.881 322.041 110.866C322.408 110.852 322.717 111.137 322.731 111.504L322.903 115.871C322.918 116.238 322.632 116.546 322.265 116.561C321.899 116.575 321.59 116.29 321.575 115.923L321.403 111.556ZM320.611 102.284C320.569 101.92 320.83 101.59 321.194 101.548C321.559 101.506 321.889 101.767 321.931 102.131L322.429 106.435C322.471 106.799 322.21 107.129 321.845 107.171C321.481 107.213 321.151 106.952 321.109 106.588L320.611 102.284ZM321.425 120.403C321.383 120.039 321.644 119.709 322.009 119.667C322.373 119.625 322.703 119.886 322.745 120.251L323.243 124.554C323.285 124.919 323.024 125.248 322.659 125.29C322.295 125.333 321.965 125.071 321.923 124.707L321.425 120.403ZM322.218 129.676C322.203 129.309 322.489 129 322.856 128.985C323.222 128.971 323.531 129.257 323.546 129.623L323.718 133.99C323.732 134.357 323.446 134.666 323.08 134.68C322.713 134.695 322.404 134.409 322.39 134.042L322.218 129.676ZM322.239 138.523C322.197 138.158 322.458 137.828 322.823 137.786C323.187 137.744 323.517 138.005 323.559 138.37L324.057 142.673C324.1 143.038 323.838 143.367 323.474 143.41C323.109 143.452 322.779 143.191 322.737 142.826L322.239 138.523ZM327.493 94.1261C327.478 93.7594 327.764 93.4504 328.13 93.436C328.497 93.4215 328.806 93.7071 328.821 94.0738L328.992 98.4406C329.007 98.8073 328.721 99.1162 328.355 99.1307C327.988 99.1451 327.679 98.8595 327.664 98.4928L327.493 94.1261ZM328.307 112.245C328.292 111.879 328.578 111.57 328.945 111.555C329.311 111.541 329.62 111.826 329.635 112.193L329.807 116.56C329.821 116.926 329.536 117.235 329.169 117.25C328.802 117.264 328.493 116.979 328.479 116.612L328.307 112.245ZM327.514 102.973C327.472 102.609 327.733 102.279 328.098 102.237C328.462 102.195 328.792 102.456 328.834 102.82L329.332 107.124C329.374 107.488 329.113 107.818 328.749 107.86C328.384 107.902 328.054 107.641 328.012 107.277L327.514 102.973ZM328.328 121.092C328.286 120.728 328.547 120.398 328.912 120.356C329.277 120.314 329.606 120.575 329.649 120.94L330.147 125.243C330.189 125.608 329.927 125.937 329.563 125.979C329.198 126.022 328.869 125.76 328.826 125.396L328.328 121.092ZM329.121 130.364C329.107 129.998 329.392 129.689 329.759 129.674C330.126 129.66 330.435 129.946 330.449 130.312L330.621 134.679C330.635 135.046 330.35 135.355 329.983 135.369C329.616 135.384 329.307 135.098 329.293 134.731L329.121 130.364ZM329.143 139.212C329.1 138.847 329.362 138.517 329.726 138.475C330.091 138.433 330.421 138.694 330.463 139.059L330.961 143.362C331.003 143.727 330.742 144.056 330.377 144.099C330.012 144.141 329.683 143.879 329.641 143.515L329.143 139.212ZM335.21 112.934C335.196 112.568 335.481 112.259 335.848 112.244C336.215 112.23 336.524 112.515 336.538 112.882L336.71 117.249C336.724 117.615 336.439 117.924 336.072 117.939C335.705 117.953 335.397 117.668 335.382 117.301L335.21 112.934ZM334.417 103.662C334.375 103.298 334.637 102.968 335.001 102.926C335.366 102.883 335.695 103.145 335.738 103.509L336.236 107.813C336.278 108.177 336.016 108.507 335.652 108.549C335.287 108.591 334.958 108.33 334.915 107.965L334.417 103.662ZM335.232 121.781C335.189 121.417 335.451 121.087 335.815 121.045C336.18 121.003 336.51 121.264 336.552 121.629L337.05 125.932C337.092 126.296 336.831 126.626 336.466 126.668C336.102 126.711 335.772 126.449 335.73 126.085L335.232 121.781ZM334.482 96.9984L335.81 96.9461L334.482 96.9984ZM334.482 96.9984L334.396 94.8151C334.361 93.9297 335.689 93.8775 335.724 94.7628L335.81 96.9461L335.896 99.1295C335.931 100.015 334.603 100.067 334.568 99.1818L334.482 96.9984ZM336.11 133.237L337.438 133.185L336.11 133.237ZM337.438 133.185C337.473 134.07 336.145 134.122 336.11 133.237L336.024 131.053C335.99 130.168 337.318 130.116 337.352 131.001L337.438 133.185L337.524 135.368C337.559 136.253 336.231 136.305 336.196 135.42L336.11 133.237C336.076 132.351 337.404 132.299 337.438 133.185ZM336.046 139.901C336.004 139.536 336.265 139.206 336.63 139.164C336.994 139.122 337.324 139.383 337.366 139.748L337.864 144.051C337.906 144.416 337.645 144.745 337.28 144.788C336.916 144.83 336.586 144.568 336.544 144.204L336.046 139.901ZM385.532 155.815C385.325 155.512 385.404 155.099 385.707 154.892C386.01 154.686 386.424 154.764 386.63 155.067L389.09 158.68C389.296 158.983 389.218 159.396 388.915 159.603C388.611 159.809 388.198 159.731 387.991 159.428L385.532 155.815ZM391.751 152.742C391.545 152.438 391.623 152.025 391.926 151.818C392.23 151.612 392.643 151.69 392.85 151.993L395.309 155.606C395.516 155.909 395.438 156.322 395.134 156.529C394.831 156.735 394.417 156.657 394.211 156.354L391.751 152.742ZM395.824 170.75C395.617 170.447 395.696 170.033 395.999 169.827C396.302 169.62 396.716 169.699 396.922 170.002L399.382 173.614C399.589 173.917 399.51 174.331 399.207 174.537C398.904 174.744 398.49 174.665 398.284 174.362L395.824 170.75ZM402.043 167.676C401.837 167.373 401.915 166.959 402.219 166.753C402.522 166.546 402.935 166.625 403.142 166.928L405.602 170.54C405.808 170.843 405.73 171.257 405.426 171.463C405.123 171.67 404.71 171.591 404.503 171.288L402.043 167.676ZM390.238 163.307C390.009 163.02 390.056 162.602 390.343 162.373C390.63 162.144 391.048 162.191 391.277 162.478L393.98 165.863C394.208 166.15 394.162 166.568 393.875 166.797C393.588 167.026 393.17 166.979 392.941 166.692L390.238 163.307ZM396.458 160.233C396.229 159.946 396.276 159.528 396.562 159.299C396.849 159.07 397.267 159.117 397.496 159.404L400.199 162.789C400.428 163.076 400.381 163.494 400.094 163.723C399.807 163.952 399.389 163.905 399.16 163.618L396.458 160.233ZM400.53 178.241C400.301 177.955 400.348 177.536 400.635 177.307C400.922 177.078 401.34 177.125 401.569 177.412L404.272 180.798C404.501 181.084 404.454 181.503 404.167 181.732C403.88 181.961 403.462 181.914 403.233 181.627L400.53 178.241ZM406.75 175.167C406.521 174.881 406.568 174.462 406.855 174.233C407.141 174.005 407.559 174.051 407.788 174.338L410.491 177.724C410.72 178.011 410.673 178.429 410.386 178.658C410.1 178.887 409.682 178.84 409.453 178.553L406.75 175.167ZM406.116 185.684C405.91 185.381 405.988 184.968 406.291 184.761C406.595 184.555 407.008 184.633 407.215 184.936L409.674 188.548C409.881 188.852 409.803 189.265 409.499 189.472C409.196 189.678 408.782 189.6 408.576 189.297L406.116 185.684ZM412.336 182.61C412.129 182.307 412.207 181.894 412.511 181.687C412.814 181.481 413.228 181.559 413.434 181.862L415.894 185.475C416.1 185.778 416.022 186.191 415.719 186.398C415.415 186.604 415.002 186.526 414.795 186.223L412.336 182.61ZM410.823 193.176C410.594 192.889 410.641 192.471 410.927 192.242C411.214 192.013 411.632 192.06 411.861 192.347L414.564 195.732C414.793 196.019 414.746 196.437 414.459 196.666C414.172 196.895 413.754 196.848 413.525 196.561L410.823 193.176ZM417.042 190.102C416.813 189.815 416.86 189.397 417.147 189.168C417.434 188.939 417.852 188.986 418.081 189.273L420.783 192.658C421.012 192.945 420.966 193.363 420.679 193.592C420.392 193.821 419.974 193.774 419.745 193.487L417.042 190.102ZM397.971 149.668C397.764 149.364 397.843 148.951 398.146 148.744C398.449 148.538 398.863 148.616 399.069 148.919L401.529 152.532C401.735 152.835 401.657 153.248 401.354 153.455C401.05 153.661 400.637 153.583 400.43 153.28L397.971 149.668ZM408.263 164.602C408.056 164.299 408.135 163.885 408.438 163.679C408.741 163.472 409.155 163.551 409.361 163.854L411.821 167.466C412.028 167.769 411.949 168.183 411.646 168.389C411.343 168.596 410.929 168.517 410.723 168.214L408.263 164.602ZM402.677 157.159C402.448 156.872 402.495 156.454 402.782 156.225C403.069 155.996 403.487 156.043 403.716 156.33L406.418 159.715C406.647 160.002 406.601 160.42 406.314 160.649C406.027 160.878 405.609 160.831 405.38 160.544L402.677 157.159ZM412.969 172.093C412.74 171.807 412.787 171.388 413.074 171.16C413.361 170.931 413.779 170.977 414.008 171.264L416.711 174.65C416.94 174.937 416.893 175.355 416.606 175.584C416.319 175.813 415.901 175.766 415.672 175.479L412.969 172.093ZM418.555 179.536C418.348 179.233 418.427 178.82 418.73 178.613C419.034 178.407 419.447 178.485 419.654 178.788L422.113 182.401C422.32 182.704 422.241 183.117 421.938 183.324C421.635 183.53 421.221 183.452 421.015 183.149L418.555 179.536ZM423.262 187.028C423.033 186.741 423.079 186.323 423.366 186.094C423.653 185.865 424.071 185.912 424.3 186.199L427.003 189.584C427.232 189.871 427.185 190.289 426.898 190.518C426.611 190.747 426.193 190.7 425.964 190.413L423.262 187.028ZM404.19 146.594C403.984 146.29 404.062 145.877 404.365 145.67C404.669 145.464 405.082 145.542 405.289 145.846L407.748 149.458C407.955 149.761 407.876 150.174 407.573 150.381C407.27 150.588 406.856 150.509 406.65 150.206L404.19 146.594ZM414.482 161.528C414.276 161.225 414.354 160.811 414.658 160.605C414.961 160.398 415.374 160.477 415.581 160.78L418.041 164.392C418.247 164.695 418.169 165.109 417.865 165.315C417.562 165.522 417.149 165.444 416.942 165.14L414.482 161.528ZM408.897 154.085C408.668 153.798 408.714 153.38 409.001 153.151C409.288 152.922 409.706 152.969 409.935 153.256L412.638 156.641C412.867 156.928 412.82 157.346 412.533 157.575C412.246 157.804 411.828 157.757 411.599 157.471L408.897 154.085ZM419.189 169.019C418.96 168.733 419.007 168.315 419.293 168.086C419.58 167.857 419.998 167.903 420.227 168.19L422.93 171.576C423.159 171.863 423.112 172.281 422.825 172.51C422.539 172.739 422.12 172.692 421.892 172.405L419.189 169.019ZM424.775 176.463C424.568 176.159 424.646 175.746 424.95 175.539C425.253 175.333 425.666 175.411 425.873 175.714L428.333 179.327C428.539 179.63 428.461 180.043 428.158 180.25C427.854 180.456 427.441 180.378 427.234 180.075L424.775 176.463ZM429.481 183.954C429.252 183.667 429.299 183.249 429.586 183.02C429.873 182.791 430.291 182.838 430.52 183.125L433.222 186.51C433.451 186.797 433.404 187.215 433.118 187.444C432.831 187.673 432.413 187.626 432.184 187.339L429.481 183.954ZM410.41 143.52C410.203 143.216 410.281 142.803 410.585 142.596C410.888 142.39 411.301 142.468 411.508 142.772L413.968 146.384C414.174 146.687 414.096 147.1 413.793 147.307C413.489 147.514 413.076 147.435 412.869 147.132L410.41 143.52ZM420.702 158.454C420.495 158.151 420.574 157.737 420.877 157.531C421.18 157.324 421.594 157.403 421.8 157.706L424.26 161.318C424.467 161.622 424.388 162.035 424.085 162.241C423.781 162.448 423.368 162.37 423.162 162.066L420.702 158.454ZM415.116 151.011C414.887 150.724 414.934 150.306 415.221 150.077C415.508 149.848 415.926 149.895 416.155 150.182L418.857 153.567C419.086 153.854 419.039 154.272 418.753 154.501C418.466 154.73 418.048 154.683 417.819 154.397L415.116 151.011ZM425.408 165.946C425.179 165.659 425.226 165.241 425.513 165.012C425.8 164.783 426.218 164.83 426.447 165.116L429.15 168.502C429.379 168.789 429.332 169.207 429.045 169.436C428.758 169.665 428.34 169.618 428.111 169.331L425.408 165.946ZM430.994 173.389C430.787 173.085 430.866 172.672 431.169 172.465C431.473 172.259 431.886 172.337 432.092 172.641L434.552 176.253C434.759 176.556 434.68 176.969 434.377 177.176C434.074 177.383 433.66 177.304 433.454 177.001L430.994 173.389ZM435.7 180.88C435.471 180.593 435.518 180.175 435.805 179.946C436.092 179.717 436.51 179.764 436.739 180.051L439.442 183.436C439.671 183.723 439.624 184.141 439.337 184.37C439.05 184.599 438.632 184.552 438.403 184.266L435.7 180.88ZM416.629 140.446C416.422 140.142 416.501 139.729 416.804 139.522C417.108 139.316 417.521 139.394 417.728 139.698L420.187 143.31C420.394 143.613 420.315 144.026 420.012 144.233C419.709 144.44 419.295 144.361 419.089 144.058L416.629 140.446ZM426.921 155.38C426.715 155.077 426.793 154.663 427.096 154.457C427.4 154.25 427.813 154.329 428.02 154.632L430.48 158.244C430.686 158.548 430.608 158.961 430.304 159.168C430.001 159.374 429.588 159.296 429.381 158.992L426.921 155.38ZM421.335 147.937C421.107 147.65 421.153 147.232 421.44 147.003C421.727 146.774 422.145 146.821 422.374 147.108L425.077 150.493C425.306 150.78 425.259 151.198 424.972 151.427C424.685 151.656 424.267 151.609 424.038 151.323L421.335 147.937ZM431.628 162.872C431.399 162.585 431.446 162.167 431.732 161.938C432.019 161.709 432.437 161.756 432.666 162.042L435.369 165.428C435.598 165.715 435.551 166.133 435.264 166.362C434.978 166.591 434.559 166.544 434.33 166.257L431.628 162.872ZM437.213 170.315C437.007 170.011 437.085 169.598 437.389 169.391C437.692 169.185 438.105 169.263 438.312 169.567L440.772 173.179C440.978 173.482 440.9 173.895 440.597 174.102C440.293 174.309 439.88 174.23 439.673 173.927L437.213 170.315ZM441.92 177.806C441.691 177.519 441.738 177.101 442.025 176.872C442.311 176.643 442.73 176.69 442.959 176.977L445.661 180.362C445.89 180.649 445.843 181.067 445.557 181.296C445.27 181.525 444.852 181.478 444.623 181.192L441.92 177.806ZM433.141 152.306C432.934 152.003 433.013 151.589 433.316 151.383C433.619 151.176 434.033 151.255 434.239 151.558L436.699 155.17C436.906 155.474 436.827 155.887 436.524 156.094C436.22 156.3 435.807 156.222 435.6 155.918L433.141 152.306ZM427.555 144.863C427.326 144.576 427.373 144.158 427.66 143.929C427.946 143.7 428.365 143.747 428.594 144.034L431.296 147.419C431.525 147.706 431.478 148.124 431.192 148.353C430.905 148.582 430.487 148.535 430.258 148.249L427.555 144.863ZM437.847 159.798C437.618 159.511 437.665 159.093 437.952 158.864C438.239 158.635 438.657 158.682 438.886 158.968L441.589 162.354C441.818 162.641 441.771 163.059 441.484 163.288C441.197 163.517 440.779 163.47 440.55 163.183L437.847 159.798ZM424.078 139.178L425.177 138.43L424.078 139.178ZM424.078 139.178L422.848 137.372C422.35 136.639 423.448 135.891 423.947 136.624L425.177 138.43L426.407 140.236C426.905 140.968 425.807 141.716 425.308 140.984L424.078 139.178ZM444.663 169.047L445.761 168.299L444.663 169.047ZM445.761 168.299C446.26 169.031 445.162 169.779 444.663 169.047L443.433 167.241C442.934 166.508 444.033 165.76 444.531 166.493L445.761 168.299L446.991 170.105C447.49 170.837 446.391 171.585 445.893 170.853L444.663 169.047C444.164 168.314 445.263 167.566 445.761 168.299ZM448.139 174.732C447.91 174.445 447.957 174.027 448.244 173.798C448.531 173.569 448.949 173.616 449.178 173.903L451.881 177.288C452.11 177.575 452.063 177.993 451.776 178.222C451.489 178.451 451.071 178.404 450.842 178.118L448.139 174.732ZM415.842 201.184C415.646 200.874 415.739 200.463 416.049 200.267C416.36 200.071 416.77 200.164 416.966 200.475L419.298 204.17C419.494 204.481 419.401 204.891 419.091 205.087C418.781 205.283 418.37 205.19 418.174 204.88L415.842 201.184ZM422.165 198.329C421.969 198.018 422.062 197.608 422.372 197.412C422.683 197.216 423.093 197.309 423.289 197.62L425.621 201.315C425.817 201.626 425.724 202.036 425.414 202.232C425.104 202.428 424.693 202.335 424.497 202.025L422.165 198.329ZM425.607 216.468C425.411 216.158 425.504 215.748 425.814 215.552C426.125 215.356 426.535 215.449 426.731 215.759L429.063 219.455C429.259 219.765 429.166 220.176 428.856 220.372C428.545 220.567 428.135 220.475 427.939 220.164L425.607 216.468ZM431.93 213.613C431.734 213.303 431.827 212.893 432.137 212.697C432.448 212.501 432.858 212.594 433.054 212.904L435.386 216.6C435.582 216.91 435.489 217.321 435.179 217.517C434.868 217.712 434.458 217.62 434.262 217.309L431.93 213.613ZM420.284 208.835C420.065 208.54 420.127 208.124 420.422 207.905C420.716 207.686 421.132 207.748 421.351 208.043L423.934 211.52C424.153 211.815 424.092 212.231 423.797 212.45C423.502 212.669 423.086 212.607 422.867 212.313L420.284 208.835ZM426.607 205.98C426.388 205.685 426.45 205.269 426.744 205.05C427.039 204.831 427.455 204.893 427.674 205.188L430.257 208.665C430.476 208.96 430.414 209.376 430.12 209.595C429.825 209.814 429.409 209.752 429.19 209.458L426.607 205.98ZM430.049 224.12C429.83 223.825 429.892 223.409 430.186 223.19C430.481 222.971 430.897 223.032 431.116 223.327L433.699 226.805C433.918 227.1 433.856 227.516 433.562 227.735C433.267 227.953 432.851 227.892 432.632 227.597L430.049 224.12ZM436.372 221.265C436.153 220.97 436.215 220.554 436.509 220.335C436.804 220.116 437.22 220.177 437.439 220.472L440.022 223.95C440.241 224.245 440.179 224.661 439.885 224.88C439.59 225.098 439.174 225.037 438.955 224.742L436.372 221.265ZM435.372 231.753C435.176 231.443 435.269 231.032 435.579 230.836C435.889 230.641 436.3 230.733 436.496 231.044L438.828 234.74C439.024 235.05 438.931 235.46 438.62 235.656C438.31 235.852 437.9 235.759 437.704 235.449L435.372 231.753ZM441.695 228.898C441.499 228.588 441.592 228.177 441.902 227.981C442.212 227.786 442.623 227.878 442.819 228.189L445.151 231.885C445.347 232.195 445.254 232.605 444.943 232.801C444.633 232.997 444.223 232.904 444.027 232.594L441.695 228.898ZM439.814 239.404C439.595 239.109 439.656 238.693 439.951 238.474C440.246 238.256 440.662 238.317 440.881 238.612L443.464 242.089C443.683 242.384 443.621 242.8 443.326 243.019C443.032 243.238 442.616 243.177 442.397 242.882L439.814 239.404ZM446.137 236.549C445.918 236.254 445.979 235.838 446.274 235.619C446.569 235.401 446.985 235.462 447.204 235.757L449.787 239.234C450.005 239.529 449.944 239.945 449.649 240.164C449.355 240.383 448.939 240.321 448.72 240.027L446.137 236.549ZM428.488 195.474C428.292 195.163 428.385 194.753 428.695 194.557C429.006 194.361 429.416 194.454 429.612 194.765L431.944 198.46C432.14 198.771 432.047 199.181 431.737 199.377C431.426 199.573 431.016 199.48 430.82 199.17L428.488 195.474ZM438.253 210.758C438.057 210.448 438.15 210.038 438.46 209.842C438.771 209.646 439.181 209.739 439.377 210.049L441.709 213.745C441.905 214.055 441.812 214.466 441.502 214.662C441.191 214.857 440.781 214.765 440.585 214.454L438.253 210.758ZM432.93 203.125C432.711 202.83 432.773 202.414 433.067 202.195C433.362 201.976 433.778 202.038 433.997 202.332L436.58 205.81C436.799 206.105 436.737 206.521 436.443 206.74C436.148 206.959 435.732 206.897 435.513 206.603L432.93 203.125ZM442.695 218.409C442.476 218.115 442.538 217.699 442.832 217.48C443.127 217.261 443.543 217.322 443.762 217.617L446.345 221.095C446.564 221.389 446.502 221.806 446.208 222.025C445.913 222.243 445.497 222.182 445.278 221.887L442.695 218.409ZM448.018 226.043C447.822 225.733 447.915 225.322 448.225 225.126C448.535 224.931 448.946 225.023 449.141 225.334L451.474 229.029C451.67 229.34 451.577 229.75 451.266 229.946C450.956 230.142 450.546 230.049 450.35 229.739L448.018 226.043ZM452.46 233.694C452.241 233.399 452.302 232.983 452.597 232.764C452.892 232.546 453.308 232.607 453.527 232.902L456.11 236.379C456.328 236.674 456.267 237.09 455.972 237.309C455.678 237.528 455.261 237.466 455.043 237.172L452.46 233.694ZM434.811 192.619C434.615 192.308 434.708 191.898 435.018 191.702C435.329 191.506 435.739 191.599 435.935 191.91L438.267 195.605C438.463 195.916 438.37 196.326 438.06 196.522C437.749 196.718 437.339 196.625 437.143 196.315L434.811 192.619ZM444.576 207.903C444.38 207.593 444.473 207.183 444.783 206.987C445.093 206.791 445.504 206.884 445.7 207.194L448.032 210.89C448.228 211.2 448.135 211.611 447.825 211.806C447.514 212.002 447.104 211.909 446.908 211.599L444.576 207.903ZM439.253 200.27C439.034 199.975 439.096 199.559 439.39 199.34C439.685 199.121 440.101 199.183 440.32 199.477L442.903 202.955C443.122 203.25 443.06 203.666 442.766 203.885C442.471 204.104 442.055 204.042 441.836 203.748L439.253 200.27ZM449.018 215.554C448.799 215.26 448.861 214.844 449.155 214.625C449.45 214.406 449.866 214.467 450.085 214.762L452.668 218.24C452.887 218.534 452.825 218.951 452.531 219.17C452.236 219.388 451.82 219.327 451.601 219.032L449.018 215.554ZM454.341 223.188C454.145 222.878 454.238 222.467 454.548 222.271C454.858 222.075 455.269 222.168 455.464 222.479L457.797 226.174C457.993 226.485 457.9 226.895 457.589 227.091C457.279 227.287 456.869 227.194 456.673 226.884L454.341 223.188ZM458.783 230.839C458.564 230.544 458.625 230.128 458.92 229.909C459.215 229.691 459.631 229.752 459.85 230.047L462.433 233.524C462.651 233.819 462.59 234.235 462.295 234.454C462.001 234.673 461.584 234.611 461.366 234.317L458.783 230.839ZM441.134 189.764C440.938 189.453 441.031 189.043 441.341 188.847C441.652 188.651 442.062 188.744 442.258 189.055L444.59 192.75C444.786 193.061 444.693 193.471 444.383 193.667C444.072 193.863 443.662 193.77 443.466 193.46L441.134 189.764ZM450.899 205.048C450.703 204.738 450.796 204.328 451.106 204.132C451.416 203.936 451.827 204.029 452.023 204.339L454.355 208.035C454.551 208.345 454.458 208.756 454.148 208.951C453.837 209.147 453.427 209.054 453.231 208.744L450.899 205.048ZM445.576 197.415C445.357 197.12 445.419 196.704 445.713 196.485C446.008 196.266 446.424 196.328 446.643 196.622L449.226 200.1C449.445 200.395 449.383 200.811 449.089 201.03C448.794 201.249 448.378 201.187 448.159 200.893L445.576 197.415ZM455.341 212.699C455.122 212.405 455.183 211.989 455.478 211.77C455.773 211.551 456.189 211.612 456.408 211.907L458.991 215.385C459.21 215.679 459.148 216.096 458.853 216.314C458.559 216.533 458.143 216.472 457.924 216.177L455.341 212.699ZM460.663 220.333C460.468 220.023 460.56 219.612 460.871 219.416C461.181 219.22 461.592 219.313 461.787 219.624L464.12 223.319C464.315 223.63 464.223 224.04 463.912 224.236C463.602 224.432 463.192 224.339 462.996 224.029L460.663 220.333ZM465.106 227.984C464.887 227.689 464.948 227.273 465.243 227.054C465.537 226.836 465.954 226.897 466.173 227.192L468.756 230.669C468.974 230.964 468.913 231.38 468.618 231.599C468.324 231.818 467.907 231.756 467.689 231.462L465.106 227.984ZM447.457 186.909C447.261 186.598 447.354 186.188 447.664 185.992C447.975 185.796 448.385 185.889 448.581 186.199L450.913 189.895C451.109 190.206 451.016 190.616 450.706 190.812C450.395 191.008 449.985 190.915 449.789 190.605L447.457 186.909ZM457.222 202.193C457.026 201.883 457.119 201.473 457.429 201.277C457.739 201.081 458.15 201.174 458.346 201.484L460.678 205.18C460.874 205.49 460.781 205.901 460.47 206.096C460.16 206.292 459.75 206.199 459.554 205.889L457.222 202.193ZM451.899 194.56C451.68 194.265 451.742 193.849 452.036 193.63C452.331 193.411 452.747 193.473 452.966 193.767L455.549 197.245C455.768 197.54 455.706 197.956 455.412 198.175C455.117 198.394 454.701 198.332 454.482 198.038L451.899 194.56ZM461.664 209.844C461.445 209.55 461.506 209.134 461.801 208.915C462.096 208.696 462.512 208.757 462.731 209.052L465.314 212.53C465.533 212.824 465.471 213.241 465.176 213.459C464.882 213.678 464.466 213.617 464.247 213.322L461.664 209.844ZM466.986 217.478C466.791 217.168 466.883 216.757 467.194 216.561C467.504 216.365 467.915 216.458 468.11 216.769L470.443 220.464C470.638 220.775 470.546 221.185 470.235 221.381C469.925 221.577 469.514 221.484 469.319 221.174L466.986 217.478ZM471.429 225.129C471.21 224.834 471.271 224.418 471.566 224.199C471.86 223.98 472.277 224.042 472.496 224.337L475.078 227.814C475.297 228.109 475.236 228.525 474.941 228.744C474.647 228.963 474.23 228.901 474.012 228.607L471.429 225.129ZM463.545 199.338C463.349 199.028 463.442 198.618 463.752 198.422C464.062 198.226 464.473 198.319 464.669 198.629L467.001 202.325C467.197 202.635 467.104 203.046 466.793 203.241C466.483 203.437 466.073 203.344 465.877 203.034L463.545 199.338ZM458.222 191.705C458.003 191.41 458.065 190.994 458.359 190.775C458.654 190.556 459.07 190.618 459.289 190.912L461.872 194.39C462.091 194.685 462.029 195.101 461.735 195.32C461.44 195.539 461.024 195.477 460.805 195.183L458.222 191.705ZM467.987 206.989C467.768 206.695 467.829 206.279 468.124 206.06C468.419 205.841 468.835 205.902 469.054 206.197L471.637 209.675C471.855 209.969 471.794 210.386 471.499 210.604C471.205 210.823 470.789 210.762 470.57 210.467L467.987 206.989ZM454.946 185.902L456.07 185.192L454.946 185.902ZM454.946 185.902L453.78 184.054C453.307 183.304 454.431 182.595 454.904 183.344L456.07 185.192L457.236 187.04C457.709 187.79 456.585 188.499 456.112 187.749L454.946 185.902ZM474.475 216.471L475.599 215.761L474.475 216.471ZM475.599 215.761C476.072 216.511 474.948 217.22 474.475 216.471L473.309 214.623C472.837 213.874 473.96 213.164 474.433 213.914L475.599 215.761L476.766 217.609C477.238 218.359 476.114 219.068 475.642 218.319L474.475 216.471C474.003 215.721 475.127 215.012 475.599 215.761ZM477.752 222.274C477.533 221.979 477.594 221.563 477.889 221.344C478.183 221.125 478.6 221.187 478.818 221.482L481.401 224.959C481.62 225.254 481.559 225.67 481.264 225.889C480.97 226.108 480.553 226.046 480.334 225.752L477.752 222.274ZM223.086 110.461C222.731 110.368 222.519 110.004 222.612 109.649C222.706 109.294 223.069 109.082 223.424 109.176L227.65 110.288C228.005 110.382 228.217 110.745 228.124 111.1C228.03 111.455 227.667 111.667 227.312 111.573L223.086 110.461ZM225.763 104.061C225.408 103.967 225.196 103.604 225.29 103.249C225.383 102.894 225.746 102.682 226.101 102.776L230.328 103.888C230.682 103.981 230.894 104.345 230.801 104.7C230.708 105.055 230.344 105.267 229.989 105.173L225.763 104.061ZM240.651 114.98C240.297 114.887 240.085 114.523 240.178 114.168C240.271 113.813 240.635 113.601 240.99 113.695L245.216 114.807C245.571 114.901 245.783 115.264 245.689 115.619C245.596 115.974 245.233 116.186 244.878 116.092L240.651 114.98ZM243.329 108.58C242.974 108.486 242.762 108.123 242.855 107.768C242.949 107.413 243.312 107.201 243.667 107.295L247.893 108.407C248.248 108.5 248.46 108.864 248.367 109.219C248.273 109.574 247.91 109.785 247.555 109.692L243.329 108.58ZM231.553 113.027C231.192 112.961 230.953 112.615 231.019 112.254C231.085 111.893 231.432 111.654 231.793 111.72L236.054 112.502C236.414 112.568 236.653 112.915 236.587 113.276C236.521 113.636 236.175 113.875 235.814 113.809L231.553 113.027ZM234.23 106.627C233.869 106.561 233.63 106.214 233.696 105.853C233.763 105.492 234.109 105.254 234.47 105.32L238.731 106.102C239.092 106.168 239.331 106.514 239.264 106.875C239.198 107.236 238.852 107.475 238.491 107.409L234.23 106.627ZM249.118 117.546C248.757 117.48 248.518 117.134 248.585 116.773C248.651 116.412 248.997 116.173 249.358 116.239L253.619 117.021C253.98 117.087 254.219 117.433 254.153 117.794C254.086 118.155 253.74 118.394 253.379 118.328L249.118 117.546ZM251.795 111.146C251.434 111.08 251.196 110.733 251.262 110.372C251.328 110.011 251.674 109.772 252.035 109.839L256.296 110.621C256.657 110.687 256.896 111.033 256.83 111.394C256.764 111.755 256.417 111.994 256.056 111.928L251.795 111.146ZM258.217 119.499C257.862 119.405 257.65 119.042 257.744 118.687C257.837 118.332 258.2 118.12 258.555 118.214L262.781 119.326C263.136 119.419 263.348 119.783 263.255 120.138C263.162 120.493 262.798 120.705 262.443 120.611L258.217 119.499ZM260.894 113.099C260.539 113.005 260.327 112.642 260.421 112.287C260.514 111.932 260.878 111.72 261.232 111.813L265.459 112.926C265.814 113.019 266.026 113.383 265.932 113.737C265.839 114.092 265.475 114.304 265.12 114.211L260.894 113.099ZM266.684 122.065C266.323 121.999 266.084 121.652 266.15 121.291C266.216 120.93 266.563 120.692 266.924 120.758L271.185 121.54C271.546 121.606 271.784 121.952 271.718 122.313C271.652 122.674 271.306 122.913 270.945 122.847L266.684 122.065ZM269.361 115.665C269 115.598 268.761 115.252 268.827 114.891C268.894 114.53 269.24 114.291 269.601 114.358L273.862 115.139C274.223 115.206 274.462 115.552 274.395 115.913C274.329 116.274 273.983 116.513 273.622 116.447L269.361 115.665ZM228.44 97.6606C228.085 97.5672 227.873 97.2037 227.967 96.8488C228.06 96.4939 228.424 96.2819 228.779 96.3754L233.005 97.4877C233.36 97.5811 233.572 97.9445 233.478 98.2995C233.385 98.6544 233.021 98.8663 232.666 98.7729L228.44 97.6606ZM246.006 102.179C245.651 102.086 245.439 101.723 245.532 101.368C245.626 101.013 245.989 100.801 246.344 100.894L250.57 102.007C250.925 102.1 251.137 102.463 251.044 102.818C250.95 103.173 250.587 103.385 250.232 103.292L246.006 102.179ZM236.907 100.227C236.546 100.16 236.307 99.8141 236.373 99.4532C236.44 99.0922 236.786 98.8533 237.147 98.9195L241.408 99.7014C241.769 99.7677 242.008 100.114 241.942 100.475C241.875 100.836 241.529 101.075 241.168 101.009L236.907 100.227ZM254.473 104.746C254.112 104.679 253.873 104.333 253.939 103.972C254.005 103.611 254.352 103.372 254.713 103.438L258.973 104.22C259.334 104.287 259.573 104.633 259.507 104.994C259.441 105.355 259.095 105.594 258.734 105.527L254.473 104.746ZM263.571 106.698C263.216 106.605 263.005 106.241 263.098 105.887C263.191 105.532 263.555 105.32 263.91 105.413L268.136 106.525C268.491 106.619 268.703 106.982 268.609 107.337C268.516 107.692 268.152 107.904 267.798 107.811L263.571 106.698ZM272.038 109.264C271.677 109.198 271.438 108.852 271.505 108.491C271.571 108.13 271.917 107.891 272.278 107.957L276.539 108.739C276.9 108.805 277.139 109.152 277.073 109.513C277.006 109.874 276.66 110.113 276.299 110.046L272.038 109.264ZM231.118 91.2603C230.763 91.1669 230.551 90.8035 230.644 90.4486C230.737 90.0936 231.101 89.8817 231.456 89.9751L235.682 91.0874C236.037 91.1808 236.249 91.5443 236.155 91.8992C236.062 92.2541 235.699 92.4661 235.344 92.3727L231.118 91.2603ZM248.683 95.7792C248.328 95.6858 248.116 95.3223 248.21 94.9674C248.303 94.6125 248.666 94.4005 249.021 94.4939L253.248 95.6063C253.602 95.6997 253.814 96.0632 253.721 96.4181C253.628 96.773 253.264 96.985 252.909 96.8915L248.683 95.7792ZM239.584 93.8264C239.223 93.7602 238.984 93.4139 239.051 93.0529C239.117 92.6919 239.463 92.453 239.824 92.5192L244.085 93.3012C244.446 93.3674 244.685 93.7137 244.619 94.0747C244.553 94.4357 244.206 94.6746 243.845 94.6083L239.584 93.8264ZM257.15 98.3453C256.789 98.2791 256.55 97.9328 256.616 97.5718C256.682 97.2108 257.029 96.9719 257.39 97.0381L261.651 97.82C262.012 97.8863 262.251 98.2326 262.184 98.5936C262.118 98.9545 261.772 99.1935 261.411 99.1272L257.15 98.3453ZM266.249 100.298C265.894 100.205 265.682 99.8412 265.775 99.4863C265.869 99.1314 266.232 98.9194 266.587 99.0128L270.813 100.125C271.168 100.219 271.38 100.582 271.287 100.937C271.193 101.292 270.83 101.504 270.475 101.41L266.249 100.298ZM274.715 102.864C274.354 102.798 274.116 102.452 274.182 102.091C274.248 101.73 274.594 101.491 274.955 101.557L279.216 102.339C279.577 102.405 279.816 102.751 279.75 103.112C279.684 103.473 279.337 103.712 278.976 103.646L274.715 102.864ZM233.795 84.86C233.44 84.7666 233.228 84.4032 233.321 84.0483C233.415 83.6934 233.778 83.4814 234.133 83.5748L238.359 84.6871C238.714 84.7806 238.926 85.144 238.833 85.4989C238.739 85.8538 238.376 86.0658 238.021 85.9724L233.795 84.86ZM251.36 89.3789C251.005 89.2855 250.793 88.9221 250.887 88.5671C250.98 88.2122 251.344 88.0003 251.699 88.0937L255.925 89.206C256.28 89.2994 256.492 89.6629 256.398 90.0178C256.305 90.3727 255.941 90.5847 255.586 90.4913L251.36 89.3789ZM242.262 87.4261C241.901 87.3599 241.662 87.0136 241.728 86.6526C241.794 86.2916 242.14 86.0527 242.501 86.119L246.762 86.9009C247.123 86.9671 247.362 87.3134 247.296 87.6744C247.23 88.0354 246.883 88.2743 246.522 88.2081L242.262 87.4261ZM259.827 91.945C259.466 91.8788 259.227 91.5324 259.293 91.1715C259.36 90.8105 259.706 90.5716 260.067 90.6378L264.328 91.4198C264.689 91.486 264.928 91.8323 264.861 92.1933C264.795 92.5543 264.449 92.7932 264.088 92.7269L259.827 91.945ZM268.926 93.8978C268.571 93.8044 268.359 93.4409 268.452 93.086C268.546 92.7311 268.909 92.5191 269.264 92.6126L273.49 93.7249C273.845 93.8183 274.057 94.1817 273.964 94.5367C273.87 94.8916 273.507 95.1035 273.152 95.0101L268.926 93.8978ZM277.393 96.4639C277.032 96.3976 276.793 96.0513 276.859 95.6904C276.925 95.3294 277.272 95.0905 277.632 95.1567L281.893 95.9387C282.254 96.0049 282.493 96.3512 282.427 96.7122C282.361 97.0731 282.014 97.3121 281.653 97.2458L277.393 96.4639ZM236.472 78.4597C236.117 78.3663 235.905 78.0029 235.998 77.648C236.092 77.2931 236.455 77.0811 236.81 77.1745L241.036 78.2869C241.391 78.3803 241.603 78.7437 241.51 79.0986C241.416 79.4535 241.053 79.6655 240.698 79.5721L236.472 78.4597ZM254.037 82.9786C253.683 82.8852 253.471 82.5218 253.564 82.1669C253.657 81.812 254.021 81.6 254.376 81.6934L258.602 82.8057C258.957 82.8992 259.169 83.2626 259.075 83.6175C258.982 83.9724 258.619 84.1844 258.264 84.091L254.037 82.9786ZM244.939 81.0259C244.578 80.9596 244.339 80.6133 244.405 80.2523C244.471 79.8914 244.818 79.6524 245.179 79.7187L249.439 80.5006C249.8 80.5668 250.039 80.9132 249.973 81.2741C249.907 81.6351 249.561 81.874 249.2 81.8078L244.939 81.0259ZM262.504 85.5447C262.143 85.4785 261.904 85.1322 261.971 84.7712C262.037 84.4102 262.383 84.1713 262.744 84.2376L267.005 85.0195C267.366 85.0857 267.605 85.432 267.539 85.793C267.472 86.154 267.126 86.3929 266.765 86.3267L262.504 85.5447ZM271.603 87.4975C271.248 87.4041 271.036 87.0407 271.13 86.6857C271.223 86.3308 271.586 86.1189 271.941 86.2123L276.167 87.3246C276.522 87.418 276.734 87.7815 276.641 88.1364C276.547 88.4913 276.184 88.7033 275.829 88.6099L271.603 87.4975ZM280.07 90.0636C279.709 89.9974 279.47 89.6511 279.536 89.2901C279.602 88.9291 279.949 88.6902 280.31 88.7564L284.571 89.5384C284.932 89.6046 285.17 89.9509 285.104 90.3119C285.038 90.6729 284.692 90.9118 284.331 90.8455L280.07 90.0636ZM256.715 76.5783C256.36 76.4849 256.148 76.1215 256.241 75.7666C256.335 75.4117 256.698 75.1997 257.053 75.2931L261.279 76.4055C261.634 76.4989 261.846 76.8623 261.753 77.2172C261.659 77.5721 261.296 77.7841 260.941 77.6907L256.715 76.5783ZM247.616 74.6256C247.255 74.5593 247.016 74.213 247.082 73.8521C247.148 73.4911 247.495 73.2522 247.856 73.3184L252.117 74.1003C252.478 74.1665 252.717 74.5129 252.65 74.8739C252.584 75.2348 252.238 75.4738 251.877 75.4075L247.616 74.6256ZM265.181 79.1445C264.82 79.0782 264.582 78.7319 264.648 78.3709C264.714 78.01 265.06 77.771 265.421 77.8373L269.682 78.6192C270.043 78.6854 270.282 79.0318 270.216 79.3927C270.15 79.7537 269.803 79.9926 269.442 79.9264L265.181 79.1445ZM241.262 72.6156L241.6 71.3304L241.262 72.6156ZM241.262 72.6156L239.149 72.0595C238.292 71.8339 238.631 70.5487 239.487 70.7742L241.6 71.3304L243.714 71.8866C244.57 72.1121 244.232 73.3973 243.375 73.1718L241.262 72.6156ZM276.393 81.6534L276.732 80.3681L276.393 81.6534ZM276.732 80.3681C277.588 80.5937 277.25 81.8789 276.393 81.6534L274.28 81.0972C273.423 80.8717 273.762 79.5865 274.618 79.812L276.732 80.3681L278.845 80.9243C279.701 81.1499 279.363 82.4351 278.506 82.2096L276.393 81.6534C275.536 81.4279 275.875 80.1426 276.732 80.3681ZM282.747 83.6633C282.386 83.5971 282.147 83.2508 282.213 82.8898C282.28 82.5289 282.626 82.2899 282.987 82.3562L287.248 83.1381C287.609 83.2043 287.848 83.5506 287.781 83.9116C287.715 84.2726 287.369 84.5115 287.008 84.4453L282.747 83.6633ZM158.651 97.9525C158.293 97.8715 158.069 97.5157 158.15 97.1577C158.231 96.7998 158.587 96.5752 158.945 96.6562L163.207 97.6204C163.565 97.7014 163.789 98.0572 163.709 98.4151C163.628 98.7731 163.272 98.9976 162.914 98.9167L158.651 97.9525ZM161.104 91.4626C160.746 91.3817 160.521 91.0259 160.602 90.6679C160.683 90.31 161.039 90.0854 161.397 90.1664L165.659 91.1306C166.017 91.2116 166.242 91.5674 166.161 91.9253C166.08 92.2833 165.724 92.5078 165.366 92.4268L161.104 91.4626ZM176.364 101.856C176.006 101.775 175.781 101.419 175.862 101.061C175.943 100.703 176.299 100.478 176.657 100.559L180.92 101.523C181.277 101.604 181.502 101.96 181.421 102.318C181.34 102.676 180.984 102.901 180.626 102.82L176.364 101.856ZM178.816 95.3657C178.458 95.2848 178.234 94.929 178.315 94.571C178.396 94.2131 178.751 93.9885 179.109 94.0695L183.372 95.0337C183.73 95.1147 183.954 95.4705 183.873 95.8284C183.792 96.1864 183.436 96.4109 183.079 96.3299L178.816 95.3657ZM167.203 100.222C166.84 100.168 166.589 99.8302 166.642 99.4671C166.696 99.104 167.034 98.8532 167.397 98.9068L171.682 99.5395C172.045 99.5931 172.296 99.9309 172.243 100.294C172.189 100.657 171.851 100.908 171.488 100.854L167.203 100.222ZM169.655 93.7317C169.292 93.6781 169.041 93.3404 169.094 92.9773C169.148 92.6142 169.486 92.3634 169.849 92.417L174.134 93.0497C174.498 93.1033 174.748 93.4411 174.695 93.8041C174.641 94.1672 174.303 94.4181 173.94 94.3645L169.655 93.7317ZM184.915 104.125C184.552 104.071 184.301 103.733 184.355 103.37C184.408 103.007 184.746 102.756 185.109 102.81L189.395 103.443C189.758 103.496 190.009 103.834 189.955 104.197C189.902 104.56 189.564 104.811 189.201 104.757L184.915 104.125ZM187.367 97.6348C187.004 97.5812 186.753 97.2435 186.807 96.8804C186.861 96.5173 187.198 96.2665 187.561 96.3201L191.847 96.9528C192.21 97.0064 192.461 97.3442 192.407 97.7072C192.354 98.0703 192.016 98.3212 191.653 98.2676L187.367 97.6348ZM194.076 105.759C193.718 105.678 193.494 105.322 193.575 104.964C193.656 104.606 194.012 104.381 194.37 104.462L198.632 105.427C198.99 105.508 199.215 105.863 199.134 106.221C199.053 106.579 198.697 106.804 198.339 106.723L194.076 105.759ZM196.529 99.2688C196.171 99.1879 195.946 98.8321 196.027 98.4741C196.108 98.1162 196.464 97.8916 196.822 97.9726L201.084 98.9368C201.442 99.0177 201.667 99.3736 201.586 99.7315C201.505 100.089 201.149 100.314 200.791 100.233L196.529 99.2688ZM202.628 108.028C202.265 107.974 202.014 107.636 202.067 107.273C202.121 106.91 202.459 106.659 202.822 106.713L207.107 107.346C207.47 107.399 207.721 107.737 207.668 108.1C207.614 108.463 207.276 108.714 206.913 108.66L202.628 108.028ZM205.08 101.538C204.717 101.484 204.466 101.147 204.52 100.783C204.573 100.42 204.911 100.17 205.274 100.223L209.56 100.856C209.923 100.91 210.173 101.247 210.12 101.61C210.066 101.973 209.729 102.224 209.365 102.171L205.08 101.538ZM163.556 84.9729C163.198 84.8919 162.973 84.5361 163.054 84.1781C163.135 83.8201 163.491 83.5956 163.849 83.6766L168.111 84.6408C168.469 84.7217 168.694 85.0776 168.613 85.4355C168.532 85.7935 168.176 86.018 167.818 85.937L163.556 84.9729ZM181.268 88.8759C180.91 88.795 180.686 88.4391 180.767 88.0812C180.848 87.7232 181.204 87.4987 181.562 87.5797L185.824 88.5439C186.182 88.6248 186.406 88.9807 186.325 89.3386C186.244 89.6966 185.889 89.9211 185.531 89.8401L181.268 88.8759ZM172.107 87.2419C171.744 87.1883 171.493 86.8505 171.547 86.4875C171.6 86.1244 171.938 85.8735 172.301 85.9271L176.587 86.5599C176.95 86.6135 177.201 86.9513 177.147 87.3143C177.093 87.6774 176.756 87.9283 176.393 87.8746L172.107 87.2419ZM189.819 91.145C189.456 91.0914 189.206 90.7536 189.259 90.3906C189.313 90.0275 189.651 89.7766 190.014 89.8302L194.299 90.463C194.662 90.5166 194.913 90.8544 194.86 91.2174C194.806 91.5805 194.468 91.8313 194.105 91.7777L189.819 91.145ZM198.981 92.779C198.623 92.6981 198.398 92.3422 198.479 91.9843C198.56 91.6263 198.916 91.4018 199.274 91.4828L203.536 92.447C203.894 92.5279 204.119 92.8838 204.038 93.2417C203.957 93.5997 203.601 93.8242 203.243 93.7432L198.981 92.779ZM207.532 95.0481C207.169 94.9945 206.918 94.6567 206.972 94.2937C207.025 93.9306 207.363 93.6797 207.726 93.7333L212.012 94.3661C212.375 94.4197 212.626 94.7575 212.572 95.1205C212.518 95.4836 212.181 95.7344 211.818 95.6808L207.532 95.0481ZM166.008 78.483C165.65 78.402 165.425 78.0463 165.506 77.6883C165.587 77.3303 165.943 77.1058 166.301 77.1868L170.564 78.151C170.922 78.2319 171.146 78.5877 171.065 78.9457C170.984 79.3036 170.628 79.5282 170.27 79.4472L166.008 78.483ZM183.72 82.3861C183.363 82.3051 183.138 81.9494 183.219 81.5914C183.3 81.2334 183.656 81.0089 184.014 81.0899L188.276 82.054C188.634 82.135 188.859 82.4908 188.778 82.8488C188.697 83.2067 188.341 83.4313 187.983 83.3503L183.72 82.3861ZM174.559 80.7521C174.196 80.6985 173.945 80.3607 173.999 79.9977C174.052 79.6346 174.39 79.3837 174.753 79.4373L179.039 80.0701C179.402 80.1237 179.653 80.4615 179.599 80.8245C179.546 81.1876 179.208 81.4385 178.845 81.3849L174.559 80.7521ZM192.272 84.6552C191.909 84.6016 191.658 84.2638 191.711 83.9008C191.765 83.5377 192.103 83.2868 192.466 83.3404L196.751 83.9732C197.114 84.0268 197.365 84.3646 197.312 84.7276C197.258 85.0907 196.92 85.3416 196.557 85.2879L192.272 84.6552ZM201.433 86.2892C201.075 86.2082 200.851 85.8525 200.932 85.4945C201.012 85.1365 201.368 84.912 201.726 84.993L205.989 85.9571C206.347 86.0381 206.571 86.3939 206.49 86.7519C206.409 87.1098 206.053 87.3344 205.695 87.2534L201.433 86.2892ZM209.984 88.5583C209.621 88.5047 209.37 88.1669 209.424 87.8038C209.478 87.4408 209.815 87.1899 210.178 87.2435L214.464 87.8763C214.827 87.9299 215.078 88.2677 215.024 88.6307C214.971 88.9938 214.633 89.2446 214.27 89.191L209.984 88.5583ZM168.46 71.9932C168.102 71.9123 167.878 71.5564 167.959 71.1985C168.04 70.8405 168.395 70.616 168.753 70.697L173.016 71.6611C173.374 71.7421 173.598 72.0979 173.517 72.4559C173.436 72.8138 173.081 73.0384 172.723 72.9574L168.46 71.9932ZM186.173 75.8963C185.815 75.8154 185.59 75.4595 185.671 75.1016C185.752 74.7436 186.108 74.5191 186.466 74.6001L190.728 75.5642C191.086 75.6452 191.311 76.001 191.23 76.359C191.149 76.7169 190.793 76.9415 190.435 76.8605L186.173 75.8963ZM177.011 74.2623C176.648 74.2087 176.397 73.8709 176.451 73.5079C176.505 73.1448 176.842 72.8939 177.205 72.9475L181.491 73.5803C181.854 73.6339 182.105 73.9716 182.051 74.3347C181.998 74.6978 181.66 74.9486 181.297 74.895L177.011 74.2623ZM194.724 78.1654C194.361 78.1118 194.11 77.774 194.164 77.4109C194.217 77.0479 194.555 76.797 194.918 76.8506L199.204 77.4834C199.567 77.537 199.818 77.8747 199.764 78.2378C199.71 78.6009 199.373 78.8517 199.009 78.7981L194.724 78.1654ZM203.885 79.7994C203.527 79.7184 203.303 79.3626 203.384 79.0047C203.465 78.6467 203.821 78.4222 204.178 78.5032L208.441 79.4673C208.799 79.5483 209.023 79.9041 208.942 80.2621C208.861 80.62 208.506 80.8446 208.148 80.7636L203.885 79.7994ZM212.436 82.0685C212.073 82.0149 211.823 81.6771 211.876 81.314C211.93 80.951 212.267 80.7001 212.631 80.7537L216.916 81.3865C217.279 81.4401 217.53 81.7778 217.476 82.1409C217.423 82.504 217.085 82.7548 216.722 82.7012L212.436 82.0685ZM170.912 65.5034C170.554 65.4224 170.33 65.0666 170.411 64.7087C170.492 64.3507 170.848 64.1262 171.206 64.2071L175.468 65.1713C175.826 65.2523 176.05 65.6081 175.97 65.9661C175.889 66.324 175.533 66.5486 175.175 66.4676L170.912 65.5034ZM188.625 69.4065C188.267 69.3255 188.042 68.9697 188.123 68.6118C188.204 68.2538 188.56 68.0293 188.918 68.1102L193.181 69.0744C193.538 69.1554 193.763 69.5112 193.682 69.8692C193.601 70.2271 193.245 70.4517 192.887 70.3707L188.625 69.4065ZM179.464 67.7725C179.1 67.7189 178.85 67.3811 178.903 67.018C178.957 66.655 179.295 66.4041 179.658 66.4577L183.943 67.0904C184.306 67.144 184.557 67.4818 184.504 67.8449C184.45 68.2079 184.112 68.4588 183.749 68.4052L179.464 67.7725ZM197.176 71.6756C196.813 71.622 196.562 71.2842 196.616 70.9211C196.669 70.5581 197.007 70.3072 197.37 70.3608L201.656 70.9935C202.019 71.0471 202.27 71.3849 202.216 71.748C202.163 72.1111 201.825 72.3619 201.462 72.3083L197.176 71.6756ZM206.337 73.3096C205.979 73.2286 205.755 72.8728 205.836 72.5148C205.917 72.1569 206.273 71.9324 206.631 72.0133L210.893 72.9775C211.251 73.0585 211.476 73.4143 211.395 73.7723C211.314 74.1302 210.958 74.3548 210.6 74.2738L206.337 73.3096ZM214.889 75.5787C214.526 75.5251 214.275 75.1873 214.328 74.8242C214.382 74.4612 214.72 74.2103 215.083 74.2639L219.368 74.8966C219.731 74.9502 219.982 75.288 219.929 75.6511C219.875 76.0141 219.537 76.265 219.174 76.2114L214.889 75.5787ZM191.077 62.9167C190.719 62.8357 190.495 62.4799 190.576 62.1219C190.657 61.764 191.012 61.5395 191.37 61.6204L195.633 62.5846C195.991 62.6656 196.215 63.0214 196.134 63.3794C196.053 63.7373 195.697 63.9619 195.34 63.8809L191.077 62.9167ZM181.916 61.2827C181.553 61.2291 181.302 60.8913 181.355 60.5282C181.409 60.1652 181.747 59.9143 182.11 59.9679L186.395 60.6006C186.759 60.6543 187.009 60.992 186.956 61.3551C186.902 61.7181 186.564 61.969 186.201 61.9154L181.916 61.2827ZM199.628 65.1857C199.265 65.1321 199.014 64.7944 199.068 64.4313C199.122 64.0683 199.459 63.8174 199.822 63.871L204.108 64.5037C204.471 64.5573 204.722 64.8951 204.668 65.2582C204.615 65.6212 204.277 65.8721 203.914 65.8185L199.628 65.1857ZM175.496 59.4957L175.789 58.1994L175.496 59.4957ZM175.496 59.4957L173.365 59.0136C172.5 58.8181 172.794 57.5219 173.658 57.7173L175.789 58.1994L177.92 58.6815C178.784 58.877 178.491 60.1733 177.627 59.9778L175.496 59.4957ZM210.921 67.3019L211.214 66.0056L210.921 67.3019ZM211.214 66.0056C212.078 66.2011 211.785 67.4974 210.921 67.3019L208.79 66.8198C207.925 66.6243 208.219 65.328 209.083 65.5235L211.214 66.0056L213.345 66.4877C214.209 66.6832 213.916 67.9795 213.052 67.784L210.921 67.3019C210.057 67.1064 210.35 65.8101 211.214 66.0056ZM217.341 69.0888C216.978 69.0352 216.727 68.6975 216.781 68.3344C216.834 67.9714 217.172 67.7205 217.535 67.7741L221.821 68.4068C222.184 68.4604 222.434 68.7982 222.381 69.1613C222.327 69.5243 221.989 69.7752 221.626 69.7216L217.341 69.0888ZM104.245 88.6028C103.885 88.528 103.655 88.1762 103.729 87.8169C103.804 87.4576 104.156 87.2269 104.515 87.3016L108.794 88.1912C109.153 88.2659 109.384 88.6178 109.309 88.9771C109.234 89.3364 108.883 89.5671 108.523 89.4924L104.245 88.6028ZM106.583 82.0711C106.224 81.9964 105.993 81.6446 106.068 81.2853C106.143 80.926 106.494 80.6953 106.854 80.77L111.132 81.6596C111.492 81.7343 111.722 82.0862 111.648 82.4455C111.573 82.8048 111.221 83.0355 110.862 82.9608L106.583 82.0711ZM122.023 92.1961C121.663 92.1214 121.433 91.7696 121.507 91.4103C121.582 91.051 121.934 90.8203 122.293 90.895L126.572 91.7846C126.931 91.8593 127.162 92.2112 127.087 92.5705C127.012 92.9298 126.661 93.1605 126.301 93.0858L122.023 92.1961ZM124.361 85.6645C124.002 85.5898 123.771 85.238 123.846 84.8786C123.921 84.5193 124.272 84.2886 124.632 84.3633L128.91 85.253C129.27 85.3277 129.5 85.6795 129.426 86.0389C129.351 86.3982 128.999 86.6289 128.64 86.5542L124.361 85.6645ZM112.834 90.7222C112.47 90.675 112.213 90.3416 112.261 89.9777C112.308 89.6138 112.641 89.357 113.005 89.4043L117.301 89.9621C117.665 90.0094 117.922 90.3428 117.875 90.7067C117.827 91.0706 117.494 91.3274 117.13 91.2801L112.834 90.7222ZM115.173 84.1906C114.809 84.1434 114.552 83.81 114.599 83.4461C114.647 83.0821 114.98 82.8254 115.344 82.8727L119.64 83.4305C120.004 83.4778 120.26 83.8111 120.213 84.1751C120.166 84.539 119.833 84.7957 119.469 84.7485L115.173 84.1906ZM130.612 94.3156C130.248 94.2684 129.991 93.935 130.039 93.5711C130.086 93.2071 130.419 92.9504 130.783 92.9977L135.079 93.5555C135.443 93.6028 135.7 93.9361 135.653 94.3001C135.605 94.664 135.272 94.9207 134.908 94.8735L130.612 94.3156ZM132.951 87.784C132.587 87.7367 132.33 87.4034 132.377 87.0395C132.425 86.6755 132.758 86.4188 133.122 86.466L137.418 87.0239C137.782 87.0712 138.038 87.4045 137.991 87.7684C137.944 88.1324 137.611 88.3891 137.247 88.3418L132.951 87.784ZM139.801 95.7895C139.441 95.7148 139.211 95.3629 139.285 95.0036C139.36 94.6443 139.712 94.4136 140.071 94.4883L144.35 95.378C144.709 95.4527 144.94 95.8045 144.865 96.1638C144.79 96.5232 144.438 96.7539 144.079 96.6792L139.801 95.7895ZM142.139 89.2579C141.78 89.1832 141.549 88.8313 141.624 88.472C141.699 88.1127 142.05 87.882 142.41 87.9567L146.688 88.8464C147.048 88.9211 147.278 89.2729 147.204 89.6322C147.129 89.9915 146.777 90.2223 146.418 90.1475L142.139 89.2579ZM148.39 97.909C148.026 97.8617 147.769 97.5284 147.817 97.1644C147.864 96.8005 148.197 96.5438 148.561 96.591L152.857 97.1489C153.221 97.1962 153.478 97.5295 153.431 97.8934C153.383 98.2574 153.05 98.5141 152.686 98.4669L148.39 97.909ZM150.729 91.3774C150.365 91.3301 150.108 90.9968 150.155 90.6328C150.202 90.2689 150.536 90.0122 150.9 90.0594L155.196 90.6173C155.56 90.6645 155.816 90.9979 155.769 91.3618C155.722 91.7258 155.389 91.9825 155.025 91.9352L150.729 91.3774ZM108.922 75.5395C108.562 75.4648 108.332 75.113 108.406 74.7537C108.481 74.3943 108.833 74.1636 109.192 74.2383L113.471 75.128C113.83 75.2027 114.061 75.5545 113.986 75.9139C113.912 76.2732 113.56 76.5039 113.2 76.4292L108.922 75.5395ZM126.7 79.1329C126.34 79.0582 126.11 78.7063 126.184 78.347C126.259 77.9877 126.611 77.757 126.97 77.8317L131.249 78.7214C131.608 78.7961 131.839 79.1479 131.764 79.5072C131.689 79.8665 131.338 80.0973 130.978 80.0225L126.7 79.1329ZM117.511 77.659C117.147 77.6117 116.891 77.2784 116.938 76.9145C116.985 76.5505 117.318 76.2938 117.682 76.3411L121.978 76.8989C122.342 76.9462 122.599 77.2795 122.552 77.6434C122.505 78.0074 122.171 78.2641 121.807 78.2168L117.511 77.659ZM135.289 81.2524C134.925 81.2051 134.669 80.8718 134.716 80.5078C134.763 80.1439 135.096 79.8872 135.46 79.9344L139.756 80.4923C140.12 80.5395 140.377 80.8729 140.33 81.2368C140.282 81.6008 139.949 81.8575 139.585 81.8102L135.289 81.2524ZM144.478 82.7263C144.118 82.6515 143.888 82.2997 143.962 81.9404C144.037 81.5811 144.389 81.3504 144.748 81.4251L149.027 82.3147C149.386 82.3895 149.617 82.7413 149.542 83.1006C149.467 83.4599 149.116 83.6906 148.756 83.6159L144.478 82.7263ZM153.067 84.8458C152.703 84.7985 152.447 84.4651 152.494 84.1012C152.541 83.7373 152.874 83.4805 153.238 83.5278L157.534 84.0856C157.898 84.1329 158.155 84.4663 158.108 84.8302C158.06 85.1941 157.727 85.4509 157.363 85.4036L153.067 84.8458ZM111.26 69.0079C110.901 68.9332 110.67 68.5813 110.745 68.222C110.82 67.8627 111.172 67.632 111.531 67.7067L115.809 68.5964C116.169 68.6711 116.399 69.0229 116.325 69.3822C116.25 69.7415 115.898 69.9723 115.539 69.8975L111.26 69.0079ZM129.038 72.6013C128.679 72.5266 128.448 72.1747 128.523 71.8154C128.598 71.4561 128.95 71.2254 129.309 71.3001L133.587 72.1897C133.947 72.2644 134.177 72.6163 134.103 72.9756C134.028 73.3349 133.676 73.5656 133.317 73.4909L129.038 72.6013ZM119.85 71.1274C119.486 71.0801 119.229 70.7468 119.276 70.3828C119.324 70.0189 119.657 69.7622 120.021 69.8094L124.317 70.3673C124.681 70.4146 124.938 70.7479 124.89 71.1118C124.843 71.4758 124.51 71.7325 124.146 71.6852L119.85 71.1274ZM137.628 74.7207C137.264 74.6735 137.007 74.3401 137.054 73.9762C137.102 73.6123 137.435 73.3555 137.799 73.4028L142.095 73.9607C142.459 74.0079 142.716 74.3413 142.668 74.7052C142.621 75.0691 142.288 75.3259 141.924 75.2786L137.628 74.7207ZM146.816 76.1946C146.457 76.1199 146.226 75.7681 146.301 75.4088C146.376 75.0495 146.727 74.8188 147.087 74.8935L151.365 75.7831C151.725 75.8578 151.955 76.2097 151.881 76.569C151.806 76.9283 151.454 77.159 151.095 77.0843L146.816 76.1946ZM155.406 78.3141C155.042 78.2669 154.785 77.9335 154.832 77.5696C154.88 77.2056 155.213 76.9489 155.577 76.9962L159.873 77.554C160.237 77.6013 160.494 77.9346 160.446 78.2986C160.399 78.6625 160.066 78.9192 159.702 78.872L155.406 78.3141ZM113.599 62.4763C113.24 62.4016 113.009 62.0497 113.084 61.6904C113.158 61.3311 113.51 61.1004 113.869 61.1751L118.148 62.0647C118.507 62.1395 118.738 62.4913 118.663 62.8506C118.589 63.2099 118.237 63.4406 117.877 63.3659L113.599 62.4763ZM131.377 66.0696C131.018 65.995 130.787 65.6431 130.862 65.2838C130.936 64.9245 131.288 64.6938 131.647 64.7685L135.926 65.6581C136.285 65.7328 136.516 66.0847 136.441 66.444C136.367 66.8033 136.015 67.034 135.655 66.9593L131.377 66.0696ZM122.188 64.5958C121.824 64.5485 121.568 64.2152 121.615 63.8512C121.662 63.4873 121.996 63.2306 122.36 63.2778L126.656 63.8357C127.019 63.8829 127.276 64.2163 127.229 64.5802C127.182 64.9442 126.848 65.2009 126.484 65.1536L122.188 64.5958ZM139.966 68.1891C139.602 68.1419 139.346 67.8085 139.393 67.4446C139.44 67.0806 139.774 66.8239 140.137 66.8712L144.433 67.429C144.797 67.4763 145.054 67.8096 145.007 68.1736C144.96 68.5375 144.626 68.7942 144.262 68.747L139.966 68.1891ZM149.155 69.663C148.796 69.5883 148.565 69.2365 148.64 68.8772C148.714 68.5179 149.066 68.2871 149.425 68.3619L153.704 69.2515C154.063 69.3262 154.294 69.6781 154.219 70.0374C154.145 70.3967 153.793 70.6274 153.433 70.5527L149.155 69.663ZM157.744 71.7825C157.38 71.7352 157.124 71.4019 157.171 71.038C157.218 70.674 157.552 70.4173 157.915 70.4646L162.211 71.0224C162.575 71.0697 162.832 71.403 162.785 71.767C162.738 72.1309 162.404 72.3876 162.04 72.3404L157.744 71.7825ZM115.937 55.9447C115.578 55.8699 115.347 55.5181 115.422 55.1588C115.497 54.7995 115.849 54.5688 116.208 54.6435L120.487 55.5331C120.846 55.6078 121.077 55.9597 121.002 56.319C120.927 56.6783 120.575 56.909 120.216 56.8343L115.937 55.9447ZM133.715 59.538C133.356 59.4633 133.125 59.1115 133.2 58.7522C133.275 58.3929 133.627 58.1621 133.986 58.2368L138.265 59.1265C138.624 59.2012 138.855 59.5531 138.78 59.9124C138.705 60.2717 138.353 60.5024 137.994 60.4277L133.715 59.538ZM124.527 58.0642C124.163 58.0169 123.906 57.6835 123.954 57.3196C124.001 56.9556 124.334 56.6989 124.698 56.7462L128.994 57.304C129.358 57.3513 129.615 57.6846 129.567 58.0486C129.52 58.4125 129.187 58.6692 128.823 58.622L124.527 58.0642ZM142.305 61.6575C141.941 61.6102 141.684 61.2769 141.732 60.913C141.779 60.549 142.112 60.2923 142.476 60.3396L146.772 60.8974C147.136 60.9447 147.393 61.278 147.345 61.642C147.298 62.0059 146.965 62.2626 146.601 62.2154L142.305 61.6575ZM151.493 63.1314C151.134 63.0567 150.903 62.7049 150.978 62.3455C151.053 61.9862 151.405 61.7555 151.764 61.8302L156.043 62.7199C156.402 62.7946 156.633 63.1464 156.558 63.5058C156.483 63.8651 156.131 64.0958 155.772 64.0211L151.493 63.1314ZM160.083 65.2509C159.719 65.2036 159.462 64.8703 159.509 64.5063C159.557 64.1424 159.89 63.8857 160.254 63.9329L164.55 64.4908C164.914 64.5381 165.171 64.8714 165.123 65.2353C165.076 65.5993 164.743 65.856 164.379 65.8087L160.083 65.2509ZM136.054 53.0064C135.695 52.9317 135.464 52.5799 135.539 52.2205C135.613 51.8612 135.965 51.6305 136.325 51.7052L140.603 52.5949C140.962 52.6696 141.193 53.0214 141.118 53.3808C141.044 53.7401 140.692 53.9708 140.333 53.896L136.054 53.0064ZM126.866 51.5325C126.502 51.4853 126.245 51.1519 126.292 50.788C126.339 50.424 126.673 50.1673 127.037 50.2146L131.333 50.7724C131.697 50.8197 131.953 51.153 131.906 51.517C131.859 51.8809 131.525 52.1376 131.161 52.0904L126.866 51.5325ZM144.643 55.1259C144.28 55.0786 144.023 54.7453 144.07 54.3814C144.117 54.0174 144.451 53.7607 144.815 53.8079L149.111 54.3658C149.475 54.413 149.731 54.7464 149.684 55.1103C149.637 55.4743 149.303 55.731 148.939 55.6837L144.643 55.1259ZM120.415 49.8578L120.686 48.5567L120.415 49.8578ZM120.415 49.8578L118.276 49.413C117.409 49.2327 117.679 47.9315 118.547 48.1119L120.686 48.5567L122.825 49.0015C123.693 49.1819 123.422 50.483 122.555 50.3027L120.415 49.8578ZM155.971 57.0446L156.242 55.7434L155.971 57.0446ZM156.242 55.7434C157.109 55.9238 156.839 57.225 155.971 57.0446L153.832 56.5998C152.964 56.4194 153.235 55.1182 154.102 55.2986L156.242 55.7434L158.381 56.1882C159.249 56.3686 158.978 57.6698 158.111 57.4894L155.971 57.0446C155.104 56.8642 155.374 55.5631 156.242 55.7434ZM162.421 58.7193C162.057 58.672 161.801 58.3387 161.848 57.9747C161.895 57.6108 162.229 57.3541 162.593 57.4013L166.889 57.9592C167.253 58.0064 167.509 58.3398 167.462 58.7037C167.415 59.0676 167.081 59.3244 166.717 59.2771L162.421 58.7193ZM151.573 164.236C151.486 164.592 151.126 164.811 150.77 164.723C150.413 164.636 150.195 164.276 150.282 163.92L151.321 159.675C151.408 159.319 151.768 159.1 152.124 159.187C152.481 159.275 152.699 159.634 152.612 159.991L151.573 164.236ZM145.127 161.671C145.04 162.027 144.68 162.245 144.324 162.158C143.967 162.071 143.749 161.711 143.836 161.355L144.875 157.11C144.962 156.753 145.322 156.535 145.678 156.622C146.034 156.71 146.253 157.069 146.166 157.426L145.127 161.671ZM155.785 146.594C155.698 146.951 155.338 147.169 154.981 147.082C154.625 146.994 154.407 146.635 154.494 146.278L155.532 142.033C155.62 141.677 155.979 141.459 156.336 141.546C156.692 141.633 156.91 141.993 156.823 142.349L155.785 146.594ZM149.339 144.029C149.252 144.385 148.892 144.604 148.535 144.517C148.179 144.429 147.961 144.07 148.048 143.713L149.086 139.468C149.173 139.112 149.533 138.893 149.89 138.981C150.246 139.068 150.464 139.428 150.377 139.784L149.339 144.029ZM153.991 155.725C153.931 156.088 153.589 156.332 153.227 156.273C152.865 156.213 152.62 155.871 152.68 155.508L153.387 151.235C153.447 150.872 153.789 150.628 154.152 150.687C154.514 150.747 154.759 151.09 154.699 151.452L153.991 155.725ZM147.545 153.16C147.485 153.522 147.143 153.767 146.781 153.707C146.419 153.648 146.174 153.305 146.234 152.943L146.941 148.669C147.001 148.307 147.343 148.062 147.705 148.122C148.068 148.182 148.312 148.524 148.253 148.886L147.545 153.16ZM158.203 138.084C158.143 138.446 157.801 138.691 157.439 138.631C157.077 138.571 156.832 138.229 156.892 137.867L157.599 133.593C157.659 133.231 158.001 132.986 158.363 133.046C158.725 133.106 158.97 133.448 158.91 133.81L158.203 138.084ZM151.757 135.519C151.697 135.881 151.355 136.126 150.993 136.066C150.631 136.006 150.386 135.664 150.446 135.302L151.153 131.028C151.213 130.666 151.555 130.421 151.917 130.481C152.279 130.541 152.524 130.883 152.464 131.245L151.757 135.519ZM159.996 128.952C159.909 129.309 159.55 129.527 159.193 129.44C158.837 129.353 158.618 128.993 158.705 128.637L159.744 124.392C159.831 124.035 160.191 123.817 160.547 123.904C160.904 123.991 161.122 124.351 161.035 124.707L159.996 128.952ZM153.55 126.387C153.463 126.744 153.104 126.962 152.747 126.875C152.391 126.788 152.172 126.428 152.259 126.071L153.298 121.827C153.385 121.47 153.745 121.252 154.101 121.339C154.458 121.426 154.676 121.786 154.589 122.142L153.55 126.387ZM162.414 120.442C162.354 120.804 162.012 121.049 161.65 120.989C161.288 120.929 161.043 120.587 161.103 120.225L161.811 115.951C161.871 115.589 162.213 115.344 162.575 115.404C162.937 115.464 163.182 115.806 163.122 116.168L162.414 120.442ZM155.968 117.877C155.908 118.239 155.566 118.484 155.204 118.424C154.842 118.364 154.597 118.022 154.657 117.66L155.365 113.386C155.425 113.024 155.767 112.779 156.129 112.839C156.491 112.899 156.736 113.241 156.676 113.603L155.968 117.877ZM138.681 159.106C138.594 159.462 138.234 159.68 137.878 159.593C137.521 159.506 137.303 159.146 137.39 158.79L138.429 154.545C138.516 154.188 138.875 153.97 139.232 154.057C139.588 154.144 139.807 154.504 139.72 154.861L138.681 159.106ZM142.893 141.464C142.806 141.82 142.446 142.039 142.089 141.951C141.733 141.864 141.515 141.505 141.602 141.148L142.64 136.903C142.727 136.547 143.087 136.328 143.444 136.416C143.8 136.503 144.018 136.862 143.931 137.219L142.893 141.464ZM141.099 150.595C141.039 150.957 140.697 151.202 140.335 151.142C139.973 151.082 139.728 150.74 139.788 150.378L140.495 146.104C140.555 145.742 140.897 145.497 141.259 145.557C141.622 145.617 141.866 145.959 141.807 146.321L141.099 150.595ZM145.311 132.954C145.251 133.316 144.909 133.561 144.547 133.501C144.185 133.441 143.94 133.099 144 132.737L144.707 128.463C144.767 128.101 145.109 127.856 145.471 127.916C145.833 127.976 146.078 128.318 146.018 128.68L145.311 132.954ZM147.104 123.822C147.017 124.179 146.658 124.397 146.301 124.31C145.945 124.223 145.726 123.863 145.813 123.506L146.852 119.261C146.939 118.905 147.299 118.687 147.655 118.774C148.012 118.861 148.23 119.221 148.143 119.577L147.104 123.822ZM149.522 115.312C149.462 115.674 149.12 115.919 148.758 115.859C148.396 115.799 148.151 115.457 148.211 115.095L148.919 110.821C148.979 110.459 149.321 110.214 149.683 110.274C150.045 110.334 150.29 110.676 150.23 111.038L149.522 115.312ZM132.235 156.541C132.148 156.897 131.788 157.115 131.432 157.028C131.075 156.941 130.857 156.581 130.944 156.225L131.983 151.98C132.07 151.623 132.429 151.405 132.786 151.492C133.142 151.579 133.361 151.939 133.274 152.296L132.235 156.541ZM136.447 138.899C136.36 139.255 136 139.474 135.643 139.386C135.287 139.299 135.069 138.939 135.156 138.583L136.194 134.338C136.281 133.982 136.641 133.763 136.998 133.85C137.354 133.938 137.572 134.297 137.485 134.654L136.447 138.899ZM134.653 148.03C134.593 148.392 134.251 148.637 133.889 148.577C133.527 148.517 133.282 148.175 133.342 147.813L134.049 143.539C134.109 143.177 134.451 142.932 134.813 142.992C135.176 143.052 135.42 143.394 135.361 143.756L134.653 148.03ZM138.865 130.388C138.805 130.751 138.463 130.995 138.101 130.936C137.739 130.876 137.494 130.534 137.554 130.171L138.261 125.898C138.321 125.535 138.663 125.291 139.025 125.351C139.387 125.41 139.632 125.753 139.572 126.115L138.865 130.388ZM140.658 121.257C140.571 121.614 140.211 121.832 139.855 121.745C139.499 121.657 139.28 121.298 139.367 120.941L140.406 116.696C140.493 116.34 140.853 116.122 141.209 116.209C141.566 116.296 141.784 116.656 141.697 117.012L140.658 121.257ZM143.076 112.747C143.016 113.109 142.674 113.354 142.312 113.294C141.95 113.234 141.705 112.892 141.765 112.53L142.473 108.256C142.533 107.894 142.875 107.649 143.237 107.709C143.599 107.769 143.844 108.111 143.784 108.473L143.076 112.747ZM125.789 153.975C125.702 154.332 125.342 154.55 124.986 154.463C124.629 154.376 124.411 154.016 124.498 153.66L125.537 149.415C125.624 149.058 125.983 148.84 126.34 148.927C126.696 149.014 126.915 149.374 126.828 149.73L125.789 153.975ZM130.001 136.334C129.913 136.69 129.554 136.908 129.197 136.821C128.841 136.734 128.623 136.374 128.71 136.018L129.748 131.773C129.835 131.416 130.195 131.198 130.552 131.285C130.908 131.373 131.126 131.732 131.039 132.089L130.001 136.334ZM128.207 145.465C128.147 145.827 127.805 146.072 127.443 146.012C127.081 145.952 126.836 145.61 126.896 145.248L127.603 140.974C127.663 140.612 128.005 140.367 128.367 140.427C128.729 140.487 128.974 140.829 128.914 141.191L128.207 145.465ZM132.419 127.823C132.359 128.185 132.017 128.43 131.655 128.37C131.292 128.311 131.048 127.968 131.107 127.606L131.815 123.332C131.875 122.97 132.217 122.725 132.579 122.785C132.941 122.845 133.186 123.187 133.126 123.55L132.419 127.823ZM134.212 118.692C134.125 119.048 133.765 119.267 133.409 119.18C133.052 119.092 132.834 118.733 132.921 118.376L133.96 114.131C134.047 113.775 134.407 113.556 134.763 113.644C135.12 113.731 135.338 114.091 135.251 114.447L134.212 118.692ZM136.63 110.182C136.57 110.544 136.228 110.789 135.866 110.729C135.504 110.669 135.259 110.327 135.319 109.965L136.027 105.691C136.086 105.329 136.429 105.084 136.791 105.144C137.153 105.204 137.398 105.546 137.338 105.908L136.63 110.182ZM119.343 151.41C119.256 151.767 118.896 151.985 118.54 151.898C118.183 151.811 117.965 151.451 118.052 151.095L119.091 146.85C119.178 146.493 119.537 146.275 119.894 146.362C120.25 146.449 120.469 146.809 120.381 147.165L119.343 151.41ZM123.555 133.769C123.467 134.125 123.108 134.343 122.751 134.256C122.395 134.169 122.177 133.809 122.264 133.453L123.302 129.208C123.389 128.851 123.749 128.633 124.106 128.72C124.462 128.808 124.68 129.167 124.593 129.524L123.555 133.769ZM121.761 142.9C121.701 143.262 121.359 143.507 120.997 143.447C120.635 143.387 120.39 143.045 120.45 142.683L121.157 138.409C121.217 138.047 121.559 137.802 121.921 137.862C122.283 137.922 122.528 138.264 122.468 138.626L121.761 142.9ZM125.973 125.258C125.913 125.62 125.571 125.865 125.209 125.805C124.846 125.745 124.602 125.403 124.661 125.041L125.369 120.767C125.429 120.405 125.771 120.16 126.133 120.22C126.495 120.28 126.74 120.622 126.68 120.984L125.973 125.258ZM127.766 116.127C127.679 116.483 127.319 116.702 126.963 116.614C126.606 116.527 126.388 116.168 126.475 115.811L127.514 111.566C127.601 111.21 127.961 110.991 128.317 111.079C128.674 111.166 128.892 111.525 128.805 111.882L127.766 116.127ZM130.184 107.617C130.124 107.979 129.782 108.224 129.42 108.164C129.058 108.104 128.813 107.762 128.873 107.4L129.581 103.126C129.64 102.764 129.983 102.519 130.345 102.579C130.707 102.639 130.952 102.981 130.892 103.343L130.184 107.617ZM117.109 131.204C117.021 131.56 116.662 131.778 116.305 131.691C115.949 131.604 115.73 131.244 115.818 130.888L116.856 126.643C116.943 126.286 117.303 126.068 117.66 126.155C118.016 126.242 118.234 126.602 118.147 126.959L117.109 131.204ZM115.315 140.335C115.255 140.697 114.913 140.942 114.551 140.882C114.189 140.822 113.944 140.48 114.004 140.118L114.711 135.844C114.771 135.482 115.113 135.237 115.475 135.297C115.837 135.357 116.082 135.699 116.022 136.061L115.315 140.335ZM119.527 122.693C119.467 123.055 119.125 123.3 118.763 123.24C118.4 123.18 118.156 122.838 118.215 122.476L118.923 118.202C118.983 117.84 119.325 117.595 119.687 117.655C120.049 117.715 120.294 118.057 120.234 118.419L119.527 122.693ZM113.416 146.723L112.125 146.407L113.416 146.723ZM113.416 146.723L112.897 148.845C112.686 149.706 111.396 149.39 111.606 148.529L112.125 146.407L112.645 144.285C112.855 143.424 114.146 143.74 113.935 144.6L113.416 146.723ZM121.839 111.439L120.549 111.124L121.839 111.439ZM120.549 111.124C120.759 110.263 122.05 110.579 121.839 111.439L121.32 113.562C121.11 114.422 119.819 114.107 120.029 113.246L120.549 111.124L121.068 109.001C121.278 108.14 122.569 108.456 122.359 109.317L121.839 111.439C121.629 112.3 120.338 111.984 120.549 111.124ZM123.738 105.052C123.678 105.414 123.336 105.658 122.974 105.599C122.612 105.539 122.367 105.197 122.427 104.834L123.135 100.561C123.194 100.199 123.537 99.9536 123.899 100.014C124.261 100.073 124.506 100.416 124.446 100.778L123.738 105.052Z" fill="#002D6F"/>
</g>
<path d="M302.756 170.676C253.073 161.881 233.521 134.713 240.873 92.8583C248.193 51.1835 275.791 32.5458 325.474 41.3399C374.978 50.1025 394.709 77.3029 387.42 118.798C380.1 160.473 352.26 179.438 302.756 170.676ZM307.493 143.705C336.017 148.754 351.518 136.806 355.668 113.177C359.787 89.7289 349.26 73.3593 320.736 68.3104C292.213 63.2616 276.775 74.8493 272.625 98.4778C268.443 122.287 278.97 138.656 307.493 143.705Z" fill="#4865F3"/>
<path d="M302.756 170.676C253.073 161.881 233.521 134.713 240.873 92.8583C248.193 51.1835 275.791 32.5458 325.474 41.3399C374.978 50.1025 394.709 77.3029 387.42 118.798C380.1 160.473 352.26 179.438 302.756 170.676ZM307.493 143.705C336.017 148.754 351.518 136.806 355.668 113.177C359.787 89.7289 349.26 73.3593 320.736 68.3104C292.213 63.2616 276.775 74.8493 272.625 98.4778C268.443 122.287 278.97 138.656 307.493 143.705Z" fill="#4865F3"/>
<path d="M255.548 58.6675C264.337 62.7382 277.663 68.3691 288.28 72.4992C279.986 77.6564 274.897 86.5673 272.772 98.6194C268.583 122.376 279.164 138.717 307.814 143.768C336.464 148.82 352.027 136.904 356.185 113.327C359.445 94.8346 353.519 80.7503 336.745 73.1639L360.326 53.0586C384.453 66.5326 393.356 89.0175 388.077 118.952C380.745 160.536 352.793 179.448 303.069 170.68C253.165 161.881 233.515 134.76 240.879 92.9965C243.378 78.8244 248.243 67.3235 255.548 58.6675Z" fill="#4865F3"/>
<path fill-rule="evenodd" clip-rule="evenodd" d="M322.391 16.3917C320.715 14.9679 319.535 12.9479 319.205 10.599C318.49 5.51103 322.035 0.80676 327.123 0.0916953C332.211 -0.623369 336.915 2.92155 337.63 8.0095C338.345 13.0975 334.8 17.8017 329.712 18.5168C329.161 18.5943 328.613 18.6218 328.075 18.6026C338.571 23.3817 342.672 29.9175 340.379 38.2103C337.499 48.6209 337.499 56.4842 340.379 61.8002L285.225 51.1681C288.45 46.8161 290.443 43.4936 291.205 41.2005C294.976 29.8516 295.015 22.2621 295.524 22.2621C296.189 22.2621 303.942 19.9363 318.782 15.2848C320.038 15.6391 321.241 16.0081 322.391 16.3917Z" fill="#002D6F"/>
<path d="M337.38 37.879C337.425 27.2467 330.027 17.6788 319.216 15.381L315.966 14.6902C303.582 12.0577 291.408 19.9635 288.775 32.3482L287.325 39.1731C285.493 47.7885 290.993 56.2572 299.608 58.0885L307.8 59.8297L303.118 81.9323C305.587 84.6804 309.369 86.4974 314.463 87.3834C319.558 88.2694 323.854 87.7211 327.353 85.7385L335.495 46.9099C336.086 45.5385 336.552 44.0888 336.874 42.5719C337.206 41.0121 337.37 39.4556 337.379 37.9211L337.389 37.8777L337.38 37.879Z" fill="#8498FD"/>
<mask id="mask2_908_17271" style="mask-type:alpha" maskUnits="userSpaceOnUse" x="286" y="14" width="52" height="74">
<path d="M337.38 37.879C337.425 27.2467 330.027 17.6788 319.216 15.381L315.966 14.6902C303.582 12.0577 291.408 19.9635 288.775 32.3482L287.325 39.1731C285.493 47.7885 290.993 56.2572 299.608 58.0885L307.8 59.8297L303.118 81.9323C305.587 84.6804 309.369 86.4974 314.463 87.3834C319.558 88.2694 323.854 87.7211 327.353 85.7385L335.495 46.9099C336.086 45.5385 336.552 44.0888 336.874 42.5719C337.206 41.0121 337.37 39.4556 337.379 37.9211L337.389 37.8777L337.38 37.879Z" fill="#FF9C99"/>
</mask>
<g mask="url(#mask2_908_17271)">
<path fill-rule="evenodd" clip-rule="evenodd" d="M307.154 59.806L319.779 59.4737L305.825 63.793L307.154 59.806ZM289.639 28.2837C292.269 21.8639 295.287 17.3998 298.694 14.8914C302.101 12.383 308.45 9.95055 317.741 7.59411L345.114 26.1766L335.395 52.4964L333.069 60.4705L330.291 47.4119L316.909 34.08L307.189 32.014L307.996 28.2146L301.519 30.8088L289.639 28.2837Z" fill="#002D6F"/>
</g>
<path d="M220.712 240.759L209.933 278.348L175.217 268.393L167.133 296.584L122.498 283.786L130.582 255.594L8.08387 220.468L18.8622 182.88L172.136 110.681L216.771 123.479L185.996 230.805L220.712 240.759ZM67.412 196.787L141.509 218.034L159.642 154.797L67.412 196.787Z" fill="#4865F3"/>
<mask id="mask3_908_17271" style="mask-type:alpha" maskUnits="userSpaceOnUse" x="8" y="110" width="213" height="187">
<path d="M220.712 240.759L209.933 278.348L175.217 268.393L167.133 296.584L122.498 283.786L130.582 255.594L8.08387 220.468L18.8622 182.88L172.136 110.681L216.771 123.479L185.996 230.805L220.712 240.759ZM67.412 196.787L141.509 218.034L159.642 154.797L67.412 196.787Z" fill="#56AAFF"/>
</mask>
<g mask="url(#mask3_908_17271)">
<path fill-rule="evenodd" clip-rule="evenodd" d="M101.821 210.982L107.137 263.811L94.8438 295.375L116.44 307.668L151.659 338.235L159.301 331.922C164.769 326.133 167.87 321.371 168.604 317.636C169.338 313.9 181.188 313.9 204.155 317.636L159.301 195.034L101.821 210.982Z" fill="#002D6F"/>
</g>
<path d="M583.737 216.864L604.459 250.026L573.831 269.164L589.373 294.035L549.995 318.641L534.453 293.77L426.382 361.3L405.661 328.139L454.566 165.924L493.944 141.318L553.11 236.003L583.737 216.864ZM448.482 301.365L513.852 260.518L478.991 204.728L448.482 301.365Z" fill="#4865F3"/>
<mask id="mask4_908_17271" style="mask-type:alpha" maskUnits="userSpaceOnUse" x="405" y="141" width="200" height="221">
<path d="M583.737 216.863L604.459 250.025L573.831 269.163L589.373 294.034L549.995 318.64L534.453 293.769L426.382 361.299L405.661 328.138L454.566 165.923L493.944 141.317L553.11 236.002L583.737 216.863ZM448.482 301.364L513.852 260.517L478.991 204.727L448.482 301.364Z" fill="#56AAFF"/>
</mask>
<g mask="url(#mask4_908_17271)">
<path fill-rule="evenodd" clip-rule="evenodd" d="M425.436 284.077C424.55 284.077 419.123 303.016 409.155 340.893L426.765 367.473L487.567 341.225L477.932 279.426C443.82 282.527 426.322 284.077 425.436 284.077Z" fill="#002D6F"/>
</g>
<path fill-rule="evenodd" clip-rule="evenodd" d="M301.505 30.9009L285.889 27.5784C293.642 15.1743 304.163 10.9657 317.453 14.9528C328.685 18.3223 319.842 17.9911 304.495 23.2591C302.62 23.9027 301.624 26.45 301.505 30.9009Z" fill="#002D6F"/>
<path d="M291.442 36.1297C291.505 36.4534 291.537 36.8222 291.537 37.2134C291.537 38.4971 291.19 39.5392 290.541 39.5392C289.891 39.5392 289.544 38.4971 289.544 37.2134C289.544 36.5933 289.625 36.0295 289.782 35.6123C288.188 35.2395 286.815 35.2681 285.578 35.6891C285.231 35.8073 284.853 35.6216 284.735 35.2742C284.617 34.9268 284.802 34.5492 285.15 34.431C287.025 33.7925 289.111 33.9065 291.552 34.7445C292.727 35.148 294.084 36.1585 295.655 37.7725C295.911 38.0355 295.905 38.4562 295.642 38.7122C295.379 38.9682 294.959 38.9626 294.703 38.6996C293.423 37.3853 292.328 36.5295 291.442 36.1297ZM309.988 40.5206C310.091 40.9003 310.144 41.3643 310.144 41.865C310.144 43.1486 309.796 44.1908 309.147 44.1908C308.497 44.1908 308.15 43.1486 308.15 41.865C308.15 41.1802 308.249 40.5642 308.44 40.1384C307.103 39.9052 305.924 39.9746 304.849 40.3406C304.501 40.4589 304.124 40.2731 304.006 39.9257C303.887 39.5783 304.073 39.2008 304.42 39.0825C306.296 38.444 308.382 38.5581 310.823 39.396C311.998 39.7995 313.354 40.81 314.926 42.4241C315.182 42.687 315.176 43.1077 314.913 43.3637C314.65 43.6197 314.229 43.6141 313.973 43.3511C312.534 41.8732 311.329 40.975 310.391 40.6531C310.255 40.6064 310.121 40.5622 309.988 40.5206ZM301.406 38.56L297.59 44.7236L299.974 45.2004C300.334 45.2724 300.567 45.6225 300.495 45.9823C300.423 46.3422 300.073 46.5756 299.713 46.5036L296.391 45.8391C295.936 45.7482 295.712 45.2318 295.956 44.8378L300.276 37.8604C300.469 37.5484 300.878 37.452 301.19 37.6452C301.502 37.8384 301.599 38.2479 301.406 38.56ZM295.588 50.1682C295.223 50.2036 294.898 49.9361 294.863 49.5708C294.828 49.2055 295.095 48.8807 295.46 48.8454L305.76 47.8486C306.126 47.8133 306.45 48.0808 306.486 48.446C306.521 48.8113 306.254 49.1361 305.888 49.1715L295.588 50.1682Z" fill="#002D6F"/>
<path fill-rule="evenodd" clip-rule="evenodd" d="M323.907 42.7002C327.318 39.2887 330.599 39.0262 333.748 41.913C338.472 46.243 333.124 54.3379 327.489 54.2174C323.733 54.1371 322.539 50.298 323.907 42.7002Z" fill="#8498FD"/>
<path fill-rule="evenodd" clip-rule="evenodd" d="M115.739 210.684L110.221 224.086C109.161 226.66 106.783 228.45 104.017 228.758C103.653 228.798 103.285 228.775 102.929 228.69C101.225 228.283 100.173 226.571 100.58 224.867L110.164 184.734L111.649 184.092C119.041 180.895 127.271 180.183 135.103 182.063C151.323 185.955 160.509 190.501 162.66 195.699C165.177 201.783 170.179 216.911 177.666 241.081C178.352 243.296 177.112 245.648 174.897 246.335C174.86 246.346 174.824 246.357 174.787 246.367C172.436 247.025 169.973 245.778 169.111 243.495L157.85 213.637C157.019 211.436 154.563 210.322 152.36 211.148C150.102 211.995 148.864 214.424 149.506 216.748L156.473 241.971C157.266 244.844 155.581 247.816 152.708 248.609C152.593 248.641 152.477 248.669 152.36 248.693C149.183 249.347 146.045 247.421 145.19 244.293L138.282 219.046C137.659 216.767 135.306 215.425 133.027 216.048C132.936 216.073 132.846 216.101 132.757 216.132C130.292 216.985 128.854 219.545 129.407 222.094L135.017 247.951C135.444 249.917 134.196 251.856 132.23 252.283C131.858 252.364 131.475 252.386 131.095 252.348C128.105 252.049 125.622 249.907 124.888 246.992L115.739 210.684ZM457.143 269.62C462.741 268.385 468.593 269.899 472.889 273.696L480.501 280.423L473.192 298.032L457.223 338.152C456.168 340.802 453.217 342.155 450.521 341.225C450.461 341.205 450.403 341.183 450.344 341.161C447.819 340.18 446.567 337.339 447.548 334.814L457.636 308.836C457.694 308.688 457.74 308.536 457.775 308.382C458.171 306.64 457.08 304.907 455.338 304.511C455.322 304.508 455.306 304.504 455.289 304.501C453.292 304.075 451.328 305.349 450.903 307.347L445.15 334.362C445.135 334.433 445.118 334.504 445.1 334.574C444.396 337.299 441.617 338.938 438.892 338.235C435.99 337.486 434.159 334.622 434.698 331.674L439.691 304.35C440.033 302.477 438.866 300.66 437.02 300.192C436.866 300.153 436.709 300.127 436.551 300.114C434.976 299.985 433.595 301.157 433.466 302.732L431.256 329.747C431.252 329.8 431.247 329.852 431.241 329.904C430.883 333.211 427.912 335.602 424.605 335.245C421.185 334.875 418.696 331.827 419.017 328.402C421.229 304.776 423.561 290.001 426.012 284.078C428.316 278.509 438.693 273.69 457.143 269.62Z" fill="#8498FD"/>
<path fill-rule="evenodd" clip-rule="evenodd" d="M294.196 465.487L222.429 512.667L170.598 367.473L294.196 465.487ZM475.938 496.387L369.617 490.074L349.018 314.977L406.165 328.267L475.938 496.387Z" fill="#ABEBFF"/>
<path d="M333.454 174.029C333.311 173.691 333.469 173.301 333.806 173.157C334.144 173.014 334.534 173.172 334.678 173.509C340.601 187.463 348.585 194.369 358.653 194.369C359.02 194.369 359.317 194.666 359.317 195.033C359.317 195.4 359.02 195.698 358.653 195.698C347.973 195.698 339.566 188.427 333.454 174.029ZM322.723 221.014C323.055 221.172 323.195 221.568 323.037 221.9C322.879 222.231 322.482 222.371 322.151 222.213L307.532 215.236C307.201 215.078 307.06 214.681 307.218 214.35C307.377 214.019 307.773 213.878 308.104 214.036L322.723 221.014ZM281.248 111.089C281.184 110.727 281.426 110.383 281.787 110.319C282.148 110.255 282.493 110.496 282.557 110.858L284.55 122.154C284.614 122.516 284.373 122.86 284.011 122.924C283.65 122.988 283.305 122.747 283.242 122.385L281.248 111.089Z" fill="#002D6F"/>
<path d="M145.346 229.92C149.2 229.92 152.324 226.797 152.324 222.943C152.324 219.09 149.2 215.966 145.346 215.966C141.493 215.966 138.369 219.09 138.369 222.943C138.369 226.797 141.493 229.92 145.346 229.92Z" fill="#A04FE2"/>
<path fill-rule="evenodd" clip-rule="evenodd" d="M68.1882 336.024L77.013 341.166L84.5441 335.576L82.7721 344.519L88.5311 346.979L83.6581 350.332L85.6516 358.828L78.1205 353.909L72.583 359.499L71.4755 351.674C66.8977 349.587 64.6089 348.544 64.6089 348.544C64.6089 348.544 66.8977 347.202 71.4755 344.519L68.1882 336.024ZM498.698 369.459L511.872 364.197L512.194 351.176L520.466 360.762L528.083 356.562L527.586 364.763L538.589 369.846L526.766 373.882L528.148 384.722L518.637 379.243C512.439 382.469 509.34 384.082 509.34 384.082C509.34 384.082 509.829 380.43 510.807 373.126L498.698 369.459ZM282.62 342.222L295.857 349.863L307.154 341.557L304.496 354.847L313.134 358.502L305.825 363.486L308.815 376.111L297.518 368.802L289.212 377.108L287.551 365.479C280.684 362.378 277.251 360.828 277.251 360.828C277.251 360.828 280.684 358.834 287.551 354.847L282.62 342.222ZM230.427 180.542L239.497 185.827L247.237 180.082L245.416 189.273L251.335 191.801L246.327 195.248L248.376 203.979L240.635 198.924L234.944 204.669L233.806 196.626C229.101 194.482 226.748 193.409 226.748 193.409C226.748 193.409 229.101 192.031 233.806 189.273L230.427 180.542Z" fill="#4865F3"/>
</svg>
