<svg width="1047" height="138" viewBox="0 0 1047 138" fill="none" xmlns="http://www.w3.org/2000/svg">
<path d="M3 49.4668C3 49.4668 45.2823 93.428 94.5694 91.5001C156.144 89.0916 198.495 32.7413 260.238 31.6403C333.58 30.3325 370.607 100.325 441.569 91.5001C481.423 86.5437 534.707 31.6403 574.707 31.6403C637.962 31.6403 673.731 95.8245 744.592 91.5001C803.63 87.8972 887.691 10.0841 936.767 37.5C1013.9 80.5909 1044 80.5909 1044 80.5909" stroke="url(#paint0_linear_33_90)" stroke-width="5" stroke-linecap="round"/>
<ellipse cx="90" cy="87.0005" rx="51" ry="51.0005" fill="url(#paint1_linear_33_90)"/>
<path fill-rule="evenodd" clip-rule="evenodd" d="M98.4268 64.3323C96.0689 64.2237 95.3172 64.1996 89.3109 64.1996C83.3046 64.1996 82.5528 64.2257 80.1969 64.3323C77.841 64.4388 76.2329 64.8147 74.8258 65.3595C73.3524 65.9163 72.0157 66.7867 70.9101 67.9124C69.7844 69.0159 68.916 70.3507 68.3612 71.8261C67.8145 73.2332 67.4406 74.8414 67.3321 77.1932C67.2235 79.5552 67.1994 80.307 67.1994 86.3113C67.1994 92.3176 67.2255 93.0694 67.3321 95.4273C67.4386 97.7792 67.8145 99.3873 68.3612 100.794C68.9161 102.27 69.7859 103.607 70.9101 104.712C72.0157 105.838 73.3524 106.706 74.8258 107.261C76.2329 107.808 77.841 108.182 80.1929 108.29C82.5528 108.399 83.3046 108.423 89.3109 108.423C95.3172 108.423 96.0689 108.397 98.4268 108.29C100.779 108.184 102.387 107.808 103.794 107.261C105.269 106.706 106.606 105.836 107.712 104.712C108.837 103.608 109.707 102.272 110.263 100.796C110.807 99.3894 111.181 97.7812 111.29 95.4294C111.398 93.0674 111.422 92.3156 111.422 86.3113C111.422 80.305 111.396 79.5532 111.29 77.1973C111.183 74.8414 110.807 73.2332 110.263 71.8261C109.706 70.3508 108.835 69.0146 107.71 67.9104C106.606 66.7857 105.27 65.9152 103.796 65.3595C102.389 64.8147 100.781 64.4408 98.4288 64.3323H98.4268ZM80.3758 68.3124C82.7076 68.2059 83.4071 68.1837 89.3109 68.1837C95.2146 68.1837 95.9142 68.2059 98.2459 68.3124C100.403 68.4109 101.573 68.7707 102.353 69.0742C103.384 69.4763 104.122 69.9527 104.895 70.7266C105.629 71.4403 106.194 72.3091 106.548 73.2694C106.851 74.0494 107.211 75.2193 107.31 77.3762C107.416 79.7079 107.438 80.4075 107.438 86.3113C107.438 92.2151 107.416 92.9147 107.31 95.2464C107.211 97.4033 106.851 98.5732 106.548 99.3532C106.194 100.312 105.629 101.182 104.895 101.896C104.182 102.63 103.311 103.195 102.353 103.548C101.573 103.852 100.403 104.212 98.2459 104.31C95.9142 104.417 95.2167 104.439 89.3109 104.439C83.4051 104.439 82.7076 104.417 80.3758 104.31C78.2189 104.212 77.049 103.852 76.2691 103.548C75.2379 103.146 74.5002 102.67 73.7263 101.896C72.9926 101.182 72.4277 100.312 72.074 99.3532C71.7704 98.5732 71.4106 97.4033 71.3121 95.2464C71.2056 92.9147 71.1835 92.2151 71.1835 86.3113C71.1835 80.4075 71.2056 79.7079 71.3121 77.3762C71.4106 75.2193 71.7704 74.0494 72.074 73.2694C72.476 72.2382 72.9524 71.5005 73.7263 70.7266C74.44 69.993 75.3089 69.4284 76.2691 69.0742C77.049 68.7707 78.2189 68.4109 80.3758 68.3124V68.3124ZM92.1351 93.1277C90.5578 93.7843 88.8015 93.8729 87.1662 93.3784C85.5309 92.884 84.1179 91.837 83.1687 90.4165C82.2195 88.996 81.7929 87.29 81.9617 85.5899C82.1306 83.8897 82.8845 82.301 84.0946 81.095C84.866 80.324 85.7987 79.7337 86.8257 79.3665C87.8526 78.9993 88.9482 78.8644 90.0335 78.9715C91.1189 79.0785 92.167 79.4249 93.1024 79.9856C94.0378 80.5463 94.8373 81.3075 95.4432 82.2143C96.0491 83.1211 96.4465 84.151 96.6066 85.2298C96.7668 86.3086 96.6858 87.4094 96.3694 88.4532C96.053 89.4969 95.5092 90.4575 94.777 91.2658C94.0448 92.0741 93.1425 92.71 92.1351 93.1277ZM97.3474 78.2747C96.292 77.2193 95.0391 76.3822 93.6602 75.811C92.2813 75.2398 90.8034 74.9458 89.3109 74.9458C87.8184 74.9458 86.3404 75.2398 84.9615 75.811C83.5826 76.3822 82.3297 77.2193 81.2744 78.2747C80.219 79.3301 79.3818 80.583 78.8107 81.9619C78.2395 83.3408 77.9455 84.8188 77.9455 86.3113C77.9455 87.8038 78.2395 89.2818 78.8107 90.6607C79.3818 92.0396 80.219 93.2925 81.2744 94.3479C83.4058 96.4793 86.2966 97.6768 89.3109 97.6768C92.3252 97.6768 95.216 96.4793 97.3474 94.3479C99.4788 92.2165 100.676 89.3256 100.676 86.3113C100.676 83.297 99.4788 80.4061 97.3474 78.2747V78.2747ZM75.4249 76.6384C75.1633 76.3917 74.954 76.0951 74.8091 75.766C74.6643 75.4369 74.587 75.0821 74.5818 74.7226C74.5765 74.3631 74.6435 74.0062 74.7786 73.6731C74.9138 73.3399 75.1144 73.0373 75.3687 72.783C75.6229 72.5288 75.9255 72.3282 76.2587 72.193C76.5918 72.0579 76.9487 71.9909 77.3082 71.9962C77.6677 72.0014 78.0225 72.0787 78.3516 72.2235C78.6806 72.3684 78.9773 72.5777 79.224 72.8393C79.7038 73.3479 79.9665 74.0235 79.9563 74.7226C79.9461 75.4218 79.6638 76.0894 79.1694 76.5839C78.675 77.0783 78.0074 77.3605 77.3082 77.3707C76.6091 77.3809 75.9335 77.1182 75.4249 76.6384V76.6384Z" fill="white"/>
<ellipse cx="377" cy="67.0005" rx="51" ry="51.0005" fill="url(#paint2_linear_33_90)"/>
<path d="M392.538 49.4099C392.538 49.4099 396.618 47.799 396.277 51.711C396.165 53.3219 395.145 58.9607 394.351 65.0589L391.631 83.1248C391.631 83.1248 391.404 85.7714 389.364 86.2318C387.324 86.6912 384.264 84.6209 383.697 84.1605C383.243 83.8149 375.197 78.6365 372.363 76.1058C371.57 75.4146 370.662 74.0344 372.477 72.4235L384.376 60.9162C385.736 59.536 387.096 56.3141 381.43 60.2261L365.561 71.1571C365.561 71.1571 363.748 72.3087 360.348 71.273L352.98 68.9709C352.98 68.9709 350.26 67.2451 354.907 65.5193C366.242 60.1113 380.183 54.5883 392.536 49.4099H392.538Z" fill="white"/>
<ellipse cx="664" cy="83.0005" rx="51" ry="51.0005" fill="url(#paint3_linear_33_90)"/>
<g clip-path="url(#clip0_33_90)">
<path d="M646.804 67.477C649.968 66.0504 653.358 64.9959 656.904 64.3963C656.936 64.3903 656.969 64.3942 656.998 64.4075C657.027 64.4208 657.052 64.4429 657.068 64.4708C657.502 65.2337 657.986 66.2282 658.325 67.0139C662.085 66.452 665.909 66.452 669.669 67.0139C670.047 66.1431 670.473 65.2941 670.945 64.4708C670.961 64.4426 670.985 64.42 671.015 64.406C671.044 64.3919 671.077 64.3871 671.109 64.3922C674.652 64.9918 678.043 66.0463 681.209 67.475C681.236 67.4864 681.259 67.5059 681.275 67.5308C687.709 76.99 689.473 86.2156 688.606 95.3253C688.604 95.3477 688.597 95.3692 688.586 95.3888C688.575 95.4083 688.56 95.4254 688.542 95.4391C684.787 98.1733 680.598 100.256 676.151 101.6C676.12 101.61 676.087 101.61 676.056 101.6C676.025 101.591 675.998 101.572 675.978 101.547C675.021 100.267 674.173 98.9094 673.443 97.488C673.433 97.4686 673.427 97.4472 673.426 97.4253C673.425 97.4035 673.428 97.3816 673.436 97.3612C673.444 97.3408 673.456 97.3224 673.472 97.3072C673.488 97.2919 673.507 97.2803 673.528 97.273C674.863 96.77 676.157 96.163 677.398 95.4577C677.42 95.4449 677.439 95.4269 677.453 95.4051C677.466 95.3833 677.474 95.3585 677.476 95.3329C677.478 95.3073 677.473 95.2817 677.462 95.2583C677.451 95.235 677.435 95.2147 677.415 95.1992C677.154 95.0069 676.894 94.8064 676.645 94.6058C676.623 94.5878 676.596 94.5763 676.568 94.5727C676.539 94.569 676.51 94.5733 676.484 94.5852C668.365 98.2324 659.571 98.2324 651.547 94.5852C651.521 94.5726 651.492 94.5677 651.463 94.571C651.434 94.5743 651.407 94.5857 651.384 94.6038C651.136 94.8064 650.877 95.0069 650.615 95.1992C650.594 95.2144 650.577 95.2344 650.566 95.2575C650.555 95.2807 650.55 95.3062 650.551 95.3318C650.553 95.3574 650.56 95.3823 650.573 95.4043C650.587 95.4262 650.605 95.4446 650.627 95.4577C651.864 96.1689 653.15 96.7706 654.5 97.2709C654.52 97.2785 654.539 97.2903 654.555 97.3057C654.571 97.3212 654.583 97.3398 654.591 97.3603C654.599 97.3809 654.603 97.4029 654.602 97.4249C654.601 97.4469 654.595 97.4685 654.585 97.488C653.84 98.9085 652.988 100.261 652.052 101.545C652.032 101.571 652.005 101.591 651.974 101.601C651.943 101.611 651.909 101.612 651.878 101.603C647.424 100.262 643.228 98.1782 639.469 95.4391C639.45 95.4262 639.435 95.4096 639.423 95.3904C639.412 95.3711 639.405 95.3497 639.402 95.3274C638.369 84.7951 641.135 75.644 646.74 67.5349C646.754 67.5086 646.777 67.488 646.804 67.477ZM672.229 89.778C674.673 89.778 676.689 87.5678 676.689 84.8572C676.689 82.1445 674.712 79.9363 672.229 79.9363C669.727 79.9363 667.73 82.1631 667.769 84.8572C667.769 87.5698 669.746 89.778 672.229 89.778V89.778ZM655.74 89.778C658.186 89.778 660.2 87.5678 660.2 84.8572C660.2 82.1445 658.225 79.9363 655.74 79.9363C653.239 79.9363 651.241 82.1631 651.281 84.8572C651.281 87.5698 653.236 89.778 655.74 89.778V89.778Z" fill="white"/>
</g>
<ellipse cx="951" cy="51.0005" rx="51" ry="51.0005" fill="url(#paint4_linear_33_90)"/>
<g clip-path="url(#clip1_33_90)">
<path d="M975.073 36.3971C973.346 37.1621 971.492 37.679 969.542 37.9126C971.554 36.7089 973.059 34.8143 973.776 32.5824C971.886 33.7051 969.817 34.4953 967.66 34.9188C966.21 33.3699 964.288 32.3432 962.194 31.9982C960.1 31.6533 957.951 32.0092 956.08 33.0109C954.209 34.0126 952.722 35.6039 951.848 37.5378C950.974 39.4717 950.763 41.64 951.248 43.706C947.418 43.5137 943.672 42.5183 940.251 40.7843C936.831 39.0503 933.814 36.6166 931.395 33.641C930.568 35.0676 930.093 36.7217 930.093 38.4833C930.092 40.0691 930.482 41.6307 931.23 43.0294C931.977 44.4281 933.058 45.6207 934.377 46.5014C932.847 46.4527 931.351 46.0395 930.014 45.296V45.42C930.014 47.6442 930.783 49.8 932.192 51.5215C933.6 53.243 935.56 54.4242 937.741 54.8648C936.322 55.2488 934.834 55.3053 933.39 55.0302C934.005 56.944 935.204 58.6175 936.817 59.8165C938.431 61.0155 940.379 61.6799 942.388 61.7168C938.977 64.3951 934.763 65.848 930.425 65.8416C929.657 65.8418 928.889 65.7969 928.126 65.7072C932.529 68.5381 937.654 70.0405 942.889 70.0346C960.608 70.0346 970.294 55.3589 970.294 42.6309C970.294 42.2173 970.284 41.7997 970.265 41.3862C972.15 40.0236 973.776 38.3363 975.068 36.4033L975.073 36.3971V36.3971Z" fill="white"/>
</g>
<defs>
<linearGradient id="paint0_linear_33_90" x1="523.5" y1="31.6222" x2="523.5" y2="92.2699" gradientUnits="userSpaceOnUse">
<stop stop-color="#B09FFF"/>
<stop offset="1" stop-color="#8D79F6"/>
</linearGradient>
<linearGradient id="paint1_linear_33_90" x1="78.5693" y1="125.816" x2="140.75" y2="36" gradientUnits="userSpaceOnUse">
<stop stop-color="#F32443"/>
<stop offset="1" stop-color="#FB7A8D"/>
</linearGradient>
<linearGradient id="paint2_linear_33_90" x1="348.611" y1="117.75" x2="422.097" y2="26.6774" gradientUnits="userSpaceOnUse">
<stop stop-color="#3491E2"/>
<stop offset="1" stop-color="#87BDEC"/>
</linearGradient>
<linearGradient id="paint3_linear_33_90" x1="651.941" y1="123.7" x2="705.328" y2="46.4459" gradientUnits="userSpaceOnUse">
<stop stop-color="#5662F6"/>
<stop offset="1" stop-color="#A2A8F5"/>
</linearGradient>
<linearGradient id="paint4_linear_33_90" x1="937.685" y1="101.75" x2="990.444" y2="9.42127" gradientUnits="userSpaceOnUse">
<stop stop-color="#1C9AEF"/>
<stop offset="1" stop-color="#82CBFC"/>
</linearGradient>
<clipPath id="clip0_33_90">
<rect width="49.6216" height="49.6221" fill="white" transform="translate(639.189 58.1894)"/>
</clipPath>
<clipPath id="clip1_33_90">
<rect width="49.6216" height="49.6221" fill="white" transform="matrix(-1 0 0 1 975.811 26.1894)"/>
</clipPath>
</defs>
</svg>
