<svg width="20" height="20" viewBox="0 0 20 20" fill="none" xmlns="http://www.w3.org/2000/svg">
<mask id="mask0_811_16577" style="mask-type:alpha" maskUnits="userSpaceOnUse" x="0" y="0" width="20" height="20">
<rect width="20" height="20" fill="#D9D9D9"/>
</mask>
<g mask="url(#mask0_811_16577)">
<path d="M15.9189 12.4421C15.6599 12.7063 15.5409 13.0884 15.5999 13.4631L16.4889 18.642C16.5639 19.081 16.3879 19.5252 16.0389 19.7789C15.6969 20.042 15.2419 20.0736 14.8689 19.8631L10.4399 17.4315C10.2859 17.3452 10.1149 17.2989 9.93988 17.2936H9.66888C9.57488 17.3084 9.48288 17.3399 9.39888 17.3884L4.96888 19.8315C4.74988 19.9473 4.50188 19.9884 4.25888 19.9473C3.66688 19.8294 3.27188 19.2357 3.36888 18.6094L4.25888 13.4305C4.31788 13.0526 4.19888 12.6684 3.93988 12.4L0.328876 8.71576C0.0268758 8.40734 -0.0781242 7.94418 0.0598758 7.52629C0.193876 7.10945 0.535876 6.80524 0.948876 6.73682L5.91888 5.97787C6.29688 5.93682 6.62888 5.69472 6.79888 5.33682L8.98888 0.610524C9.04088 0.505261 9.10788 0.40842 9.18888 0.326315L9.27888 0.252631C9.32588 0.197894 9.37988 0.152631 9.43988 0.115789L9.54888 0.073684L9.71888 0H10.1399C10.5159 0.0410525 10.8469 0.277894 11.0199 0.631577L13.2389 5.33682C13.3989 5.68103 13.7099 5.91998 14.0689 5.97787L19.0389 6.73682C19.4589 6.79998 19.8099 7.10524 19.9489 7.52629C20.0799 7.94839 19.9669 8.41155 19.6589 8.71576L15.9189 12.4421Z" fill="black"/>
</g>
</svg>
