<svg width="24" height="24" viewBox="0 0 24 24" fill="none" xmlns="http://www.w3.org/2000/svg">
<mask id="mask0_811_16582" style="mask-type:alpha" maskUnits="userSpaceOnUse" x="0" y="0" width="24" height="24">
<rect width="24" height="24" fill="#D9D9D9"/>
</mask>
<g mask="url(#mask0_811_16582)">
<path fill-rule="evenodd" clip-rule="evenodd" d="M19.9571 5.70711C20.3476 5.31658 20.3476 4.68342 19.9571 4.29289C19.5666 3.90237 18.9334 3.90237 18.5429 4.29289L12 10.8358L5.70711 4.54289C5.31658 4.15237 4.68342 4.15237 4.29289 4.54289C3.90237 4.93342 3.90237 5.56658 4.29289 5.95711L10.5858 12.25L4.29289 18.5429C3.90237 18.9334 3.90237 19.5666 4.29289 19.9571C4.68342 20.3476 5.31658 20.3476 5.70711 19.9571L12.25 13.4142L18.5429 19.7071C18.9334 20.0976 19.5666 20.0976 19.9571 19.7071C20.3476 19.3166 20.3476 18.6834 19.9571 18.2929L13.6642 12L19.9571 5.70711Z" fill="black"/>
</g>
</svg>
