<svg width="25" height="25" viewBox="0 0 25 25" fill="none" xmlns="http://www.w3.org/2000/svg">
<mask id="mask0_825_10871" style="mask-type:alpha" maskUnits="userSpaceOnUse" x="0" y="0" width="25" height="25">
<rect width="25" height="25" fill="#D9D9D9"/>
</mask>
<g mask="url(#mask0_825_10871)">
<circle cx="12.5" cy="12.5" r="11.5" fill="#9FFE40"/>
<path d="M15.9983 15.0057C15.9983 12.9183 14.6051 12.3198 13.0978 11.9829L12.2989 11.8121C11.1176 11.5669 11.0264 11.2051 11.0264 10.7207C11.0264 10.0923 11.5628 9.71666 12.4614 9.71666C13.5254 9.71666 13.7981 10.281 13.9112 10.705L13.922 10.7402C14.0558 11.1099 14.3668 11.3304 14.7548 11.3304C14.8553 11.3304 14.9457 11.3142 15.0132 11.2998C15.4296 11.2123 15.7197 10.8623 15.7197 10.4477C15.7197 10.3449 15.7021 10.243 15.6666 10.1439C15.4533 9.41938 14.8537 8.27902 13.1923 8.0187V6.77619C13.1923 5.74127 11.6571 5.74127 11.6571 6.77619V8.02614C9.87244 8.32102 9.21526 9.60291 9.21526 10.7203C9.21526 12.7534 10.5561 13.3202 11.8659 13.6054L12.7301 13.7992C13.9607 14.0635 14.1776 14.4023 14.1776 15.0162C14.1776 15.7663 13.577 16.2134 12.5701 16.2134C11.263 16.2134 10.9966 15.5919 10.8184 14.8943C10.7142 14.5082 10.3838 14.2595 9.97623 14.2595C9.88735 14.2595 9.81608 14.272 9.7301 14.2875L9.70421 14.2927C9.2828 14.3984 9 14.7488 9 15.1643C9 15.2432 9.01326 15.3104 9.02403 15.3646L9.03729 15.4268C9.22686 16.1034 9.64537 17.581 11.7327 17.9107V19.2112C11.7327 19.729 12.1185 20 12.5001 20C12.8817 20 13.2679 19.729 13.2679 19.2112V17.9334C14.9254 17.7055 16 16.5875 16 15.0059" fill="white"/>
</g>
</svg>
