<svg width="20" height="20" viewBox="0 0 20 20" fill="none" xmlns="http://www.w3.org/2000/svg">
<mask id="mask0_811_16578" style="mask-type:alpha" maskUnits="userSpaceOnUse" x="0" y="0" width="20" height="20">
<rect width="20" height="20" fill="#D9D9D9"/>
</mask>
<g mask="url(#mask0_811_16578)">
<path fill-rule="evenodd" clip-rule="evenodd" d="M6.87774 4.37856C6.87774 6.24523 5.33886 7.75821 3.43887 7.75821C1.53999 7.75821 0 6.24523 0 4.37856C0 2.51298 1.53999 1 3.43887 1C5.33886 1 6.87774 2.51298 6.87774 4.37856ZM18.4934 2.89844C19.3246 2.89844 20.0001 3.56214 20.0001 4.37867C20.0001 5.1963 19.3246 5.86 18.4934 5.86H11.9179C11.0857 5.86 10.4102 5.1963 10.4102 4.37867C10.4102 3.56214 11.0857 2.89844 11.9179 2.89844H18.4934ZM1.50777 13.958H8.08329C8.91551 13.958 9.59106 14.6217 9.59106 15.4393C9.59106 16.2559 8.91551 16.9207 8.08329 16.9207H1.50777C0.675552 16.9207 0 16.2559 0 15.4393C0 14.6217 0.675552 13.958 1.50777 13.958ZM16.5609 18.7777C18.4609 18.7777 19.9998 17.2648 19.9998 15.3992C19.9998 13.5325 18.4609 12.0195 16.5609 12.0195C14.6621 12.0195 13.1221 13.5325 13.1221 15.3992C13.1221 17.2648 14.6621 18.7777 16.5609 18.7777Z" fill="black"/>
</g>
</svg>
