<svg width="20" height="20" viewBox="0 0 20 20" fill="none" xmlns="http://www.w3.org/2000/svg">
<path fill-rule="evenodd" clip-rule="evenodd" d="M8.46229 12.2268C8.89942 12.5231 9.43217 12.7023 9.99908 12.7023C11.5017 12.7023 12.7243 11.4687 12.7243 9.95258C12.7243 9.38059 12.5467 8.84304 12.253 8.40198L11.5085 9.15316C11.6315 9.38748 11.6998 9.66314 11.6998 9.95258C11.6998 10.8967 10.9348 11.6686 9.99908 11.6686C9.71221 11.6686 9.439 11.5997 9.20678 11.4756L8.46229 12.2268ZM14.5002 6.13466C15.4905 7.04435 16.3306 8.27104 16.959 9.74584C17.0137 9.87678 17.0137 10.0284 16.959 10.1524C15.4974 13.5844 12.8951 15.6381 9.99908 15.6381H9.99225C8.67403 15.6381 7.41044 15.204 6.29713 14.4114L4.97207 15.7484C4.86962 15.8518 4.73985 15.9 4.61008 15.9C4.4803 15.9 4.3437 15.8518 4.24808 15.7484C4.07732 15.5761 4.05 15.3004 4.1866 15.1006L4.2071 15.073L14.3089 4.8804C14.3226 4.86661 14.3362 4.85283 14.3431 4.83905C14.3567 4.82526 14.3704 4.81148 14.3772 4.7977L15.0193 4.14989C15.2242 3.95004 15.5452 3.95004 15.7432 4.14989C15.9482 4.34975 15.9482 4.68054 15.7432 4.8804L14.5002 6.13466ZM7.26886 9.95527C7.26886 10.1345 7.28935 10.3136 7.31667 10.479L4.7895 13.0289C4.10649 12.2295 3.51226 11.2647 3.04098 10.1551C2.98634 10.0311 2.98634 9.87947 3.04098 9.74853C4.50264 6.31653 7.10493 4.26974 9.99409 4.26974H10.0009C10.9776 4.26974 11.927 4.50405 12.8013 4.94511L10.52 7.24689C10.3561 7.21932 10.1785 7.19865 10.0009 7.19865C8.49146 7.19865 7.26886 8.43224 7.26886 9.95527Z" fill="black"/>
</svg>
