<svg width="24" height="24" viewBox="0 0 24 24" fill="none" xmlns="http://www.w3.org/2000/svg">
<mask id="mask0_814_16663" style="mask-type:alpha" maskUnits="userSpaceOnUse" x="0" y="0" width="24" height="24">
<rect width="24" height="24" fill="#D9D9D9"/>
</mask>
<g mask="url(#mask0_814_16663)">
<path fill-rule="evenodd" clip-rule="evenodd" d="M16.6048 4C17.7362 4 18.8247 4.44719 19.6254 5.24959C20.427 6.05031 20.875 7.13031 20.875 8.26094V14.9266C20.875 17.2806 18.9597 19.1875 16.6048 19.1875H8.26937C5.91447 19.1875 4 17.2806 4 14.9266V8.26094C4 5.90688 5.90603 4 8.26937 4H16.6048ZM17.9471 9.51813L18.0146 9.45063C18.2163 9.20594 18.2163 8.85157 18.0053 8.60688C17.8881 8.48116 17.7269 8.40438 17.559 8.3875C17.3818 8.37822 17.2131 8.43813 17.0857 8.55625L13.2812 11.5938C12.7918 11.9996 12.0907 11.9996 11.5937 11.5938L7.79682 8.55625C7.53441 8.36219 7.1716 8.3875 6.95307 8.61532C6.72525 8.84313 6.69994 9.20594 6.89316 9.45907L7.00369 9.56875L10.8428 12.5641C11.3153 12.9353 11.8882 13.1378 12.4881 13.1378C13.0863 13.1378 13.6693 12.9353 14.141 12.5641L17.9471 9.51813Z" fill="black"/>
</g>
</svg>
