<svg width="20" height="20" viewBox="0 0 20 20" fill="none" xmlns="http://www.w3.org/2000/svg">
<path fill-rule="evenodd" clip-rule="evenodd" d="M7.60168 10.2668C7.60168 11.7602 8.82412 12.9752 10.3334 12.9752C11.8358 12.9752 13.0583 11.7602 13.0583 10.2668C13.0583 8.76671 11.8358 7.55168 10.3334 7.55168C8.82412 7.55168 7.60168 8.76671 7.60168 10.2668ZM14.3491 6.09899C15.5442 7.02214 16.5618 8.37293 17.2925 10.0631C17.3472 10.1921 17.3472 10.3414 17.2925 10.4636C15.8311 13.844 13.2291 15.8667 10.3335 15.8667H10.3267C7.43789 15.8667 4.83593 13.844 3.37447 10.4636C3.31984 10.3414 3.31984 10.1921 3.37447 10.0631C4.83593 6.68275 7.43789 4.66675 10.3267 4.66675H10.3335C11.7813 4.66675 13.154 5.16905 14.3491 6.09899ZM10.3344 11.9555C11.27 11.9555 12.0349 11.1953 12.0349 10.2653C12.0349 9.3286 11.27 8.56836 10.3344 8.56836C10.2524 8.56836 10.1705 8.57515 10.0954 8.58872C10.0681 9.33539 9.45342 9.93272 8.69537 9.93272H8.66122C8.64073 10.0413 8.62707 10.1499 8.62707 10.2653C8.62707 11.1953 9.39195 11.9555 10.3344 11.9555Z" fill="black"/>
</svg>
