<svg width="42" height="42" viewBox="0 0 42 42" fill="none" xmlns="http://www.w3.org/2000/svg">
<mask id="mask0_812_11123" style="mask-type:alpha" maskUnits="userSpaceOnUse" x="0" y="0" width="42" height="42">
<rect width="42" height="42" fill="#D9D9D9"/>
</mask>
<g mask="url(#mask0_812_11123)">
<path d="M38.25 33.75H34V15.1562L21.25 23.125L8.5 15.1562V33.75H4.25V8.25H6.8L21.25 17.2812L35.7 8.25H38.25M38.25 4H4.25C1.89125 4 0 5.89125 0 8.25V33.75C0 34.8772 0.447766 35.9582 1.2448 36.7552C2.04183 37.5522 3.12283 38 4.25 38H38.25C39.3772 38 40.4582 37.5522 41.2552 36.7552C42.0522 35.9582 42.5 34.8772 42.5 33.75V8.25C42.5 7.12283 42.0522 6.04183 41.2552 5.2448C40.4582 4.44777 39.3772 4 38.25 4V4Z" fill="#454459"/>
</g>
</svg>
