<svg width="22" height="22" viewBox="0 0 22 22" fill="none" xmlns="http://www.w3.org/2000/svg">
<mask id="mask0_904_13689" style="mask-type:alpha" maskUnits="userSpaceOnUse" x="0" y="0" width="22" height="22">
<rect width="22" height="22" fill="white"/>
</mask>
<g mask="url(#mask0_904_13689)">
<path d="M11.4369 8.33333C12.0712 8.33333 12.5452 8.91631 12.4158 9.53729L11 16.3333H14.6667C15.403 16.3333 16 16.9303 16 17.6667V17.6667C16 18.403 15.403 19 14.6667 19H8.89647C8.26216 19 7.78812 18.417 7.91749 17.796L9.33333 11H7.33333C6.59695 11 6 10.403 6 9.66667V9.66667C6 8.93029 6.59695 8.33333 7.33333 8.33333H11.4369Z" fill="#E9E9E9"/>
<path d="M12.3333 7C13.4379 7 14.3333 6.10457 14.3333 5V5C14.3333 3.89543 13.4379 3 12.3333 3H11.3333C10.2288 3 9.33333 3.89543 9.33333 5V5C9.33333 6.10457 10.2288 7 11.3333 7H12.3333Z" fill="#E9E9E9"/>
</g>
</svg>
