<svg width="20" height="20" viewBox="0 0 20 20" fill="none" xmlns="http://www.w3.org/2000/svg">
<mask id="mask0_811_16579" style="mask-type:alpha" maskUnits="userSpaceOnUse" x="0" y="0" width="20" height="20">
<rect width="20" height="20" fill="#D9D9D9"/>
</mask>
<g mask="url(#mask0_811_16579)">
<path fill-rule="evenodd" clip-rule="evenodd" d="M10 20C15.5229 20 20 15.5229 20 10C20 4.47705 15.5229 0 10 0C4.47705 0 0 4.47705 0 10C0 15.5229 4.47705 20 10 20ZM5.13623 10.2234C5.07471 10.417 5.04395 10.6199 5 10.8191V12.1021L5.07861 12.4734C5.4624 14.1987 6.96045 15.6235 8.7002 15.9126C8.90332 15.9473 9.11084 15.9644 9.31592 15.9893H9.68018L9.87305 15.9678C10.0112 15.9534 10.1504 15.9387 10.2866 15.9126C11.7021 15.6409 12.7607 14.8708 13.4766 13.6262C13.6055 13.4016 13.7109 13.1685 13.7944 12.9275C13.8848 12.6658 13.9492 12.3948 13.9883 12.1155C13.9961 12.0542 14 11.9949 14 11.9336V4.0957C14 4.06323 13.998 4.03247 13.9961 4H12.1738L12.1782 4.05054L12.1797 4.08618V5.92456C12.1802 7.76294 12.1807 9.60107 12.1777 11.4395C12.1777 11.6233 12.1606 11.811 12.124 11.991C11.8804 13.1858 10.6895 14.2678 9.18555 14.1011C7.8042 13.948 6.43848 12.531 6.91455 10.7634C7.34961 9.13574 9.20264 8.32568 10.7236 9.08398C10.7661 9.10327 10.8081 9.12427 10.8657 9.15308L10.8687 9.11743C10.8716 9.08569 10.8735 9.0603 10.8735 9.03613V8.58643C10.873 8.13647 10.8726 7.68579 10.8755 7.23608C10.8755 7.19043 10.8677 7.16113 10.8462 7.14038C10.8311 7.12524 10.8086 7.11475 10.7773 7.10596C10.0811 6.9126 9.37549 6.85693 8.67139 7.0083C6.87402 7.39526 5.69043 8.47144 5.13623 10.2234Z" fill="black"/>
</g>
</svg>
