<svg width="32" height="16" viewBox="0 0 32 16" fill="none" xmlns="http://www.w3.org/2000/svg">
<path d="M30.0001 0.0012207H2.0001C0.89553 0.0012207 9.91821e-05 0.896651 9.91821e-05 2.00122V13.0012C9.91821e-05 14.1058 0.89553 15.0012 2.0001 15.0012H30.0001C31.1047 15.0012 32.0001 14.1058 32.0001 13.0012V2.00122C32.0001 0.896651 31.1047 0.0012207 30.0001 0.0012207Z" fill="#FE4A4A"/>
<path d="M30.0001 0.0012207H2.0001C0.89553 0.0012207 9.91821e-05 0.896651 9.91821e-05 2.00122V13.0012C9.91821e-05 14.1058 0.89553 15.0012 2.0001 15.0012H30.0001C31.1047 15.0012 32.0001 14.1058 32.0001 13.0012V2.00122C32.0001 0.896651 31.1047 0.0012207 30.0001 0.0012207Z" fill="#FE4A4A"/>
<path d="M6.569 11.0016V4.45605H7.9528V9.86055H10.7589V11.0016H6.569ZM13.0593 4.45605V11.0016H11.6754V4.45605H13.0593ZM15.3804 4.45605L16.9624 9.42905H17.0231L18.6084 4.45605H20.1425L17.8861 11.0016H16.1027L13.8431 4.45605H15.3804ZM20.9303 11.0016V4.45605H25.3408V5.59705H22.3142V7.15665H25.1139V8.29765H22.3142V9.86055H25.3536V11.0016H20.9303Z" fill="white"/>
</svg>
