<svg width="24" height="27" viewBox="0 0 24 27" fill="none" xmlns="http://www.w3.org/2000/svg">
<mask id="mask0_811_16588" style="mask-type:alpha" maskUnits="userSpaceOnUse" x="0" y="0" width="24" height="27">
<rect width="24" height="26.1818" fill="#D9D9D9"/>
</mask>
<g mask="url(#mask0_811_16588)">
<mask id="mask1_811_16588" style="mask-type:alpha" maskUnits="userSpaceOnUse" x="2" y="3" width="20" height="20">
<rect x="2" y="3" width="20" height="20" fill="#D9D9D9"/>
</mask>
<g mask="url(#mask1_811_16588)">
<path d="M8.84496 13.6246C8.84496 13.2108 9.17791 12.8835 9.59899 12.8835H15.4745V8.27334C15.4745 5.9153 13.5258 4 11.1364 4H6.35767C3.9585 4 2 5.9153 2 8.28296V18.9759C2 21.334 3.94871 23.2493 6.34787 23.2493H11.1168C13.5258 23.2493 15.4745 21.3243 15.4745 18.9663V14.3657H9.59899C9.17791 14.3657 8.84496 14.0289 8.84496 13.6246" fill="black"/>
<path d="M21.7787 13.0955L18.9684 10.2947C18.6796 10.006 18.208 10.006 17.9193 10.3043C17.6305 10.5931 17.6305 11.0647 17.9193 11.3534L19.4592 12.8837H15.4746V14.3659H19.4592L17.9193 15.8963C17.6305 16.185 17.6305 16.6566 17.9193 16.9453C18.0636 17.0897 18.2561 17.1667 18.4486 17.1667C18.6315 17.1667 18.824 17.0897 18.9684 16.9453L21.7787 14.1446C21.9231 14.0098 22.0001 13.8173 22.0001 13.6248C22.0001 13.4227 21.9231 13.2399 21.7787 13.0955" fill="black"/>
</g>
</g>
</svg>
