<svg width="24" height="24" viewBox="0 0 24 24" fill="none" xmlns="http://www.w3.org/2000/svg">
<mask id="mask0_822_11081" style="mask-type:alpha" maskUnits="userSpaceOnUse" x="0" y="0" width="24" height="24">
<rect width="24" height="24" fill="#D9D9D9"/>
</mask>
<g mask="url(#mask0_822_11081)">
<path fill-rule="evenodd" clip-rule="evenodd" d="M17.9268 1C19.536 1 21.084 1.636 22.2228 2.7772C23.3628 3.916 24 5.452 24 7.06V16.54C24 19.888 21.276 22.6 17.9268 22.6H6.072C2.7228 22.6 0 19.888 0 16.54V7.06C0 3.712 2.7108 1 6.072 1H17.9268ZM19.836 8.84761L19.932 8.75161C20.2188 8.40361 20.2188 7.89961 19.9188 7.55161C19.752 7.37281 19.5228 7.26361 19.284 7.23961C19.032 7.22641 18.792 7.31161 18.6108 7.47961L13.2 11.7996C12.504 12.3768 11.5068 12.3768 10.8 11.7996L5.4 7.47961C5.0268 7.20361 4.5108 7.23961 4.2 7.56361C3.876 7.88761 3.84 8.40361 4.1148 8.76361L4.272 8.91961L9.732 13.1796C10.404 13.7076 11.2188 13.9956 12.072 13.9956C12.9228 13.9956 13.752 13.7076 14.4228 13.1796L19.836 8.84761Z" fill="#878787"/>
</g>
</svg>
