<svg width="24" height="27" viewBox="0 0 24 27" fill="none" xmlns="http://www.w3.org/2000/svg">
<mask id="mask0_811_16589" style="mask-type:alpha" maskUnits="userSpaceOnUse" x="0" y="0" width="24" height="27">
<rect width="24" height="26.1818" fill="#D9D9D9"/>
</mask>
<g mask="url(#mask0_811_16589)">
<path d="M19.2695 12.6456C18.539 11.7925 18.2071 11.0523 18.2071 9.79633V9.3703C18.2071 7.73265 17.8314 6.67916 17.0125 5.62466C15.7502 3.98702 13.6254 3 11.5452 3H11.4558C9.41935 3 7.36106 3.9417 6.077 5.51186C5.21333 6.58852 4.79392 7.68834 4.79392 9.3703V9.79633C4.79392 11.0523 4.48384 11.7925 3.73049 12.6456C3.1779 13.2741 3 14.0808 3 14.956C3 15.8302 3.28822 16.6601 3.86367 17.3339C4.61602 18.1417 5.67846 18.6573 6.76375 18.747C8.33505 18.9263 9.90634 18.9937 11.5005 18.9937C13.0937 18.9937 14.6659 18.8809 16.2372 18.747C17.3215 18.6573 18.384 18.1417 19.1373 17.3339C19.7128 16.6601 20 15.8302 20 14.956C20 14.0808 19.8231 13.2741 19.2695 12.6456" fill="black"/>
<path d="M9.46324 20.228C9.03588 20.3267 8.57373 20.5573 8.57373 21.0609C8.59858 21.5403 8.87984 21.9654 9.26943 22.2343C9.77233 22.6281 10.3637 22.8768 10.9829 22.9665C11.3128 23.0118 11.6487 23.0108 11.9906 22.9665C12.6088 22.8768 13.2002 22.6281 13.704 22.2353C14.0926 21.9654 14.3739 21.5403 14.3988 21.0609C14.3988 20.5573 13.9366 20.3267 13.5092 20.228C13.0093 20.1222 9.96315 20.1222 9.46324 20.228Z" fill="black"/>
</g>
</svg>
