<svg width="20" height="20" viewBox="0 0 20 20" fill="none" xmlns="http://www.w3.org/2000/svg">
<mask id="mask0_811_16573" style="mask-type:alpha" maskUnits="userSpaceOnUse" x="0" y="0" width="20" height="20">
<rect width="20" height="20" fill="#D9D9D9"/>
</mask>
<g mask="url(#mask0_811_16573)">
<path fill-rule="evenodd" clip-rule="evenodd" d="M17.761 10.001C17.761 10.8145 18.429 11.4764 19.25 11.4764C19.664 11.4764 20 11.8093 20 12.2195V14.8958C20 17.159 18.142 19 15.858 19H4.143C1.859 19 0 17.159 0 14.8958V12.2195C0 11.8093 0.336 11.4764 0.75 11.4764C1.572 11.4764 2.24 10.8145 2.24 10.001C2.24 9.2083 1.599 8.6118 0.75 8.6118C0.551 8.6118 0.361 8.53352 0.22 8.39381C0.079 8.2541 0 8.06485 0 7.86866L0.002 5.10514C0.002 2.84201 1.86 1 4.144 1H15.856C18.14 1 19.999 2.84201 19.999 5.10514L20 7.78245C20 7.97864 19.921 8.16889 19.781 8.30761C19.64 8.44732 19.45 8.5256 19.25 8.5256C18.429 8.5256 17.761 9.18749 17.761 10.001ZM12.6381 10.7295C12.6675 10.6967 12.69 10.6715 12.7015 10.6597C12.8424 10.4725 12.9168 10.2427 12.9168 9.99592C12.9168 9.77483 12.8509 9.55375 12.7179 9.37525C12.6327 9.251 12.4366 9.05208 12.4366 9.05208C11.7405 8.278 10.0084 7.11308 9.13042 6.73858C9.13042 6.73042 8.60818 6.50875 8.35984 6.5H8.32688C7.94557 6.5 7.58926 6.72167 7.40684 7.07867C7.33242 7.2249 7.26278 7.58118 7.22886 7.75467C7.21746 7.81302 7.21009 7.85069 7.20795 7.85275C7.1335 8.36258 7.0835 9.14542 7.0835 10.0047C7.0835 10.9065 7.1335 11.7226 7.22443 12.2248C7.22443 12.233 7.31535 12.6921 7.37388 12.8455C7.46481 13.0666 7.63074 13.2538 7.8376 13.3728C8.00353 13.458 8.17742 13.5 8.35984 13.5C8.55021 13.4918 8.90652 13.3647 9.04745 13.3046C9.97544 12.9307 11.7485 11.7057 12.4281 10.9572C12.5037 10.8796 12.583 10.7911 12.6381 10.7295Z" fill="black"/>
</g>
</svg>
