<svg width="24" height="24" viewBox="0 0 24 24" fill="none" xmlns="http://www.w3.org/2000/svg">
<mask id="mask0_814_16664" style="mask-type:alpha" maskUnits="userSpaceOnUse" x="0" y="0" width="24" height="24">
<rect width="24" height="24" fill="#D9D9D9"/>
</mask>
<g mask="url(#mask0_814_16664)">
<path d="M9.15684 11.009C8.61054 11.009 8.16504 11.4536 8.16504 12.0008C8.16504 12.5471 8.61054 12.9917 9.15684 12.9917C9.70314 12.9917 10.1486 12.5471 10.1486 12.0008C10.1486 11.4536 9.70314 11.009 9.15684 11.009" fill="black"/>
<path fill-rule="evenodd" clip-rule="evenodd" d="M17.185 13.6668C17.185 14.0394 16.8826 14.3418 16.51 14.3418C16.1374 14.3418 15.835 14.0394 15.835 13.6668V12.675H14.638V13.6668C14.638 14.0394 14.3356 14.3418 13.963 14.3418C13.5904 14.3418 13.288 14.0394 13.288 13.6668V12.675H11.3872C11.0956 13.6362 10.2118 14.3418 9.157 14.3418C7.8664 14.3418 6.8161 13.2915 6.8161 12C6.8161 10.7094 7.8664 9.65909 9.157 9.65909C10.2118 9.65909 11.0956 10.3647 11.3872 11.325H16.51C16.8826 11.325 17.185 11.6274 17.185 12V13.6668ZM15.9015 3H8.0994C5.0493 3 3 5.1402 3 8.3253V15.6756C3 18.8607 5.0493 21 8.0994 21H15.9006C18.9507 21 21 18.8607 21 15.6756V8.3253C21 5.1402 18.9507 3 15.9015 3V3Z" fill="black"/>
</g>
</svg>
