<svg width="20" height="20" viewBox="0 0 20 20" fill="none" xmlns="http://www.w3.org/2000/svg">
<mask id="mask0_811_16572" style="mask-type:alpha" maskUnits="userSpaceOnUse" x="0" y="0" width="20" height="20">
<rect width="20" height="20" fill="#D9D9D9"/>
</mask>
<g mask="url(#mask0_811_16572)">
<path fill-rule="evenodd" clip-rule="evenodd" d="M10 20C15.5229 20 20 15.5229 20 10C20 4.47705 15.5229 0 10 0C4.47705 0 0 4.47705 0 10C0 15.5229 4.47705 20 10 20ZM10.5122 9.12817C11.8042 9.41699 12.9985 9.92993 12.9985 11.7192C13 13.075 12.0791 14.0332 10.6582 14.2288V15.324C10.6582 15.7676 10.3271 16 10 16C9.67285 16 9.34229 15.7676 9.34229 15.324V14.2092C7.55322 13.9265 7.19434 12.6599 7.03174 12.0801L7.02051 12.0269C7.01123 11.9802 7 11.9229 7 11.855C7 11.499 7.24219 11.1987 7.60352 11.1082L7.62598 11.1035C7.69971 11.0903 7.76074 11.0796 7.83691 11.0796C8.18604 11.0796 8.46924 11.2927 8.55859 11.6238C8.71143 12.2217 8.93994 12.7544 10.0601 12.7544C10.9233 12.7544 11.438 12.3711 11.438 11.728C11.438 11.2019 11.252 10.9116 10.1973 10.6851L9.45654 10.519C8.33398 10.2744 7.18457 9.78857 7.18457 8.0459C7.18457 7.08813 7.74756 5.9895 9.27734 5.73657V4.66528C9.27734 3.77832 10.5933 3.77832 10.5933 4.66528V5.73022C12.0176 5.95337 12.5312 6.93091 12.7144 7.552C12.7446 7.63672 12.7598 7.72412 12.7598 7.81226C12.7598 8.16772 12.5112 8.46777 12.1543 8.54272C12.0962 8.55493 12.019 8.56885 11.9326 8.56885C11.6001 8.56885 11.3335 8.37988 11.2188 8.06299L11.2095 8.03296C11.1128 7.66943 10.8789 7.18579 9.9668 7.18579C9.19678 7.18579 8.73682 7.50757 8.73682 8.04639C8.73682 8.46143 8.81494 8.77148 9.82764 8.98169L10.5122 9.12817Z" fill="black"/>
</g>
</svg>
