<svg width="20" height="20" viewBox="0 0 20 20" fill="none" xmlns="http://www.w3.org/2000/svg">
<mask id="mask0_811_16580" style="mask-type:alpha" maskUnits="userSpaceOnUse" x="0" y="0" width="20" height="20">
<rect width="20" height="20" fill="#D9D9D9"/>
</mask>
<g mask="url(#mask0_811_16580)">
<path fill-rule="evenodd" clip-rule="evenodd" d="M18.9023 11.58C19.26 11.77 19.536 12.07 19.7301 12.37C20.1083 12.99 20.0776 13.75 19.7097 14.42L18.9943 15.62C18.6162 16.26 17.911 16.66 17.1855 16.66C16.8278 16.66 16.4292 16.56 16.1022 16.36C15.8365 16.19 15.5299 16.13 15.2029 16.13C14.1911 16.13 13.3429 16.96 13.3122 17.95C13.3122 19.1 12.372 20 11.1968 20H9.80692C8.62145 20 7.68125 19.1 7.68125 17.95C7.66081 16.96 6.81259 16.13 5.80085 16.13C5.46361 16.13 5.15702 16.19 4.90153 16.36C4.5745 16.56 4.16572 16.66 3.81825 16.66C3.08245 16.66 2.37729 16.26 1.99917 15.62L1.29402 14.42C0.915896 13.77 0.895456 12.99 1.27358 12.37C1.43709 12.07 1.74368 11.77 2.09115 11.58C2.37729 11.44 2.56125 11.21 2.73498 10.94C3.24596 10.08 2.93937 8.95 2.07071 8.44C1.05897 7.87 0.731943 6.6 1.31446 5.61L1.99917 4.43C2.59191 3.44 3.85913 3.09 4.88109 3.67C5.77019 4.15 6.925 3.83 7.4462 2.98C7.60972 2.7 7.70169 2.4 7.68125 2.1C7.66081 1.71 7.77323 1.34 7.9674 1.04C8.34553 0.42 9.03024 0.02 9.77627 0H11.2172C11.9735 0 12.6582 0.42 13.0363 1.04C13.2203 1.34 13.3429 1.71 13.3122 2.1C13.2918 2.4 13.3838 2.7 13.5473 2.98C14.0685 3.83 15.2233 4.15 16.1226 3.67C17.1344 3.09 18.4118 3.44 18.9943 4.43L19.679 5.61C20.2718 6.6 19.9447 7.87 18.9228 8.44C18.0541 8.95 17.7475 10.08 18.2687 10.94C18.4322 11.21 18.6162 11.44 18.9023 11.58ZM7.60972 10.01C7.60972 11.58 8.9076 12.83 10.5121 12.83C12.1165 12.83 13.3838 11.58 13.3838 10.01C13.3838 8.44 12.1165 7.18 10.5121 7.18C8.9076 7.18 7.60972 8.44 7.60972 10.01Z" fill="black"/>
</g>
</svg>
