<svg width="24" height="24" viewBox="0 0 24 24" fill="none" xmlns="http://www.w3.org/2000/svg">
<mask id="mask0_808_16092" style="mask-type:alpha" maskUnits="userSpaceOnUse" x="0" y="0" width="24" height="24">
<rect width="24" height="24" fill="#757575"/>
</mask>
<g mask="url(#mask0_808_16092)">
<path d="M24 5.25375C23.1174 5.6346 22.1693 5.89193 21.1726 6.00825C22.201 5.40896 22.9704 4.46576 23.3373 3.35462C22.371 3.91354 21.3135 4.30696 20.2107 4.51777C19.4691 3.74666 18.4868 3.23556 17.4164 3.06381C16.3459 2.89206 15.2472 3.06928 14.2907 3.56796C13.3343 4.06663 12.5737 4.85885 12.127 5.82163C11.6803 6.78441 11.5725 7.86388 11.8203 8.89244C9.86244 8.79671 7.94711 8.30114 6.19863 7.4379C4.45016 6.57465 2.90761 5.36302 1.6711 3.88164C1.2483 4.59188 1.0052 5.41535 1.0052 6.29235C1.00473 7.08184 1.20437 7.85924 1.58641 8.55558C1.96846 9.25191 2.52109 9.84565 3.19528 10.2841C2.4134 10.2599 1.64877 10.0541 0.965031 9.684V9.74576C0.964952 10.8531 1.35827 11.9263 2.07823 12.7833C2.7982 13.6404 3.80048 14.2284 4.915 14.4478C4.18968 14.6389 3.42923 14.6671 2.69109 14.5301C3.00555 15.4829 3.61807 16.316 4.44291 16.9129C5.26776 17.5099 6.26363 17.8406 7.29111 17.859C5.5469 19.1924 3.39282 19.9157 1.17537 19.9125C0.782575 19.9126 0.39011 19.8903 0 19.8456C2.25083 21.2549 4.87097 22.0029 7.5469 22C16.6053 22 21.5573 14.6938 21.5573 8.35719C21.5573 8.15132 21.552 7.9434 21.5425 7.73753C22.5057 7.05917 23.3372 6.21916 23.9979 5.25684L24 5.25375V5.25375Z" fill="black"/>
</g>
</svg>
