<svg width="24" height="24" viewBox="0 0 24 24" fill="none" xmlns="http://www.w3.org/2000/svg">
<mask id="mask0_808_16091" style="mask-type:alpha" maskUnits="userSpaceOnUse" x="0" y="0" width="24" height="24">
<rect width="24" height="24" fill="#757575"/>
</mask>
<g mask="url(#mask0_808_16091)">
<path d="M22.38 2.13526L1.12065 10.5139C-0.330214 11.1094 -0.321821 11.9366 0.85446 12.3055L6.31259 14.0457L18.9411 5.90238C19.5383 5.53106 20.0838 5.73082 19.6354 6.13768L9.40378 15.5751H9.40138L9.40378 15.5763L9.02727 21.3263C9.57884 21.3263 9.82225 21.0677 10.1316 20.7625L12.7827 18.1278L18.2972 22.2907C19.314 22.863 20.0443 22.5689 20.2973 21.3287L23.9172 3.8926C24.2877 2.37423 23.3501 1.68674 22.38 2.13526V2.13526Z" fill="black"/>
</g>
</svg>
