<svg width="300" height="56" viewBox="0 0 300 56" fill="none" xmlns="http://www.w3.org/2000/svg">
<path fill-rule="evenodd" clip-rule="evenodd" d="M0.0742695 32.883L0.0742808 32.8829C0.145134 32.32 0.216161 31.7557 0.305233 31.2034C1.68968 22.8504 8.18677 15.9844 16.439 14.1804C19.96 13.4041 23.4702 13.5135 26.9477 14.5193C27.2747 14.6177 27.4273 14.738 27.4273 15.1097C27.4164 17.9196 27.4164 20.7185 27.4164 23.5283C27.4164 23.6147 27.4043 23.6971 27.39 23.795L27.3899 23.7951L27.3899 23.7951C27.3807 23.8583 27.3705 23.928 27.3619 24.0094C27.101 23.8985 26.8508 23.7876 26.6055 23.6789L26.6054 23.6788C26.2462 23.5196 25.8977 23.3651 25.5414 23.2222C18.2485 20.3795 10.0836 25.0371 8.76453 32.7778C7.55451 39.9063 13.1359 46.7833 20.3416 47.166C27.0349 47.5267 32.3764 42.4428 33.2921 36.8887C33.4121 36.1562 33.4775 35.4018 33.4775 34.6583C33.4884 23.2331 33.4884 11.8079 33.4884 0.382663C33.4884 0.317064 33.4829 0.254198 33.4775 0.191332C33.472 0.128465 33.4666 0.0655994 33.4666 0H42.0785C42.0785 3.28544 42.0812 6.5736 42.0839 9.86177C42.0867 13.1499 42.0894 16.4381 42.0894 19.7235C42.0894 21.2873 42.0829 22.851 42.0763 24.415V24.4151V24.4153V24.4154V24.4156V24.4157C42.0622 27.8053 42.0481 31.1964 42.1003 34.5927C42.2638 44.5748 35.0363 53.5947 25.0073 55.4861C14.5094 57.476 5.70131 51.6158 1.94041 43.5908C0.893895 41.3604 0.261628 39.0207 0.0981105 36.5607C0.0919285 36.4677 0.0717238 36.3782 0.0514126 36.2883C0.0359072 36.2196 0.0203396 36.1507 0.0109012 36.0797C0 35.2159 0 34.3413 0 33.4666C0.0252302 33.2726 0.0497396 33.0779 0.0742695 32.883ZM48.4012 55.989C48.3794 55.7922 48.3576 55.5954 48.3576 55.3986C48.3576 52.6012 48.3564 49.8038 48.3552 47.0064L48.3551 46.98C48.3527 41.3677 48.3503 35.7553 48.3576 30.1429C48.3685 22.916 52.9688 16.859 59.8583 15.1971C65.2108 13.907 69.9637 15.2081 74.0189 18.9691C74.1388 19.0784 74.2587 19.1878 74.4113 19.3408C74.5858 19.1768 74.7602 19.0128 74.9237 18.8598C82.2275 12.0046 94.0552 13.9726 98.7209 22.8395C99.8764 25.0371 100.465 27.3877 100.476 29.8695C100.487 38.3428 100.487 46.816 100.487 55.2893C100.487 55.448 100.496 55.6019 100.506 55.7573V55.7574V55.7575V55.7576C100.511 55.8377 100.516 55.9182 100.52 56H91.9077L91.9063 55.9699L91.9063 55.9695C91.8959 55.74 91.8859 55.5197 91.8859 55.2893V30.7005C91.8859 30.285 91.875 29.8586 91.8423 29.4431C91.5807 25.4525 87.4055 22.5333 83.5792 23.6485C80.6468 24.5013 78.7282 27.0378 78.7282 30.1538C78.7209 35.8929 78.7234 41.632 78.7258 47.371V47.3846C78.727 50.2564 78.7282 53.1282 78.7282 56H70.1163C70.1272 55.8578 70.1381 55.7048 70.1381 55.5626C70.1381 52.996 70.1351 50.4294 70.1322 47.8624V47.8616V47.8607V47.8598V47.8589V47.858V47.8553C70.1253 41.8629 70.1185 35.8689 70.149 29.8695C70.1708 25.7805 66.2791 22.5115 61.8423 23.6595C58.899 24.4248 56.9913 27.0378 56.9913 30.1538C56.984 35.7784 56.9864 41.398 56.9889 47.0193V47.0205V47.0218V47.023V47.0242V47.0254C56.9901 49.8377 56.9913 52.6503 56.9913 55.4642C56.9913 55.57 57.0032 55.6797 57.0151 55.7887V55.7887V55.7887V55.7888V55.7888V55.7888C57.0229 55.86 57.0306 55.9308 57.0349 56C54.1471 55.989 51.2702 55.989 48.4042 55.989H48.4012ZM154.706 0.220407C154.699 0.150704 154.693 0.0808188 154.687 0.0109332C151.853 0.0109332 149.019 0.0109332 146.185 0C146.185 0.125732 146.182 0.254198 146.179 0.382663C146.176 0.511128 146.174 0.639594 146.174 0.765326V35.1394C146.174 37.4572 146.577 39.6986 147.373 41.8743C151.635 53.5947 164.793 59.105 176.054 53.8899C184.208 50.1179 189.19 41.2839 188.143 32.4717C187.554 27.4752 185.549 23.1347 181.897 19.6907C176.065 14.2023 169.208 12.4748 161.446 14.4428C161.076 14.5303 160.923 14.6833 160.923 15.0988C160.939 17.19 160.937 19.2812 160.935 21.3725C160.934 22.0692 160.934 22.766 160.934 23.4627C160.934 23.587 160.948 23.7113 160.965 23.8591C160.969 23.8932 160.973 23.9287 160.977 23.9656C161.107 23.9039 161.216 23.855 161.314 23.811L161.314 23.8109C161.372 23.7848 161.426 23.7604 161.479 23.736C165.338 21.8993 169.186 21.8337 173.001 23.8344C179.607 27.3112 181.646 35.5221 177.46 41.7103C174.244 46.4662 168.096 48.4233 162.82 46.3678C158.634 44.7388 154.709 40.4529 154.731 34.4287C154.754 26.4328 154.75 18.4313 154.746 10.4282V10.4275V10.4267V10.4259V10.4252C154.744 7.22361 154.742 4.0218 154.742 0.819992C154.742 0.624685 154.724 0.42332 154.706 0.220407ZM107.704 55.9891C107.707 55.4972 107.712 55.0053 107.717 54.5134C107.727 53.5293 107.736 52.5452 107.736 51.5611C107.743 50.7464 107.741 49.9365 107.739 49.125V49.1238V49.1226V49.1214C107.737 48.7144 107.736 48.3071 107.736 47.8985C107.736 47.7782 107.744 47.6579 107.753 47.5276L107.753 47.5266L107.753 47.5262L107.753 47.5258C107.759 47.4435 107.765 47.3572 107.769 47.2644H108.456H130.258C131.577 47.2644 132.7 46.2804 132.853 45.0012C133.005 43.6892 132.166 42.41 130.912 42.082C129.811 41.7868 128.699 41.5135 127.587 41.2402C126.166 40.8791 124.744 40.5244 123.322 40.1697C119.793 39.2894 116.266 38.4096 112.762 37.4354C109.219 36.4514 106.919 33.9696 105.774 30.5147C103.321 23.1347 108.674 15.6017 116.435 15.5361C121.454 15.4983 126.473 15.5076 131.492 15.5169C133.722 15.5211 135.953 15.5252 138.183 15.5252C138.283 15.5252 138.376 15.5315 138.491 15.5393C138.528 15.5418 138.566 15.5444 138.608 15.5471V24.1734C138.546 24.1767 138.481 24.181 138.415 24.1854C138.263 24.1955 138.103 24.2062 137.943 24.2062H116.741C115.77 24.2062 114.975 24.556 114.353 25.3104C113.252 26.6224 113.797 28.9731 115.705 29.4432C118.514 30.1291 121.311 30.8532 124.109 31.5774C126.707 32.25 129.306 32.9227 131.915 33.565C134.15 34.1117 136.232 34.9207 137.867 36.5607C141.072 39.7642 142.326 43.6236 140.974 47.9969C139.611 52.4249 136.483 55.0707 131.893 55.8798C131.719 55.9126 131.544 55.9563 131.37 56C123.48 55.9891 115.591 55.9891 107.712 55.9891H107.704ZM265.558 54.4311L265.558 54.4482C265.555 54.9618 265.552 55.4754 265.552 55.9891C268.419 55.9891 271.297 55.9891 274.164 55.9781V40.8465C274.262 40.8419 274.346 40.8352 274.423 40.8291C274.526 40.8209 274.616 40.8137 274.709 40.8137C275.559 40.8137 276.409 40.8078 277.259 40.8019H277.26H277.261C279.244 40.7881 281.225 40.7744 283.201 40.8356C286.286 40.934 288.717 42.3225 290.483 44.87C291.126 45.7993 291.388 46.8379 291.388 47.9641C291.381 49.7486 291.383 51.5283 291.386 53.3096V53.3108V53.312C291.387 54.2037 291.388 55.0958 291.388 55.9891H300V46.6958C299.994 46.6587 299.986 46.6216 299.978 46.5846C299.972 46.5607 299.966 46.5368 299.96 46.513C299.939 46.4318 299.919 46.3506 299.913 46.2694C299.727 44.2905 299.15 42.4537 298.147 40.7481C296.424 37.829 294.048 35.5767 291.094 33.9367C290.908 33.8383 290.701 33.5759 290.701 33.3901C290.699 33.0908 290.695 32.7915 290.691 32.4923L290.691 32.4777V32.4766C290.676 31.2621 290.66 30.0504 290.756 28.8528C290.963 26.2725 292.315 24.4139 294.691 23.408C295.218 23.188 295.788 23.0713 296.37 22.9523C296.656 22.8939 296.944 22.8349 297.231 22.763C297.231 22.7598 297.233 22.7512 297.235 22.739L297.236 22.7388C297.242 22.7086 297.253 22.6565 297.253 22.6099V22.5869C297.253 19.8394 297.253 17.1028 297.264 14.3553C297.264 13.9399 297.057 13.9289 296.751 13.9508C290.734 14.3444 286.406 17.3182 283.67 22.6536C282.351 25.2229 281.98 28.0109 282.078 30.8754C282.086 31.0638 282.083 31.2521 282.081 31.4436V31.4442V31.4448L282.08 31.5095C282.08 31.5459 282.079 31.5824 282.079 31.6191C282.079 31.6589 282.078 31.6989 282.078 31.7392H274.132V14.1804H265.563V14.9348V52.8731C265.563 53.3867 265.561 53.9003 265.558 54.414L265.558 54.4311ZM240.262 55.9891C240.262 54.4584 240.264 52.9278 240.267 51.3971L240.267 51.3716C240.27 49.8495 240.273 48.3273 240.273 46.8052V15.5361V14.7271H248.852V47.2097H259.339V55.9891H240.262ZM201.541 14.4975H192.94V15.1644C192.94 17.1014 192.938 19.0383 192.936 20.9752C192.932 25.8169 192.927 30.6586 192.951 35.5002C192.972 41.6666 195.283 46.8708 199.982 50.8177C206.01 55.8907 212.889 57.1262 220.28 54.3273C228.107 51.3534 233.307 43.7111 233.241 35.1613C233.211 30.4776 233.218 25.7993 233.224 21.1188C233.227 19.1127 233.23 17.1063 233.23 15.0988C233.23 14.9707 233.221 14.8427 233.212 14.7116C233.207 14.6412 233.201 14.57 233.198 14.4975H224.607V15.23C224.607 17.4896 224.609 19.7491 224.61 22.0086C224.612 26.5277 224.615 31.0468 224.607 35.5658C224.597 40.9669 220.541 45.8431 215.309 46.8052C207.994 48.15 201.541 42.7599 201.541 35.2925V15.1754V14.4975Z" fill="url(#paint0_linear_825_10887)"/>
<defs>
<linearGradient id="paint0_linear_825_10887" x1="0.499998" y1="34.5" x2="299" y2="34.5" gradientUnits="userSpaceOnUse">
<stop stop-color="#3490E3"/>
<stop offset="1" stop-color="#D0318E"/>
</linearGradient>
</defs>
</svg>
