<svg width="0" height="0" class="hidden">
  <symbol xmlns="http://www.w3.org/2000/svg" viewBox="0 0 24 24" id="ic-login">
    <path d="M9.325 16.275C9.14167 16.0583 9.05 15.8123 9.05 15.537C9.05 15.2623 9.14167 15.0333 9.325 14.85L11.175 13H4C3.71667 13 3.47933 12.904 3.288 12.712C3.096 12.5207 3 12.2833 3 12C3 11.7167 3.096 11.479 3.288 11.287C3.47933 11.0957 3.71667 11 4 11H11.175L9.325 9.15C9.125 8.95 9.025 8.71267 9.025 8.438C9.025 8.16267 9.125 7.925 9.325 7.725C9.50833 7.525 9.73767 7.425 10.013 7.425C10.2877 7.425 10.5167 7.51667 10.7 7.7L14.3 11.3C14.4 11.4 14.471 11.5083 14.513 11.625C14.5543 11.7417 14.575 11.8667 14.575 12C14.575 12.1333 14.5543 12.2583 14.513 12.375C14.471 12.4917 14.4 12.6 14.3 12.7L10.7 16.3C10.5 16.5 10.2667 16.5917 10 16.575C9.73333 16.5583 9.50833 16.4583 9.325 16.275V16.275ZM13 21C12.7167 21 12.4793 20.904 12.288 20.712C12.096 20.5207 12 20.2833 12 20C12 19.7167 12.096 19.4793 12.288 19.288C12.4793 19.096 12.7167 19 13 19H19V5H13C12.7167 5 12.4793 4.904 12.288 4.712C12.096 4.52067 12 4.28333 12 4C12 3.71667 12.096 3.479 12.288 3.287C12.4793 3.09567 12.7167 3 13 3H19C19.55 3 20.021 3.19567 20.413 3.587C20.8043 3.979 21 4.45 21 5V19C21 19.55 20.8043 20.021 20.413 20.413C20.021 20.8043 19.55 21 19 21H13Z"></path>
  </symbol>
  <symbol xmlns="http://www.w3.org/2000/svg" viewBox="0 0 24 27" id="ic-logout">
      <path d="M8.84496 13.6246C8.84496 13.2108 9.17791 12.8835 9.59899 12.8835H15.4745V8.27334C15.4745 5.9153 13.5258 4 11.1364 4H6.35767C3.9585 4 2 5.9153 2 8.28296V18.9759C2 21.334 3.94871 23.2493 6.34787 23.2493H11.1168C13.5258 23.2493 15.4745 21.3243 15.4745 18.9663V14.3657H9.59899C9.17791 14.3657 8.84496 14.0289 8.84496 13.6246"></path>
      <path d="M21.7787 13.0955L18.9684 10.2947C18.6796 10.006 18.208 10.006 17.9193 10.3043C17.6305 10.5931 17.6305 11.0647 17.9193 11.3534L19.4592 12.8837H15.4746V14.3659H19.4592L17.9193 15.8963C17.6305 16.185 17.6305 16.6566 17.9193 16.9453C18.0636 17.0897 18.2561 17.1667 18.4486 17.1667C18.6315 17.1667 18.824 17.0897 18.9684 16.9453L21.7787 14.1446C21.9231 14.0098 22.0001 13.8173 22.0001 13.6248C22.0001 13.4227 21.9231 13.2399 21.7787 13.0955"></path>
  </symbol>
  <symbol xmlns="http://www.w3.org/2000/svg" viewBox="0 0 20 20" id="ic-loyalty">
    <path fill-rule="evenodd" clip-rule="evenodd" d="M10 20C15.5229 20 20 15.5229 20 10C20 4.47705 15.5229 0 10 0C4.47705 0 0 4.47705 0 10C0 15.5229 4.47705 20 10 20ZM5.13623 10.2234C5.07471 10.417 5.04395 10.6199 5 10.8191V12.1021L5.07861 12.4734C5.4624 14.1987 6.96045 15.6235 8.7002 15.9126C8.90332 15.9473 9.11084 15.9644 9.31592 15.9893H9.68018L9.87305 15.9678C10.0112 15.9534 10.1504 15.9387 10.2866 15.9126C11.7021 15.6409 12.7607 14.8708 13.4766 13.6262C13.6055 13.4016 13.7109 13.1685 13.7944 12.9275C13.8848 12.6658 13.9492 12.3948 13.9883 12.1155C13.9961 12.0542 14 11.9949 14 11.9336V4.0957C14 4.06323 13.998 4.03247 13.9961 4H12.1738L12.1782 4.05054L12.1797 4.08618V5.92456C12.1802 7.76294 12.1807 9.60107 12.1777 11.4395C12.1777 11.6233 12.1606 11.811 12.124 11.991C11.8804 13.1858 10.6895 14.2678 9.18555 14.1011C7.8042 13.948 6.43848 12.531 6.91455 10.7634C7.34961 9.13574 9.20264 8.32568 10.7236 9.08398C10.7661 9.10327 10.8081 9.12427 10.8657 9.15308L10.8687 9.11743C10.8716 9.08569 10.8735 9.0603 10.8735 9.03613V8.58643C10.873 8.13647 10.8726 7.68579 10.8755 7.23608C10.8755 7.19043 10.8677 7.16113 10.8462 7.14038C10.8311 7.12524 10.8086 7.11475 10.7773 7.10596C10.0811 6.9126 9.37549 6.85693 8.67139 7.0083C6.87402 7.39526 5.69043 8.47144 5.13623 10.2234Z"></path>
  </symbol>
  <symbol xmlns="http://www.w3.org/2000/svg" viewBox="0 0 24 27" id="ic-notify">
    <path d="M19.2695 12.6456C18.539 11.7925 18.2071 11.0523 18.2071 9.79633V9.3703C18.2071 7.73265 17.8314 6.67916 17.0125 5.62466C15.7502 3.98702 13.6254 3 11.5452 3H11.4558C9.41935 3 7.36106 3.9417 6.077 5.51186C5.21333 6.58852 4.79392 7.68834 4.79392 9.3703V9.79633C4.79392 11.0523 4.48384 11.7925 3.73049 12.6456C3.1779 13.2741 3 14.0808 3 14.956C3 15.8302 3.28822 16.6601 3.86367 17.3339C4.61602 18.1417 5.67846 18.6573 6.76375 18.747C8.33505 18.9263 9.90634 18.9937 11.5005 18.9937C13.0937 18.9937 14.6659 18.8809 16.2372 18.747C17.3215 18.6573 18.384 18.1417 19.1373 17.3339C19.7128 16.6601 20 15.8302 20 14.956C20 14.0808 19.8231 13.2741 19.2695 12.6456"></path>
    <path d="M9.46324 20.228C9.03588 20.3267 8.57373 20.5573 8.57373 21.0609C8.59858 21.5403 8.87984 21.9654 9.26943 22.2343C9.77233 22.6281 10.3637 22.8768 10.9829 22.9665C11.3128 23.0118 11.6487 23.0108 11.9906 22.9665C12.6088 22.8768 13.2002 22.6281 13.704 22.2353C14.0926 21.9654 14.3739 21.5403 14.3988 21.0609C14.3988 20.5573 13.9366 20.3267 13.5092 20.228C13.0093 20.1222 9.96315 20.1222 9.46324 20.228Z"></path>
  </symbol>
  <symbol xmlns="http://www.w3.org/2000/svg" viewBox="0 0 20 20" id="ic-orders">
    <path fill-rule="evenodd" clip-rule="evenodd" d="M17.761 10.001C17.761 10.8145 18.429 11.4764 19.25 11.4764C19.664 11.4764 20 11.8093 20 12.2195V14.8958C20 17.159 18.142 19 15.858 19H4.143C1.859 19 0 17.159 0 14.8958V12.2195C0 11.8093 0.336 11.4764 0.75 11.4764C1.572 11.4764 2.24 10.8145 2.24 10.001C2.24 9.2083 1.599 8.6118 0.75 8.6118C0.551 8.6118 0.361 8.53352 0.22 8.39381C0.079 8.2541 0 8.06485 0 7.86866L0.002 5.10514C0.002 2.84201 1.86 1 4.144 1H15.856C18.14 1 19.999 2.84201 19.999 5.10514L20 7.78245C20 7.97864 19.921 8.16889 19.781 8.30761C19.64 8.44732 19.45 8.5256 19.25 8.5256C18.429 8.5256 17.761 9.18749 17.761 10.001ZM12.6381 10.7295C12.6675 10.6967 12.69 10.6715 12.7015 10.6597C12.8424 10.4725 12.9168 10.2427 12.9168 9.99592C12.9168 9.77483 12.8509 9.55375 12.7179 9.37525C12.6327 9.251 12.4366 9.05208 12.4366 9.05208C11.7405 8.278 10.0084 7.11308 9.13042 6.73858C9.13042 6.73042 8.60818 6.50875 8.35984 6.5H8.32688C7.94557 6.5 7.58926 6.72167 7.40684 7.07867C7.33242 7.2249 7.26278 7.58118 7.22886 7.75467C7.21746 7.81302 7.21009 7.85069 7.20795 7.85275C7.1335 8.36258 7.0835 9.14542 7.0835 10.0047C7.0835 10.9065 7.1335 11.7226 7.22443 12.2248C7.22443 12.233 7.31535 12.6921 7.37388 12.8455C7.46481 13.0666 7.63074 13.2538 7.8376 13.3728C8.00353 13.458 8.17742 13.5 8.35984 13.5C8.55021 13.4918 8.90652 13.3647 9.04745 13.3046C9.97544 12.9307 11.7485 11.7057 12.4281 10.9572C12.5037 10.8796 12.583 10.7911 12.6381 10.7295Z"></path>
  </symbol>
  <symbol xmlns="http://www.w3.org/2000/svg" viewBox="0 0 24 24" id="ic-password">
      <path d="M9.15684 11.009C8.61054 11.009 8.16504 11.4536 8.16504 12.0008C8.16504 12.5471 8.61054 12.9917 9.15684 12.9917C9.70314 12.9917 10.1486 12.5471 10.1486 12.0008C10.1486 11.4536 9.70314 11.009 9.15684 11.009"></path>
    <path fill-rule="evenodd" clip-rule="evenodd" d="M17.185 13.6668C17.185 14.0394 16.8826 14.3418 16.51 14.3418C16.1374 14.3418 15.835 14.0394 15.835 13.6668V12.675H14.638V13.6668C14.638 14.0394 14.3356 14.3418 13.963 14.3418C13.5904 14.3418 13.288 14.0394 13.288 13.6668V12.675H11.3872C11.0956 13.6362 10.2118 14.3418 9.157 14.3418C7.8664 14.3418 6.8161 13.2915 6.8161 12C6.8161 10.7094 7.8664 9.65909 9.157 9.65909C10.2118 9.65909 11.0956 10.3647 11.3872 11.325H16.51C16.8826 11.325 17.185 11.6274 17.185 12V13.6668ZM15.9015 3H8.0994C5.0493 3 3 5.1402 3 8.3253V15.6756C3 18.8607 5.0493 21 8.0994 21H15.9006C18.9507 21 21 18.8607 21 15.6756V8.3253C21 5.1402 18.9507 3 15.9015 3V3Z"></path>
  </symbol>
  <symbol xmlns="http://www.w3.org/2000/svg" viewBox="0 0 20 20" id="ic-pricing">
    <path fill-rule="evenodd" clip-rule="evenodd" d="M10 20C15.5229 20 20 15.5229 20 10C20 4.47705 15.5229 0 10 0C4.47705 0 0 4.47705 0 10C0 15.5229 4.47705 20 10 20ZM10.5122 9.12817C11.8042 9.41699 12.9985 9.92993 12.9985 11.7192C13 13.075 12.0791 14.0332 10.6582 14.2288V15.324C10.6582 15.7676 10.3271 16 10 16C9.67285 16 9.34229 15.7676 9.34229 15.324V14.2092C7.55322 13.9265 7.19434 12.6599 7.03174 12.0801L7.02051 12.0269C7.01123 11.9802 7 11.9229 7 11.855C7 11.499 7.24219 11.1987 7.60352 11.1082L7.62598 11.1035C7.69971 11.0903 7.76074 11.0796 7.83691 11.0796C8.18604 11.0796 8.46924 11.2927 8.55859 11.6238C8.71143 12.2217 8.93994 12.7544 10.0601 12.7544C10.9233 12.7544 11.438 12.3711 11.438 11.728C11.438 11.2019 11.252 10.9116 10.1973 10.6851L9.45654 10.519C8.33398 10.2744 7.18457 9.78857 7.18457 8.0459C7.18457 7.08813 7.74756 5.9895 9.27734 5.73657V4.66528C9.27734 3.77832 10.5933 3.77832 10.5933 4.66528V5.73022C12.0176 5.95337 12.5312 6.93091 12.7144 7.552C12.7446 7.63672 12.7598 7.72412 12.7598 7.81226C12.7598 8.16772 12.5112 8.46777 12.1543 8.54272C12.0962 8.55493 12.019 8.56885 11.9326 8.56885C11.6001 8.56885 11.3335 8.37988 11.2188 8.06299L11.2095 8.03296C11.1128 7.66943 10.8789 7.18579 9.9668 7.18579C9.19678 7.18579 8.73682 7.50757 8.73682 8.04639C8.73682 8.46143 8.81494 8.77148 9.82764 8.98169L10.5122 9.12817Z"></path>
  </symbol>
  <symbol xmlns="http://www.w3.org/2000/svg" viewBox="0 0 20 20" id="ic-settings">
    <path fill-rule="evenodd" clip-rule="evenodd" d="M18.9023 11.58C19.26 11.77 19.536 12.07 19.7301 12.37C20.1083 12.99 20.0776 13.75 19.7097 14.42L18.9943 15.62C18.6162 16.26 17.911 16.66 17.1855 16.66C16.8278 16.66 16.4292 16.56 16.1022 16.36C15.8365 16.19 15.5299 16.13 15.2029 16.13C14.1911 16.13 13.3429 16.96 13.3122 17.95C13.3122 19.1 12.372 20 11.1968 20H9.80692C8.62145 20 7.68125 19.1 7.68125 17.95C7.66081 16.96 6.81259 16.13 5.80085 16.13C5.46361 16.13 5.15702 16.19 4.90153 16.36C4.5745 16.56 4.16572 16.66 3.81825 16.66C3.08245 16.66 2.37729 16.26 1.99917 15.62L1.29402 14.42C0.915896 13.77 0.895456 12.99 1.27358 12.37C1.43709 12.07 1.74368 11.77 2.09115 11.58C2.37729 11.44 2.56125 11.21 2.73498 10.94C3.24596 10.08 2.93937 8.95 2.07071 8.44C1.05897 7.87 0.731943 6.6 1.31446 5.61L1.99917 4.43C2.59191 3.44 3.85913 3.09 4.88109 3.67C5.77019 4.15 6.925 3.83 7.4462 2.98C7.60972 2.7 7.70169 2.4 7.68125 2.1C7.66081 1.71 7.77323 1.34 7.9674 1.04C8.34553 0.42 9.03024 0.02 9.77627 0H11.2172C11.9735 0 12.6582 0.42 13.0363 1.04C13.2203 1.34 13.3429 1.71 13.3122 2.1C13.2918 2.4 13.3838 2.7 13.5473 2.98C14.0685 3.83 15.2233 4.15 16.1226 3.67C17.1344 3.09 18.4118 3.44 18.9943 4.43L19.679 5.61C20.2718 6.6 19.9447 7.87 18.9228 8.44C18.0541 8.95 17.7475 10.08 18.2687 10.94C18.4322 11.21 18.6162 11.44 18.9023 11.58ZM7.60972 10.01C7.60972 11.58 8.9076 12.83 10.5121 12.83C12.1165 12.83 13.3838 11.58 13.3838 10.01C13.3838 8.44 12.1165 7.18 10.5121 7.18C8.9076 7.18 7.60972 8.44 7.60972 10.01Z"></path>
  </symbol>
  <symbol xmlns="http://www.w3.org/2000/svg" viewBox="0 0 24 24" id="ic-tg">
    <path d="M22.38 2.13526L1.12065 10.5139C-0.330214 11.1094 -0.321821 11.9366 0.85446 12.3055L6.31259 14.0457L18.9411 5.90238C19.5383 5.53106 20.0838 5.73082 19.6354 6.13768L9.40378 15.5751H9.40138L9.40378 15.5763L9.02727 21.3263C9.57884 21.3263 9.82225 21.0677 10.1316 20.7625L12.7827 18.1278L18.2972 22.2907C19.314 22.863 20.0443 22.5689 20.2973 21.3287L23.9172 3.8926C24.2877 2.37423 23.3501 1.68674 22.38 2.13526V2.13526Z"></path>
  </symbol>
  <symbol xmlns="http://www.w3.org/2000/svg" viewBox="0 0 24 24" id="ic-tw">
    <path d="M24 5.25375C23.1174 5.6346 22.1693 5.89193 21.1726 6.00825C22.201 5.40896 22.9704 4.46576 23.3373 3.35462C22.371 3.91354 21.3135 4.30696 20.2107 4.51777C19.4691 3.74666 18.4868 3.23556 17.4164 3.06381C16.3459 2.89206 15.2472 3.06928 14.2907 3.56796C13.3343 4.06663 12.5737 4.85885 12.127 5.82163C11.6803 6.78441 11.5725 7.86388 11.8203 8.89244C9.86244 8.79671 7.94711 8.30114 6.19863 7.4379C4.45016 6.57465 2.90761 5.36302 1.6711 3.88164C1.2483 4.59188 1.0052 5.41535 1.0052 6.29235C1.00473 7.08184 1.20437 7.85924 1.58641 8.55558C1.96846 9.25191 2.52109 9.84565 3.19528 10.2841C2.4134 10.2599 1.64877 10.0541 0.965031 9.684V9.74576C0.964952 10.8531 1.35827 11.9263 2.07823 12.7833C2.7982 13.6404 3.80048 14.2284 4.915 14.4478C4.18968 14.6389 3.42923 14.6671 2.69109 14.5301C3.00555 15.4829 3.61807 16.316 4.44291 16.9129C5.26776 17.5099 6.26363 17.8406 7.29111 17.859C5.5469 19.1924 3.39282 19.9157 1.17537 19.9125C0.782575 19.9126 0.39011 19.8903 0 19.8456C2.25083 21.2549 4.87097 22.0029 7.5469 22C16.6053 22 21.5573 14.6938 21.5573 8.35719C21.5573 8.15132 21.552 7.9434 21.5425 7.73753C22.5057 7.05917 23.3372 6.21916 23.9979 5.25684L24 5.25375V5.25375Z"></path>
  </symbol>
  <symbol xmlns="http://www.w3.org/2000/svg" viewBox="0 0 24 24" id="ic-user">
    <path d="M4 19.5749C4 22.2949 7.66237 22.9999 12 22.9999C16.3146 22.9999 20 22.3199 20 19.5989C20 16.8788 16.3386 16.1738 12 16.1738C7.68538 16.1738 4 16.8538 4 19.5749Z"></path>
      <path d="M12 13.5831C14.9391 13.5831 17.294 11.2281 17.294 8.29105C17.294 5.35402 14.9391 3 12 3C9.06194 3 6.70605 5.35402 6.70605 8.29105C6.70605 11.2281 9.06194 13.5831 12 13.5831"></path>
  </symbol>
  <symbol xmlns="http://www.w3.org/2000/svg" viewBox="0 0 20 20" id="ic-api">
    <path d="M15.9189 12.4421C15.6599 12.7063 15.5409 13.0884 15.5999 13.4631L16.4889 18.642C16.5639 19.081 16.3879 19.5252 16.0389 19.7789C15.6969 20.042 15.2419 20.0736 14.8689 19.8631L10.4399 17.4315C10.2859 17.3452 10.1149 17.2989 9.93988 17.2936H9.66888C9.57488 17.3084 9.48288 17.3399 9.39888 17.3884L4.96888 19.8315C4.74988 19.9473 4.50188 19.9884 4.25888 19.9473C3.66688 19.8294 3.27188 19.2357 3.36888 18.6094L4.25888 13.4305C4.31788 13.0526 4.19888 12.6684 3.93988 12.4L0.328876 8.71576C0.0268758 8.40734 -0.0781242 7.94418 0.0598758 7.52629C0.193876 7.10945 0.535876 6.80524 0.948876 6.73682L5.91888 5.97787C6.29688 5.93682 6.62888 5.69472 6.79888 5.33682L8.98888 0.610524C9.04088 0.505261 9.10788 0.40842 9.18888 0.326315L9.27888 0.252631C9.32588 0.197894 9.37988 0.152631 9.43988 0.115789L9.54888 0.073684L9.71888 0H10.1399C10.5159 0.0410525 10.8469 0.277894 11.0199 0.631577L13.2389 5.33682C13.3989 5.68103 13.7099 5.91998 14.0689 5.97787L19.0389 6.73682C19.4589 6.79998 19.8099 7.10524 19.9489 7.52629C20.0799 7.94839 19.9669 8.41155 19.6589 8.71576L15.9189 12.4421Z"></path>
  </symbol>
  <symbol xmlns="http://www.w3.org/2000/svg" viewBox="0 0 24 24" id="ic-arrow-left">
    <path fill-rule="evenodd" clip-rule="evenodd" d="M15.7071 18.7071C16.0976 18.3166 16.0976 17.6834 15.7071 17.2929L10.4142 12L15.7071 6.70711C16.0976 6.31658 16.0976 5.68342 15.7071 5.29289C15.3166 4.90237 14.6834 4.90237 14.2929 5.29289L8.29289 11.2929C7.90237 11.6834 7.90237 12.3166 8.29289 12.7071L14.2929 18.7071C14.6834 19.0976 15.3166 19.0976 15.7071 18.7071Z"></path>
  </symbol>
  <symbol xmlns="http://www.w3.org/2000/svg" viewBox="0 0 24 24" id="ic-arrow-right">
    <path fill-rule="evenodd" clip-rule="evenodd" d="M8.29289 5.29289C7.90237 5.68342 7.90237 6.31658 8.29289 6.70711L13.5858 12L8.29289 17.2929C7.90237 17.6834 7.90237 18.3166 8.29289 18.7071C8.68342 19.0976 9.31658 19.0976 9.70711 18.7071L15.7071 12.7071C16.0976 12.3166 16.0976 11.6834 15.7071 11.2929L9.70711 5.29289C9.31658 4.90237 8.68342 4.90237 8.29289 5.29289Z"></path>
  </symbol>
  <symbol xmlns="http://www.w3.org/2000/svg" viewBox="0 0 20 20" id="ic-benefits">
    <path fill-rule="evenodd" clip-rule="evenodd" d="M18.3992 7.14538L19.1194 7.86538C19.6897 8.42538 19.9998 9.18538 19.9998 9.98538C20.0098 10.7854 19.6997 11.5464 19.1395 12.1154C19.1328 12.1227 19.1261 12.1292 19.1194 12.1356C19.1161 12.1388 19.1128 12.142 19.1094 12.1454L18.3992 12.8554C18.1191 13.1354 17.959 13.5154 17.959 13.9164V14.9454C17.959 16.6054 16.6085 17.9564 14.9479 17.9564H13.9176C13.5174 17.9564 13.1373 18.1154 12.8572 18.3954L12.1369 19.1154C11.5467 19.7064 10.7764 19.9954 10.0061 19.9954C9.23586 19.9954 8.46558 19.7064 7.87537 19.1264L7.14511 18.3954C6.865 18.1154 6.48487 17.9564 6.08472 17.9564H5.05435C3.39375 17.9564 2.04326 16.6054 2.04326 14.9454V13.9164C2.04326 13.5154 1.8832 13.1354 1.6031 12.8454L0.882836 12.1354C-0.287588 10.9664 -0.297592 9.05538 0.872832 7.87638L1.6031 7.14538C1.8832 6.86538 2.04326 6.48538 2.04326 6.07538V5.05538C2.04326 3.39538 3.39375 2.04638 5.05435 2.04638H6.08472C6.48487 2.04638 6.865 1.88538 7.14511 1.60538L7.86537 0.885378C9.03579 -0.293622 10.9465 -0.293622 12.1269 0.876378L12.8572 1.60538C13.1373 1.88538 13.5174 2.04638 13.9176 2.04638H14.9479C16.6085 2.04638 17.959 3.39538 17.959 5.05538V6.08638C17.959 6.48538 18.1191 6.86538 18.3992 7.14538ZM7.42521 13.4454C7.66529 13.4454 7.88537 13.3554 8.04543 13.1854L13.1873 8.04638C13.5274 7.70638 13.5274 7.14538 13.1873 6.80538C12.8472 6.46638 12.297 6.46638 11.9569 6.80538L6.81499 11.9454C6.47486 12.2854 6.47486 12.8454 6.81499 13.1854C6.97504 13.3554 7.19512 13.4454 7.42521 13.4454ZM11.6968 12.5654C11.6968 13.0554 12.0869 13.4454 12.5771 13.4454C13.0572 13.4454 13.4474 13.0554 13.4474 12.5654C13.4474 12.0864 13.0572 11.6954 12.5771 11.6954C12.0869 11.6954 11.6968 12.0864 11.6968 12.5654ZM7.43521 6.55538C7.91539 6.55538 8.30553 6.94538 8.30553 7.42538C8.30553 7.91638 7.91539 8.30538 7.43521 8.30538C6.95504 8.30538 6.55489 7.91638 6.55489 7.42538C6.55489 6.94538 6.95504 6.55538 7.43521 6.55538Z"></path>
  </symbol>
  <symbol xmlns="http://www.w3.org/2000/svg" viewBox="0 0 12 12" id="ic-check">
    <path fill-rule="evenodd" clip-rule="evenodd" d="M5.319 7.747L8.169 4.897C8.373 4.693 8.373 4.363 8.169 4.153C7.965 3.949 7.629 3.949 7.425 4.153L4.947 6.631L3.897 5.581C3.693 5.377 3.357 5.377 3.153 5.581C2.949 5.785 2.949 6.115 3.153 6.325L4.581 7.747C4.683 7.849 4.815 7.897 4.947 7.897C5.085 7.897 5.217 7.849 5.319 7.747Z"></path>
  </symbol>
  <symbol xmlns="http://www.w3.org/2000/svg" viewBox="0 0 24 24" id="ic-close">
    <path fill-rule="evenodd" clip-rule="evenodd" d="M19.9571 5.70711C20.3476 5.31658 20.3476 4.68342 19.9571 4.29289C19.5666 3.90237 18.9334 3.90237 18.5429 4.29289L12 10.8358L5.70711 4.54289C5.31658 4.15237 4.68342 4.15237 4.29289 4.54289C3.90237 4.93342 3.90237 5.56658 4.29289 5.95711L10.5858 12.25L4.29289 18.5429C3.90237 18.9334 3.90237 19.5666 4.29289 19.9571C4.68342 20.3476 5.31658 20.3476 5.70711 19.9571L12.25 13.4142L18.5429 19.7071C18.9334 20.0976 19.5666 20.0976 19.9571 19.7071C20.3476 19.3166 20.3476 18.6834 19.9571 18.2929L13.6642 12L19.9571 5.70711Z"></path>
  </symbol>
  <symbol xmlns="http://www.w3.org/2000/svg" viewBox="0 0 20 20" id="ic-contacts">
    <path fill-rule="evenodd" clip-rule="evenodd" d="M9.5071 10.4973C13.7061 14.6951 14.6587 9.83865 17.3323 12.5103C19.9098 15.0871 21.3912 15.6034 18.1255 18.8681C17.7165 19.1969 15.1175 23.1519 5.98379 14.0207C-3.15103 4.88842 0.801668 2.28678 1.13049 1.87784C4.40407 -1.39595 4.91143 0.0940873 7.48894 2.67087C10.1625 5.34368 5.30806 6.29938 9.5071 10.4973Z"></path>
  </symbol>
  <symbol xmlns="http://www.w3.org/2000/svg" viewBox="0 0 24 24" id="ic-d">
    <path d="M20.317 4.49197C18.787 3.80197 17.147 3.29197 15.432 3.00197C15.4167 2.99904 15.4009 3.00093 15.3868 3.00738C15.3726 3.01383 15.3608 3.02452 15.353 3.03797C15.143 3.40697 14.909 3.88797 14.745 4.26797C12.9261 3.99621 11.0769 3.99621 9.25799 4.26797C9.07533 3.84683 8.86934 3.4362 8.64099 3.03797C8.63325 3.02436 8.62154 3.01342 8.60743 3.00663C8.59331 2.99984 8.57746 2.99752 8.56199 2.99997C6.84799 3.28997 5.20799 3.79997 3.67699 4.49097C3.66382 4.4965 3.65265 4.50592 3.64499 4.51797C0.532992 9.09297 -0.320008 13.555 0.0989923 17.961C0.100158 17.9718 0.103508 17.9822 0.108837 17.9917C0.114167 18.0011 0.121364 18.0094 0.129992 18.016C1.94638 19.3384 3.97233 20.3458 6.12299 20.996C6.13798 21.0006 6.15402 21.0006 6.16901 20.9959C6.18399 20.9913 6.19723 20.9823 6.20699 20.97C6.66979 20.351 7.07989 19.6944 7.43299 19.007C7.43789 18.9976 7.44072 18.9872 7.44127 18.9766C7.44183 18.9661 7.44011 18.9555 7.43622 18.9456C7.43233 18.9358 7.42637 18.9268 7.41874 18.9195C7.41111 18.9121 7.40199 18.9065 7.39199 18.903C6.746 18.6597 6.12008 18.3661 5.51999 18.025C5.50921 18.0188 5.50012 18.0101 5.49355 17.9995C5.48698 17.989 5.48312 17.977 5.48233 17.9646C5.48153 17.9522 5.48383 17.9398 5.48901 17.9286C5.49418 17.9173 5.50208 17.9075 5.51199 17.9C5.63799 17.807 5.76399 17.71 5.88399 17.613C5.89479 17.6043 5.9078 17.5987 5.92158 17.5969C5.93535 17.5952 5.94934 17.5973 5.96199 17.603C9.88899 19.367 14.142 19.367 18.023 17.603C18.0357 17.5969 18.0498 17.5946 18.0638 17.5961C18.0778 17.5977 18.091 17.6032 18.102 17.612C18.222 17.71 18.347 17.807 18.474 17.9C18.484 17.9073 18.492 17.917 18.4974 17.9282C18.5027 17.9394 18.5052 17.9517 18.5046 17.9641C18.504 17.9765 18.5004 17.9885 18.494 17.9991C18.4876 18.0098 18.4787 18.0186 18.468 18.025C17.87 18.369 17.248 18.66 16.595 18.902C16.585 18.9056 16.5758 18.9114 16.5682 18.9188C16.5606 18.9263 16.5546 18.9353 16.5507 18.9452C16.5468 18.9551 16.5451 18.9658 16.5457 18.9764C16.5463 18.9871 16.5491 18.9975 16.554 19.007C16.914 19.694 17.326 20.348 17.779 20.969C17.7884 20.9817 17.8015 20.9912 17.8166 20.9963C17.8316 21.0013 17.8478 21.0015 17.863 20.997C20.0173 20.3486 22.0466 19.3407 23.865 18.016C23.8739 18.0098 23.8813 18.0017 23.8868 17.9924C23.8923 17.9831 23.8958 17.9727 23.897 17.962C24.397 12.868 23.059 8.44197 20.348 4.51997C20.3413 4.50723 20.3303 4.49729 20.317 4.49197ZM8.01999 15.278C6.83799 15.278 5.86299 14.209 5.86299 12.898C5.86299 11.586 6.81899 10.518 8.01999 10.518C9.22999 10.518 10.196 11.595 10.177 12.898C10.177 14.21 9.22099 15.278 8.01999 15.278V15.278ZM15.995 15.278C14.812 15.278 13.838 14.209 13.838 12.898C13.838 11.586 14.793 10.518 15.995 10.518C17.205 10.518 18.171 11.595 18.152 12.898C18.152 14.21 17.206 15.278 15.995 15.278V15.278Z"></path>
  </symbol>
  <symbol xmlns="http://www.w3.org/2000/svg" viewBox="0 0 20 20" id="ic-dashboard">
    <path fill-rule="evenodd" clip-rule="evenodd" d="M6.87774 4.37856C6.87774 6.24523 5.33886 7.75821 3.43887 7.75821C1.53999 7.75821 0 6.24523 0 4.37856C0 2.51298 1.53999 1 3.43887 1C5.33886 1 6.87774 2.51298 6.87774 4.37856ZM18.4934 2.89844C19.3246 2.89844 20.0001 3.56214 20.0001 4.37867C20.0001 5.1963 19.3246 5.86 18.4934 5.86H11.9179C11.0857 5.86 10.4102 5.1963 10.4102 4.37867C10.4102 3.56214 11.0857 2.89844 11.9179 2.89844H18.4934ZM1.50777 13.958H8.08329C8.91551 13.958 9.59106 14.6217 9.59106 15.4393C9.59106 16.2559 8.91551 16.9207 8.08329 16.9207H1.50777C0.675552 16.9207 0 16.2559 0 15.4393C0 14.6217 0.675552 13.958 1.50777 13.958ZM16.5609 18.7777C18.4609 18.7777 19.9998 17.2648 19.9998 15.3992C19.9998 13.5325 18.4609 12.0195 16.5609 12.0195C14.6621 12.0195 13.1221 13.5325 13.1221 15.3992C13.1221 17.2648 14.6621 18.7777 16.5609 18.7777Z"></path>
  </symbol>
  <symbol xmlns="http://www.w3.org/2000/svg" viewBox="0 0 24 24" id="ic-email">
    <path fill-rule="evenodd" clip-rule="evenodd" d="M16.6048 4C17.7362 4 18.8247 4.44719 19.6254 5.24959C20.427 6.05031 20.875 7.13031 20.875 8.26094V14.9266C20.875 17.2806 18.9597 19.1875 16.6048 19.1875H8.26937C5.91447 19.1875 4 17.2806 4 14.9266V8.26094C4 5.90688 5.90603 4 8.26937 4H16.6048ZM17.9471 9.51813L18.0146 9.45063C18.2163 9.20594 18.2163 8.85157 18.0053 8.60688C17.8881 8.48116 17.7269 8.40438 17.559 8.3875C17.3818 8.37822 17.2131 8.43813 17.0857 8.55625L13.2812 11.5938C12.7918 11.9996 12.0907 11.9996 11.5937 11.5938L7.79682 8.55625C7.53441 8.36219 7.1716 8.3875 6.95307 8.61532C6.72525 8.84313 6.69994 9.20594 6.89316 9.45907L7.00369 9.56875L10.8428 12.5641C11.3153 12.9353 11.8882 13.1378 12.4881 13.1378C13.0863 13.1378 13.6693 12.9353 14.141 12.5641L17.9471 9.51813Z"></path>
  </symbol>
  <symbol xmlns="http://www.w3.org/2000/svg" viewBox="0 0 20 20" id="ic-eye-close">
    <path fill-rule="evenodd" clip-rule="evenodd" d="M8.46229 12.2268C8.89942 12.5231 9.43217 12.7023 9.99908 12.7023C11.5017 12.7023 12.7243 11.4687 12.7243 9.95258C12.7243 9.38059 12.5467 8.84304 12.253 8.40198L11.5085 9.15316C11.6315 9.38748 11.6998 9.66314 11.6998 9.95258C11.6998 10.8967 10.9348 11.6686 9.99908 11.6686C9.71221 11.6686 9.439 11.5997 9.20678 11.4756L8.46229 12.2268ZM14.5002 6.13466C15.4905 7.04435 16.3306 8.27104 16.959 9.74584C17.0137 9.87678 17.0137 10.0284 16.959 10.1524C15.4974 13.5844 12.8951 15.6381 9.99908 15.6381H9.99225C8.67403 15.6381 7.41044 15.204 6.29713 14.4114L4.97207 15.7484C4.86962 15.8518 4.73985 15.9 4.61008 15.9C4.4803 15.9 4.3437 15.8518 4.24808 15.7484C4.07732 15.5761 4.05 15.3004 4.1866 15.1006L4.2071 15.073L14.3089 4.8804C14.3226 4.86661 14.3362 4.85283 14.3431 4.83905C14.3567 4.82526 14.3704 4.81148 14.3772 4.7977L15.0193 4.14989C15.2242 3.95004 15.5452 3.95004 15.7432 4.14989C15.9482 4.34975 15.9482 4.68054 15.7432 4.8804L14.5002 6.13466ZM7.26886 9.95527C7.26886 10.1345 7.28935 10.3136 7.31667 10.479L4.7895 13.0289C4.10649 12.2295 3.51226 11.2647 3.04098 10.1551C2.98634 10.0311 2.98634 9.87947 3.04098 9.74853C4.50264 6.31653 7.10493 4.26974 9.99409 4.26974H10.0009C10.9776 4.26974 11.927 4.50405 12.8013 4.94511L10.52 7.24689C10.3561 7.21932 10.1785 7.19865 10.0009 7.19865C8.49146 7.19865 7.26886 8.43224 7.26886 9.95527Z"></path>
  </symbol>
  <symbol xmlns="http://www.w3.org/2000/svg" viewBox="0 0 20 20" id="ic-eye-open">
    <path fill-rule="evenodd" clip-rule="evenodd" d="M7.60168 10.2668C7.60168 11.7602 8.82412 12.9752 10.3334 12.9752C11.8358 12.9752 13.0583 11.7602 13.0583 10.2668C13.0583 8.76671 11.8358 7.55168 10.3334 7.55168C8.82412 7.55168 7.60168 8.76671 7.60168 10.2668ZM14.3491 6.09899C15.5442 7.02214 16.5618 8.37293 17.2925 10.0631C17.3472 10.1921 17.3472 10.3414 17.2925 10.4636C15.8311 13.844 13.2291 15.8667 10.3335 15.8667H10.3267C7.43789 15.8667 4.83593 13.844 3.37447 10.4636C3.31984 10.3414 3.31984 10.1921 3.37447 10.0631C4.83593 6.68275 7.43789 4.66675 10.3267 4.66675H10.3335C11.7813 4.66675 13.154 5.16905 14.3491 6.09899ZM10.3344 11.9555C11.27 11.9555 12.0349 11.1953 12.0349 10.2653C12.0349 9.3286 11.27 8.56836 10.3344 8.56836C10.2524 8.56836 10.1705 8.57515 10.0954 8.58872C10.0681 9.33539 9.45342 9.93272 8.69537 9.93272H8.66122C8.64073 10.0413 8.62707 10.1499 8.62707 10.2653C8.62707 11.1953 9.39195 11.9555 10.3344 11.9555Z"></path>
  </symbol>
  <symbol xmlns="http://www.w3.org/2000/svg" viewBox="0 0 20 20" id="ic-faq">
    <path fill-rule="evenodd" clip-rule="evenodd" d="M0 10.015C0 4.74712 4.21 0 10.02 0C15.7 0 20 4.65699 20 9.98498C20 16.1642 14.96 20 10 20C8.36 20 6.54 19.5593 5.08 18.698C4.57 18.3876 4.14 18.1572 3.59 18.3375L1.57 18.9384C1.06 19.0986 0.6 18.698 0.75 18.1572L1.42 15.9139C1.53 15.6034 1.51 15.2729 1.35 15.0125C0.49 13.4301 0 11.6975 0 10.015ZM8.7 10.015C8.7 10.7261 9.27 11.2969 9.98 11.307C10.69 11.307 11.26 10.7261 11.26 10.025C11.26 9.31397 10.69 8.74311 9.98 8.74311C9.28 8.7331 8.7 9.31397 8.7 10.015ZM13.31 10.025C13.31 10.7261 13.88 11.307 14.59 11.307C15.3 11.307 15.87 10.7261 15.87 10.025C15.87 9.31397 15.3 8.74311 14.59 8.74311C13.88 8.74311 13.31 9.31397 13.31 10.025ZM5.37 11.307C4.67 11.307 4.09 10.7261 4.09 10.025C4.09 9.31397 4.66 8.74311 5.37 8.74311C6.08 8.74311 6.65 9.31397 6.65 10.025C6.65 10.7261 6.08 11.2969 5.37 11.307Z"></path>
  </symbol>
  <symbol xmlns="http://www.w3.org/2000/svg" viewBox="0 0 20 20" id="ic-home">
    <path d="M6.9934 18.7821V15.7152C6.99339 14.9381 7.6586 14.3067 8.48256 14.3018H11.508C12.3357 14.3018 13.0066 14.9346 13.0066 15.7152V15.7152V18.7732C13.0066 19.4473 13.5832 19.9951 14.2978 20H16.3619C17.3259 20.0023 18.2513 19.6428 18.9339 19.0007C19.6164 18.3586 20 17.4868 20 16.5775V7.86585C20 7.13139 19.6548 6.43471 19.0575 5.9635L12.0452 0.674268C10.8195 -0.250877 9.06881 -0.220992 7.87936 0.745384L1.01791 5.9635C0.392359 6.42082 0.0184761 7.11956 0 7.86585V16.5686C0 18.4637 1.62882 20 3.63808 20H5.65504C5.99913 20.0023 6.32999 19.8751 6.57418 19.6464C6.81838 19.4178 6.95571 19.1067 6.9557 18.7821H6.9934Z"></path>
  </symbol>
  <symbol xmlns="http://www.w3.org/2000/svg" viewBox="0 0 24 24" id="ic-inst">
    <path fill-rule="evenodd" clip-rule="evenodd" d="M7.05273 0.072C8.33236 0.0130909 8.74036 0 12 0C15.2596 0 15.6676 0.0141818 16.9462 0.072C18.2247 0.129818 19.0975 0.333818 19.8611 0.629455C20.6607 0.931636 21.3862 1.404 21.9862 2.01491C22.5971 2.61382 23.0684 3.33818 23.3695 4.13891C23.6662 4.90255 23.8691 5.77527 23.928 7.05164C23.9869 8.33346 24 8.74145 24 12C24 15.2596 23.9858 15.6676 23.928 16.9473C23.8702 18.2236 23.6662 19.0964 23.3695 19.86C23.0684 20.6608 22.5963 21.3864 21.9862 21.9862C21.3862 22.5971 20.6607 23.0684 19.8611 23.3695C19.0975 23.6662 18.2247 23.8691 16.9484 23.928C15.6676 23.9869 15.2596 24 12 24C8.74036 24 8.33236 23.9858 7.05273 23.928C5.77636 23.8702 4.90364 23.6662 4.14 23.3695C3.33919 23.0683 2.61362 22.5963 2.01382 21.9862C1.40332 21.3869 0.930889 20.6617 0.629455 19.8611C0.333818 19.0975 0.130909 18.2247 0.072 16.9484C0.0130909 15.6665 0 15.2585 0 12C0 8.74036 0.0141818 8.33236 0.072 7.05382C0.129818 5.77527 0.333818 4.90255 0.629455 4.13891C0.931334 3.33827 1.40413 2.61307 2.01491 2.01382C2.61386 1.40346 3.3387 0.931029 4.13891 0.629455C4.90255 0.333818 5.77527 0.130909 7.05164 0.072H7.05273ZM16.8491 2.232C15.5836 2.17418 15.204 2.16218 12 2.16218C8.796 2.16218 8.41636 2.17418 7.15091 2.232C5.98036 2.28545 5.34546 2.48073 4.92218 2.64545C4.36255 2.86364 3.96218 3.12218 3.54218 3.54218C3.14405 3.92951 2.83765 4.40104 2.64545 4.92218C2.48073 5.34546 2.28545 5.98036 2.232 7.15091C2.17418 8.41636 2.16218 8.796 2.16218 12C2.16218 15.204 2.17418 15.5836 2.232 16.8491C2.28545 18.0196 2.48073 18.6545 2.64545 19.0778C2.83745 19.5982 3.144 20.0705 3.54218 20.4578C3.92945 20.856 4.40182 21.1625 4.92218 21.3545C5.34546 21.5193 5.98036 21.7145 7.15091 21.768C8.41636 21.8258 8.79491 21.8378 12 21.8378C15.2051 21.8378 15.5836 21.8258 16.8491 21.768C18.0196 21.7145 18.6545 21.5193 19.0778 21.3545C19.6375 21.1364 20.0378 20.8778 20.4578 20.4578C20.856 20.0705 21.1625 19.5982 21.3545 19.0778C21.5193 18.6545 21.7145 18.0196 21.768 16.8491C21.8258 15.5836 21.8378 15.204 21.8378 12C21.8378 8.796 21.8258 8.41636 21.768 7.15091C21.7145 5.98036 21.5193 5.34546 21.3545 4.92218C21.1364 4.36255 20.8778 3.96218 20.4578 3.54218C20.0705 3.14408 19.5989 2.83768 19.0778 2.64545C18.6545 2.48073 18.0196 2.28545 16.8491 2.232V2.232ZM10.4673 15.6993C11.3233 16.0556 12.2764 16.1037 13.1639 15.8353C14.0514 15.567 14.8182 14.9988 15.3334 14.2279C15.8485 13.457 16.0801 12.5311 15.9884 11.6085C15.8968 10.6858 15.4876 9.82361 14.8309 9.16909C14.4123 8.7507 13.9061 8.43034 13.3487 8.23107C12.7914 8.0318 12.1968 7.95858 11.6078 8.01667C11.0188 8.07477 10.45 8.26274 9.94233 8.56705C9.43468 8.87136 9.00081 9.28445 8.67197 9.77657C8.34312 10.2687 8.12748 10.8276 8.04056 11.413C7.95365 11.9985 7.99762 12.596 8.16932 13.1624C8.34101 13.7288 8.63616 14.2501 9.03351 14.6888C9.43087 15.1275 9.92054 15.4726 10.4673 15.6993ZM7.63855 7.63855C8.2113 7.06579 8.89126 6.61146 9.6396 6.30149C10.3879 5.99151 11.19 5.83197 12 5.83197C12.81 5.83197 13.6121 5.99151 14.3604 6.30149C15.1087 6.61146 15.7887 7.06579 16.3615 7.63855C16.9342 8.2113 17.3885 8.89126 17.6985 9.6396C18.0085 10.3879 18.168 11.19 18.168 12C18.168 12.81 18.0085 13.6121 17.6985 14.3604C17.3885 15.1087 16.9342 15.7887 16.3615 16.3615C15.2047 17.5182 13.6359 18.168 12 18.168C10.3641 18.168 8.79528 17.5182 7.63855 16.3615C6.48182 15.2047 5.83197 13.6359 5.83197 12C5.83197 10.3641 6.48182 8.79528 7.63855 7.63855V7.63855ZM19.536 6.75055C19.6779 6.61666 19.7916 6.45565 19.8702 6.27706C19.9487 6.09847 19.9907 5.90593 19.9935 5.71083C19.9964 5.51574 19.9601 5.32205 19.8867 5.14125C19.8134 4.96044 19.7045 4.79619 19.5665 4.65822C19.4285 4.52026 19.2643 4.41137 19.0835 4.33802C18.9027 4.26467 18.709 4.22834 18.5139 4.23118C18.3188 4.23403 18.1263 4.27599 17.9477 4.35458C17.7691 4.43317 17.6081 4.5468 17.4742 4.68873C17.2138 4.96476 17.0712 5.33141 17.0768 5.71083C17.0823 6.09026 17.2355 6.4526 17.5038 6.72092C17.7721 6.98924 18.1345 7.14243 18.5139 7.14796C18.8933 7.15349 19.26 7.01093 19.536 6.75055V6.75055Z"></path>
  </symbol>

  <symbol xmlns="http://www.w3.org/2000/svg" viewBox="0 0 42 42" id="ic-gmail">
    <path d="M38.25 33.75H34V15.1562L21.25 23.125L8.5 15.1562V33.75H4.25V8.25H6.8L21.25 17.2812L35.7 8.25H38.25M38.25 4H4.25C1.89125 4 0 5.89125 0 8.25V33.75C0 34.8772 0.447766 35.9582 1.2448 36.7552C2.04183 37.5522 3.12283 38 4.25 38H38.25C39.3772 38 40.4582 37.5522 41.2552 36.7552C42.0522 35.9582 42.5 34.8772 42.5 33.75V8.25C42.5 7.12283 42.0522 6.04183 41.2552 5.2448C40.4582 4.44777 39.3772 4 38.25 4V4Z"></path>
  </symbol>

  <symbol xmlns="http://www.w3.org/2000/svg" viewBox="0 0 24 24" id="ic-message">
    <path fill-rule="evenodd" clip-rule="evenodd" d="M17.9268 1C19.536 1 21.084 1.636 22.2228 2.7772C23.3628 3.916 24 5.452 24 7.06V16.54C24 19.888 21.276 22.6 17.9268 22.6H6.072C2.7228 22.6 0 19.888 0 16.54V7.06C0 3.712 2.7108 1 6.072 1H17.9268ZM19.836 8.84761L19.932 8.75161C20.2188 8.40361 20.2188 7.89961 19.9188 7.55161C19.752 7.37281 19.5228 7.26361 19.284 7.23961C19.032 7.22641 18.792 7.31161 18.6108 7.47961L13.2 11.7996C12.504 12.3768 11.5068 12.3768 10.8 11.7996L5.4 7.47961C5.0268 7.20361 4.5108 7.23961 4.2 7.56361C3.876 7.88761 3.84 8.40361 4.1148 8.76361L4.272 8.91961L9.732 13.1796C10.404 13.7076 11.2188 13.9956 12.072 13.9956C12.9228 13.9956 13.752 13.7076 14.4228 13.1796L19.836 8.84761Z"></path>
  </symbol>

  <symbol xmlns="http://www.w3.org/2000/svg" viewBox="0 0 24 24" id="ic-blog">
    <path fill-rule="evenodd" clip-rule="evenodd" d="M7.81 2H16.191C19.28 2 21 3.78 21 6.83V17.16C21 20.26 19.28 22 16.191 22H7.81C4.77 22 3 20.26 3 17.16V6.83C3 3.78 4.77 2 7.81 2ZM8.08 6.66V6.65H11.069C11.5 6.65 11.85 7 11.85 7.429C11.85 7.87 11.5 8.22 11.069 8.22H8.08C7.649 8.22 7.3 7.87 7.3 7.44C7.3 7.01 7.649 6.66 8.08 6.66ZM8.08 12.74H15.92C16.35 12.74 16.7 12.39 16.7 11.96C16.7 11.53 16.35 11.179 15.92 11.179H8.08C7.649 11.179 7.3 11.53 7.3 11.96C7.3 12.39 7.649 12.74 8.08 12.74ZM8.08 17.31H15.92C16.319 17.27 16.62 16.929 16.62 16.53C16.62 16.12 16.319 15.78 15.92 15.74H8.08C7.78 15.71 7.49 15.85 7.33 16.11C7.17 16.36 7.17 16.69 7.33 16.95C7.49 17.2 7.78 17.35 8.08 17.31Z"></path>
  </symbol>


  <symbol xmlns="http://www.w3.org/2000/svg" viewBox="0 0 22 22" id="ic-info">
    <path d="M11.4369 8.33333C12.0712 8.33333 12.5452 8.91631 12.4158 9.53729L11 16.3333H14.6667C15.403 16.3333 16 16.9303 16 17.6667V17.6667C16 18.403 15.403 19 14.6667 19H8.89647C8.26216 19 7.78812 18.417 7.91749 17.796L9.33333 11H7.33333C6.59695 11 6 10.403 6 9.66667V9.66667C6 8.93029 6.59695 8.33333 7.33333 8.33333H11.4369Z"></path>
    <path d="M12.3333 7C13.4379 7 14.3333 6.10457 14.3333 5V5C14.3333 3.89543 13.4379 3 12.3333 3H11.3333C10.2288 3 9.33333 3.89543 9.33333 5V5C9.33333 6.10457 10.2288 7 11.3333 7H12.3333Z"></path>
  </symbol>


  




  <symbol xmlns="http://www.w3.org/2000/svg" viewBox="0 0 40 40" id="ic-next">
    <path fill-rule="evenodd" clip-rule="evenodd" d="M9.58579 1.58579C8.80474 2.36684 8.80474 3.63317 9.58579 4.41421L25.3799 20.2083L9.58579 36.0025C8.80474 36.7835 8.80474 38.0498 9.58579 38.8309C10.3668 39.6119 11.6332 39.6119 12.4142 38.8309L29.6225 21.6225C29.9976 21.2475 30.2083 20.7388 30.2083 20.2083C30.2083 19.6779 29.9976 19.1692 29.6225 18.7941L12.4142 1.58579C11.6332 0.804738 10.3668 0.804738 9.58579 1.58579Z"></path>
  </symbol>
  <symbol xmlns="http://www.w3.org/2000/svg" viewBox="0 0 40 40" id="ic-prev">
    <path fill-rule="evenodd" clip-rule="evenodd" d="M29.4142 1.58579C30.1953 2.36684 30.1953 3.63317 29.4142 4.41421L13.6201 20.2083L29.4142 36.0025C30.1953 36.7835 30.1953 38.0498 29.4142 38.8309C28.6332 39.6119 27.3668 39.6119 26.5858 38.8309L9.37745 21.6225C9.00238 21.2475 8.79167 20.7388 8.79167 20.2083C8.79167 19.6779 9.00238 19.1692 9.37745 18.7941L26.5858 1.58579C27.3668 0.804738 28.6332 0.804738 29.4142 1.58579Z"></path>
  </symbol>
  <symbol xmlns="http://www.w3.org/2000/svg" viewBox="0 0 16 16" id="ic-arrow-up">
      <path fill-rule="evenodd" clip-rule="evenodd" d="M0.292893 12.7071C0.683417 13.0976 1.31658 13.0976 1.70711 12.7071L8 6.41421L14.2929 12.7071C14.6834 13.0976 15.3166 13.0976 15.7071 12.7071C16.0976 12.3166 16.0976 11.6834 15.7071 11.2929L8.70711 4.29289C8.31658 3.90237 7.68342 3.90237 7.29289 4.29289L0.292893 11.2929C-0.0976311 11.6834 -0.0976311 12.3166 0.292893 12.7071Z"></path>
  </symbol>
</svg>